<svg width="795" height="421" viewBox="0 0 795 421" fill="none" xmlns="http://www.w3.org/2000/svg">
<path d="M338.621 393.603C324.808 376.349 316.969 350.539 315.1 316.188C313.242 282.03 318.243 255.625 330.103 236.976C341.963 218.33 360.046 208.346 384.362 207.029C408.672 205.711 427.735 213.687 441.548 230.941C455.361 248.201 463.198 273.909 465.054 308.069C466.913 342.231 461.912 368.681 450.059 387.426C438.204 406.17 420.121 416.201 395.81 417.518C371.494 418.836 352.436 410.868 338.624 393.606L338.621 393.603Z" fill="white"/>
<path d="M338.621 393.603C324.808 376.349 316.969 350.539 315.1 316.188C313.242 282.03 318.243 255.625 330.103 236.976C341.963 218.33 360.046 208.346 384.362 207.029C408.672 205.711 427.735 213.687 441.548 230.941C455.361 248.201 463.198 273.909 465.054 308.069C466.913 342.231 461.912 368.681 450.059 387.426C438.204 406.17 420.121 416.201 395.81 417.518C371.494 418.836 352.436 410.868 338.624 393.606L338.621 393.603Z" stroke="#02A1F5" stroke-width="5" stroke-miterlimit="10"/>
<path d="M422.099 368.351C427.468 355.897 429.435 336.469 428.001 310.071C426.555 283.484 422.489 264.382 415.813 252.77C409.133 241.161 399.181 235.715 385.956 236.429C372.728 237.146 363.427 243.686 358.056 256.044C352.68 268.406 350.713 287.784 352.147 314.178C353.583 340.573 357.644 359.675 364.333 371.476C371.02 383.283 380.977 388.825 394.205 388.108C407.428 387.391 416.726 380.807 422.097 368.348L422.099 368.351Z" fill="#02A1F5" fill-opacity="0.05"/>
<path d="M422.099 368.351C427.468 355.897 429.435 336.469 428.001 310.071C426.555 283.484 422.489 264.382 415.813 252.77C409.133 241.161 399.181 235.715 385.956 236.429C372.728 237.146 363.427 243.686 358.056 256.044C352.68 268.406 350.713 287.784 352.147 314.178C353.583 340.573 357.644 359.675 364.333 371.476C371.02 383.283 380.977 388.825 394.205 388.108C407.428 387.391 416.726 380.807 422.097 368.348L422.099 368.351Z" fill="#02A1F5" fill-opacity="0.05"/>
<path d="M422.099 368.351C427.468 355.897 429.435 336.469 428.001 310.071C426.555 283.484 422.489 264.382 415.813 252.77C409.133 241.161 399.181 235.715 385.956 236.429C372.728 237.146 363.427 243.686 358.056 256.044C352.68 268.406 350.713 287.784 352.147 314.178C353.583 340.573 357.644 359.675 364.333 371.476C371.02 383.283 380.977 388.825 394.205 388.108C407.428 387.391 416.726 380.807 422.097 368.348L422.099 368.351Z" stroke="#02A1F5" stroke-width="5" stroke-miterlimit="10"/>
<path d="M422.099 368.351C427.468 355.897 429.435 336.469 428.001 310.071C426.555 283.484 422.489 264.382 415.813 252.77C409.133 241.161 399.181 235.715 385.956 236.429C372.728 237.146 363.427 243.686 358.056 256.044C352.68 268.406 350.713 287.784 352.147 314.178C353.583 340.573 357.644 359.675 364.333 371.476C371.02 383.283 380.977 388.825 394.205 388.108C407.428 387.391 416.726 380.807 422.097 368.348L422.099 368.351Z" stroke="#02A1F5" stroke-width="5" stroke-miterlimit="10"/>
<path d="M506.446 331.028H248.52V334.164H506.446V331.028Z" fill="#02A1F5"/>
<path d="M667.685 331.812H500.435C499.858 331.812 499.391 331.893 499.391 331.992V333.984C499.391 334.083 499.858 334.164 500.435 334.164H667.685C668.261 334.164 668.729 334.083 668.729 333.984V331.992C668.729 331.893 668.261 331.812 667.685 331.812Z" fill="#02A1F5"/>
<path d="M209.437 331.812H102.583C102.215 331.812 101.916 331.893 101.916 331.992V333.984C101.916 334.083 102.215 334.164 102.583 334.164H209.437C209.806 334.164 210.104 334.083 210.104 333.984V331.992C210.104 331.893 209.806 331.812 209.437 331.812Z" fill="#02A1F5"/>
<path d="M642.688 381.45H612.905C612.837 381.45 612.781 381.505 612.781 381.573V382.935C612.781 383.003 612.837 383.058 612.905 383.058H642.688C642.756 383.058 642.811 383.003 642.811 382.935V381.573C642.811 381.505 642.756 381.45 642.688 381.45Z" fill="#C4CEFE"/>
<path d="M129.661 98.9293C135.293 98.9293 140.191 94.8478 140.951 89.2785C141.087 88.281 141.158 87.2612 141.158 86.2242C141.158 73.8269 131.085 63.7746 118.662 63.7746C118.151 63.7746 117.647 63.7968 117.146 63.8313C116.119 51.604 105.856 42 93.3391 42C80.1409 42 69.4407 52.6779 69.4407 65.8486C69.4407 66.4324 69.4678 67.0113 69.5098 67.5827C65.7629 65.4939 61.3988 64.3781 56.7559 64.59C44.7524 65.1392 34.8889 74.7211 34.0398 86.6823C34.0324 86.7784 34.0275 86.872 34.0201 86.9681C33.6326 93.4734 38.9049 98.9293 45.4337 98.9293H129.661Z" fill="#02A1F5" fill-opacity="0.15"/>
<path d="M780.226 179.688C798.015 179.688 799 152.969 781.23 152.11C780.744 152.085 780.255 152.075 779.767 152.075C776.595 152.075 773.541 152.578 770.676 153.497C768.299 139.035 755.723 128 740.557 128C725.392 128 712.268 139.528 710.3 154.457C706.622 152.698 702.503 151.711 698.154 151.711C695.725 151.711 693.365 152.019 691.116 152.597C675.561 156.595 678.826 179.69 694.888 179.69H780.226V179.688Z" fill="#02A1F5" fill-opacity="0.1"/>
<path d="M608.198 51.6754C625.983 51.6754 626.967 24.9669 609.203 24.1048C608.716 24.0802 608.23 24.0703 607.739 24.0703C604.567 24.0703 601.516 24.5704 598.651 25.4891C596.274 11.0326 583.702 0 568.542 0C553.381 0 540.26 11.5253 538.292 26.4498C534.617 24.6911 530.497 23.7058 526.148 23.7058C523.719 23.7058 521.362 24.0137 519.114 24.5901C503.563 28.5854 506.826 51.6754 522.885 51.6754H608.196H608.198Z" fill="#02A1F5" fill-opacity="0.25"/>
<path d="M571.234 118.191C580.567 128.022 583.116 128.091 592.968 118.777C583.116 128.091 583.047 130.635 592.38 140.466C583.047 130.635 580.498 130.566 570.646 139.879C580.498 130.566 580.567 128.022 571.234 118.191Z" fill="#111111"/>
<path d="M201.587 2C210.92 11.8306 213.47 11.8996 223.321 2.58624C213.47 11.8996 213.401 14.4441 222.734 24.2747C213.401 14.4441 210.851 14.3751 201 23.6884C210.851 14.3751 210.92 11.8306 201.587 2Z" fill="#111111"/>
<path d="M126.587 161C135.92 170.831 138.47 170.9 148.321 161.586C138.47 170.9 138.401 173.444 147.734 183.275C138.401 173.444 135.851 173.375 126 182.688C135.851 173.375 135.92 170.831 126.587 161Z" fill="#111111"/>
<path d="M17.5875 257C26.9202 266.831 29.47 266.9 39.3212 257.586C29.47 266.9 29.4009 269.444 38.7337 279.275C29.4009 269.444 26.8511 269.375 17 278.688C26.8511 269.375 26.9202 266.831 17.5875 257Z" fill="#111111"/>
<path d="M738.587 246C747.92 255.831 750.47 255.9 760.321 246.586C750.47 255.9 750.401 258.444 759.734 268.275C750.401 258.444 747.851 258.375 738 267.688C747.851 258.375 747.92 255.831 738.587 246Z" fill="#111111"/>
<path d="M656.813 310.429L634.085 314.986L643.218 360.348L594.554 370.104L585.422 324.742L496.258 342.62L489.174 307.436L543.665 168.544L602.233 156.799L625.653 273.111L648.381 268.554L656.813 310.429ZM564.288 219.771L538.531 290.58L576.992 282.868L564.288 219.768V219.771Z" fill="#02A1F5"/>
<path d="M281.782 333.915L258.916 330.112L251.293 375.75L202.334 367.607L209.956 321.969L120.247 307.047L126.159 271.646L226.571 161.157L285.497 170.958L265.95 287.979L288.817 291.782L281.78 333.913L281.782 333.915ZM227.597 216.354L178.297 273.402L216.993 279.838L227.597 216.354Z" fill="#02A1F5"/>
<path d="M717 334H78V421H717V334Z" fill="white"/>
<path d="M140.9 383.654H111.117C111.048 383.654 110.993 383.71 110.993 383.778V385.14C110.993 385.208 111.048 385.263 111.117 385.263H140.9C140.968 385.263 141.023 385.208 141.023 385.14V383.778C141.023 383.71 140.968 383.654 140.9 383.654Z" fill="#02A1F5" fill-opacity="0.2"/>
<path d="M222.385 383.654H192.602C192.534 383.654 192.479 383.71 192.479 383.778V385.14C192.479 385.208 192.534 385.263 192.602 385.263H222.385C222.453 385.263 222.508 385.208 222.508 385.14V383.778C222.508 383.71 222.453 383.654 222.385 383.654Z" fill="#02A1F5" fill-opacity="0.2"/>
<path d="M296.546 364.557H266.763C266.695 364.557 266.64 364.612 266.64 364.68V366.043C266.64 366.111 266.695 366.166 266.763 366.166H296.546C296.614 366.166 296.669 366.111 296.669 366.043V364.68C296.669 364.612 296.614 364.557 296.546 364.557Z" fill="#02A1F5" fill-opacity="0.2"/>
<path d="M338.725 385.677H308.942C308.874 385.677 308.818 385.732 308.818 385.8V387.162C308.818 387.23 308.874 387.285 308.942 387.285H338.725C338.793 387.285 338.848 387.23 338.848 387.162V385.8C338.848 385.732 338.793 385.677 338.725 385.677Z" fill="#02A1F5" fill-opacity="0.2"/>
<path d="M442.789 385.677H413.006C412.938 385.677 412.883 385.732 412.883 385.8V387.162C412.883 387.23 412.938 387.285 413.006 387.285H442.789C442.857 387.285 442.913 387.23 442.913 387.162V385.8C442.913 385.732 442.857 385.677 442.789 385.677Z" fill="#02A1F5" fill-opacity="0.2"/>
<path d="M559.216 384.482H529.433C529.365 384.482 529.31 384.537 529.31 384.605V385.967C529.31 386.035 529.365 386.091 529.433 386.091H559.216C559.284 386.091 559.339 386.035 559.339 385.967V384.605C559.339 384.537 559.284 384.482 559.216 384.482Z" fill="#02A1F5" fill-opacity="0.2"/>
<path d="M189.36 361.461H159.578C159.509 361.461 159.454 361.516 159.454 361.584V362.946C159.454 363.014 159.509 363.07 159.578 363.07H189.36C189.429 363.07 189.484 363.014 189.484 362.946V361.584C189.484 361.516 189.429 361.461 189.36 361.461Z" fill="#02A1F5" fill-opacity="0.2"/>
<path d="M396.563 360.678H366.78C366.712 360.678 366.656 360.733 366.656 360.801V362.163C366.656 362.231 366.712 362.286 366.78 362.286H396.563C396.631 362.286 396.686 362.231 396.686 362.163V360.801C396.686 360.733 396.631 360.678 396.563 360.678Z" fill="#02A1F5" fill-opacity="0.2"/>
<path d="M607.672 360.552H577.889C577.821 360.552 577.766 360.607 577.766 360.675V362.037C577.766 362.105 577.821 362.161 577.889 362.161H607.672C607.74 362.161 607.795 362.105 607.795 362.037V360.675C607.795 360.607 607.74 360.552 607.672 360.552Z" fill="#02A1F5" fill-opacity="0.2"/>
<path d="M503.763 353.062H473.98C473.912 353.062 473.856 353.117 473.856 353.185V354.547C473.856 354.615 473.912 354.67 473.98 354.67H503.763C503.831 354.67 503.886 354.615 503.886 354.547V353.185C503.886 353.117 503.831 353.062 503.763 353.062Z" fill="#02A1F5" fill-opacity="0.2"/>
<path d="M343.909 171.073L429.108 146.106C430.703 145.638 431.616 143.971 431.147 142.377L396.376 24.2128C395.907 22.6216 394.236 21.7102 392.639 22.1782L334.307 39.2728C333.562 39.492 332.93 39.9896 332.542 40.662L313.252 74.2748C312.845 74.9842 312.746 75.8291 312.976 76.6148L340.174 169.039C340.643 170.63 342.314 171.541 343.911 171.073H343.909Z" fill="white"/>
<path d="M343.909 171.073L429.108 146.106C430.703 145.638 431.616 143.971 431.147 142.377L396.376 24.2128C395.907 22.6216 394.236 21.7102 392.639 22.1782L334.307 39.2728C333.562 39.492 332.93 39.9896 332.542 40.662L313.252 74.2748C312.845 74.9842 312.746 75.8291 312.976 76.6148L340.174 169.039C340.643 170.63 342.314 171.541 343.911 171.073H343.909Z" stroke="#02A1F5" stroke-width="5" stroke-linecap="round" stroke-linejoin="round"/>
<path d="M333.898 41.103L341.011 65.2743C341.512 66.9739 340.54 68.7572 338.839 69.2622L313.521 76.7996" fill="white"/>
<path d="M333.898 41.103L341.011 65.2743C341.512 66.9739 340.54 68.7572 338.839 69.2622L313.521 76.7996" stroke="#02A1F5" stroke-width="5" stroke-linecap="round" stroke-linejoin="round"/>
<path d="M350.739 130.079L345.5 131.615C345.238 131.691 345.089 131.965 345.166 132.226L351.246 152.884C351.323 153.145 351.598 153.295 351.859 153.218L357.098 151.682C357.359 151.606 357.509 151.332 357.432 151.071L351.351 130.413C351.275 130.152 351 130.002 350.739 130.079Z" fill="#02A1F5" fill-opacity="0.3"/>
<path d="M377.296 129L372.058 130.535C371.796 130.612 371.646 130.886 371.723 131.147L375.987 145.632C376.064 145.893 376.338 146.042 376.6 145.965L381.838 144.43C382.1 144.353 382.25 144.079 382.173 143.818L377.909 129.333C377.832 129.072 377.558 128.923 377.296 129Z" fill="#02A1F5" fill-opacity="0.3"/>
<path d="M387.85 119.2L382.611 120.735C382.35 120.812 382.2 121.086 382.277 121.347L388.358 142.005C388.435 142.266 388.709 142.415 388.97 142.339L394.209 140.803C394.471 140.726 394.62 140.453 394.544 140.192L388.463 119.534C388.386 119.273 388.112 119.123 387.85 119.2Z" fill="#02A1F5" fill-opacity="0.3"/>
<path d="M361.292 120.279L356.054 121.815C355.792 121.892 355.642 122.165 355.719 122.427L363.617 149.258C363.694 149.519 363.968 149.668 364.23 149.591L369.469 148.056C369.73 147.979 369.88 147.705 369.803 147.444L361.905 120.613C361.828 120.352 361.554 120.203 361.292 120.279Z" fill="#02A1F5" fill-opacity="0.3"/>
<path fill-rule="evenodd" clip-rule="evenodd" d="M391.646 72.0634C391.951 73.1022 391.355 74.191 390.316 74.4955L333.1 91.2624C332.062 91.5668 330.973 90.9715 330.668 89.9328C330.364 88.894 330.959 87.8052 331.998 87.5007L389.214 70.7338C390.253 70.4294 391.342 71.0247 391.646 72.0634Z" fill="#02A1F5" fill-opacity="0.2"/>
<path fill-rule="evenodd" clip-rule="evenodd" d="M394.369 81.3226C394.673 82.3613 394.078 83.4502 393.039 83.7546L335.823 100.522C334.784 100.826 333.696 100.231 333.391 99.1919C333.087 98.1531 333.682 97.0643 334.721 96.7599L391.937 79.9929C392.976 79.6885 394.064 80.2838 394.369 81.3226Z" fill="#02A1F5" fill-opacity="0.2"/>
<path fill-rule="evenodd" clip-rule="evenodd" d="M397.094 90.5817C397.399 91.6205 396.803 92.7093 395.765 93.0137L338.549 109.781C337.51 110.085 336.421 109.49 336.117 108.451C335.812 107.412 336.408 106.323 337.446 106.019L394.662 89.2521C395.701 88.9477 396.79 89.543 397.094 90.5817Z" fill="#02A1F5" fill-opacity="0.2"/>
<path d="M460.128 139.18L462.251 134.675C462.656 133.818 462.231 132.798 461.338 132.478L432.824 122.258L431.572 124.509L457.855 139.882C458.672 140.36 459.726 140.035 460.128 139.177V139.18Z" fill="#B7B7B7"/>
<path d="M411.425 138.512C424.184 138.512 434.527 128.191 434.527 115.459C434.527 102.728 424.184 92.4064 411.425 92.4064C398.667 92.4064 388.324 102.728 388.324 115.459C388.324 128.191 398.667 138.512 411.425 138.512Z" fill="#EBEBEB"/>
<path d="M411.425 133.707C421.524 133.707 429.711 125.537 429.711 115.459C429.711 105.382 421.524 97.2121 411.425 97.2121C401.326 97.2121 393.14 105.382 393.14 115.459C393.14 125.537 401.326 133.707 411.425 133.707Z" fill="white"/>
<path fill-rule="evenodd" clip-rule="evenodd" d="M411.425 94.3663C399.746 94.3663 390.284 103.814 390.284 115.459C390.284 127.105 399.746 136.552 411.425 136.552C423.105 136.552 432.567 127.105 432.567 115.459C432.567 103.814 423.105 94.3663 411.425 94.3663ZM386.364 115.459C386.364 101.641 397.588 90.4464 411.425 90.4464C425.262 90.4464 436.486 101.641 436.486 115.459C436.486 129.278 425.262 140.472 411.425 140.472C397.588 140.472 386.364 129.278 386.364 115.459Z" fill="#B7B7B7"/>
<path d="M411.314 124.308C411.319 124.308 411.322 124.304 411.322 124.3C411.322 124.296 411.319 124.292 411.314 124.292C411.31 124.292 411.307 124.296 411.307 124.3C411.307 124.304 411.31 124.308 411.314 124.308Z" stroke="#33D895" stroke-width="8" stroke-linecap="round" stroke-linejoin="round"/>
<path fill-rule="evenodd" clip-rule="evenodd" d="M411.36 104.652C412.442 104.665 413.308 105.554 413.295 106.636L413.154 117.893C413.141 118.975 412.252 119.842 411.17 119.828C410.087 119.815 409.221 118.926 409.235 117.844L409.375 106.587C409.389 105.505 410.277 104.638 411.36 104.652Z" fill="#111111"/>
<circle cx="411.194" cy="125.235" r="2.7439" fill="#111111"/>
</svg>
