<svg width="129" height="45" viewBox="0 0 129 45" fill="none" xmlns="http://www.w3.org/2000/svg">
<path d="M81.0756 35.52C80.2948 36.915 79.1237 38.04 77.5323 38.91C75.9408 39.78 73.989 40.215 71.6618 40.215C69.3346 40.215 67.3828 39.81 65.6112 38.985C63.8395 38.16 62.4432 37.035 61.3922 35.595C60.3413 34.155 59.7257 32.52 59.5756 30.675H64.2899C64.38 31.65 64.7253 32.595 65.2809 33.51C65.8514 34.425 66.6621 35.19 67.7131 35.79C68.7641 36.39 70.0403 36.69 71.5267 36.69C73.0131 36.69 74.9649 36.18 76.0008 35.145C77.0368 34.11 77.5473 32.79 77.5473 31.17C77.5473 29.55 77.1869 28.65 76.4512 27.78C75.7156 26.91 74.8297 26.22 73.7487 25.725C72.6827 25.23 71.2264 24.675 69.3797 24.105C67.2177 23.4 65.476 22.725 64.1548 22.095C62.8486 21.465 61.7226 20.52 60.8067 19.26C59.8908 18 59.4254 16.335 59.4254 14.265C59.4254 12.195 59.8608 10.92 60.7166 9.55499C61.5724 8.18999 62.8036 7.13999 64.4101 6.40499C66.0165 5.65499 67.8933 5.29498 70.0703 5.29498C73.4334 5.29498 76.1059 6.10498 78.0878 7.73998C80.0546 9.37498 81.2107 11.445 81.541 13.98H76.7816C76.5263 12.615 75.8207 11.43 74.6946 10.395C73.5686 9.35998 72.0221 8.84998 70.0853 8.84998C68.1485 8.84998 66.8874 9.31499 65.8064 10.23C64.7253 11.145 64.1999 12.45 64.1999 14.13C64.1999 15.81 64.5452 16.53 65.2508 17.355C65.9415 18.18 66.8123 18.825 67.8482 19.29C68.8842 19.755 70.3105 20.28 72.1272 20.865C74.3343 21.57 76.1059 22.26 77.4422 22.905C78.7784 23.55 79.9195 24.525 80.8654 25.845C81.8112 27.15 82.2767 28.89 82.2767 31.065C82.2767 33.24 81.8863 34.185 81.1056 35.58L81.0756 35.52Z" fill="#2D3484"/>
<path d="M88.2071 3.47998C88.7626 2.98498 89.4833 2.72998 90.3992 2.72998C91.315 2.72998 92.0357 2.98498 92.5912 3.47998C93.1467 3.97498 93.417 4.63498 93.417 5.44498C93.417 6.25498 93.1467 6.91498 92.5912 7.40998C92.0357 7.90498 91.315 8.15998 90.3992 8.15998C89.4833 8.15998 88.7626 7.90498 88.2071 7.40998C87.6516 6.91498 87.3813 6.25498 87.3813 5.44498C87.3813 4.63498 87.6516 3.97498 88.2071 3.47998Z" fill="#F15B28"/>
<path d="M92.5762 13.26H88.1621V39.9H92.5762V13.26Z" fill="#2D3484"/>
<path d="M106.539 8.16002C105.624 9.00002 105.158 10.455 105.158 12.525V13.26H111.464V17.145H105.158V39.9H100.744V17.145H96.9155V13.26H100.744V12.195C100.744 5.82001 104.317 2.79001 111.479 3.07501V6.96002C109.122 6.93002 107.47 7.33501 106.554 8.17501L106.539 8.16002Z" fill="#2D3484"/>
<path d="M129 36.015V39.9H125.697C122.98 39.9 120.953 39.255 119.601 37.965C118.265 36.675 117.59 34.5 117.59 31.47V17.115H113.611V13.275H117.59V6.63H122.064V13.275H128.955V17.115H122.064V31.575C122.064 33.285 122.379 34.455 123.01 35.085C123.64 35.715 124.736 36.03 126.283 36.03H129V36.015Z" fill="#2D3484"/>
<path d="M0 14.79L13.0622 1.53H26.4996L13.2423 14.79L26.3495 27.87H13.0021L0 14.79Z" fill="#2D3484"/>
<path d="M47.234 29.97L34.1719 43.23H20.7344L33.9767 29.97L20.8845 16.875H34.2319L47.234 29.97Z" fill="#2D3484"/>
<path d="M33.8866 0L47.0238 13.05L20.9446 12.99L33.8866 0Z" fill="#F15B28"/>
<path d="M13.2722 45L0.150024 31.95L26.2143 32.01L13.2722 45Z" fill="#F15B28"/>
</svg>
