<svg width="60" height="60" viewBox="0 0 60 60" fill="none" xmlns="http://www.w3.org/2000/svg">
<path d="M54.9218 19.6916C53.7538 19.6966 52.6238 20.1069 51.7245 20.8524C50.8252 21.598 50.2123 22.6326 49.9904 23.7798H40.771V19.3635H48.9184V10.0451C50.1637 9.86949 51.2985 9.23491 52.1005 8.26572C52.9024 7.29654 53.3136 6.06264 53.2535 4.80589C53.1933 3.54915 52.6662 2.36019 51.7754 1.47207C50.8846 0.583957 49.6944 0.0607335 48.438 0.0049645C47.1817 -0.0508045 45.9498 0.364903 44.9839 1.1706C44.018 1.97629 43.3876 3.11388 43.2165 4.36035C43.0454 5.60683 43.3457 6.87232 44.0587 7.90875C44.7717 8.94518 45.8459 9.67782 47.0707 9.96305V17.496H40.5061C40.1902 16.6484 39.5996 15.931 38.8287 15.4582V12.9977C38.8287 10.6551 37.8986 8.40851 36.2429 6.75207C34.5873 5.09563 32.3417 4.16505 30.0003 4.16505C27.6588 4.16505 25.4133 5.09563 23.7576 6.75207C22.1019 8.40851 21.1718 10.6551 21.1718 12.9977V15.4582C20.3971 15.93 19.8023 16.6473 19.4818 17.496H12.9172V9.96305C14.1314 9.67785 15.1956 8.94951 15.9013 7.9206C16.607 6.89169 16.9035 5.63631 16.7327 4.4002C16.5618 3.1641 15.936 2.03628 14.9777 1.23755C14.0195 0.438808 12.7977 0.0266582 11.5517 0.0817818C10.3056 0.136906 9.12497 0.655333 8.24089 1.53558C7.35682 2.41582 6.83295 3.59449 6.77184 4.84085C6.71074 6.08722 7.1168 7.31153 7.91053 8.2741C8.70427 9.23668 9.82852 9.86821 11.0632 10.0451V19.3509H19.2611V23.7672H10.0038C9.77274 22.5306 9.08845 21.425 8.08503 20.6669C7.08161 19.9088 5.83139 19.5529 4.57936 19.6689C3.32733 19.785 2.16376 20.3647 1.31666 21.2943C0.469559 22.224 0 23.4367 0 24.6946C0 25.9526 0.469559 27.1653 1.31666 28.0949C2.16376 29.0246 3.32733 29.6043 4.57936 29.7203C5.83139 29.8364 7.08161 29.4805 8.08503 28.7224C9.08845 27.9643 9.77274 26.8586 10.0038 25.6221H19.2295V29.3065C19.2312 30.3803 19.6583 31.4095 20.4171 32.1688C21.176 32.928 22.2048 33.3553 23.278 33.3569H26.6454V45.4387L25.3842 43.6974C25.0785 43.2698 24.6913 42.9069 24.2448 42.6296C23.7983 42.3522 23.3014 42.166 22.7827 42.0816C22.264 41.9971 21.7338 42.0162 21.2224 42.1376C20.7111 42.259 20.2289 42.4803 19.8034 42.7889C18.9578 43.4101 18.3896 44.3384 18.221 45.3742C18.0523 46.4101 18.2967 47.4708 18.9016 48.3283L26.8472 59.6025C26.9311 59.7258 27.044 59.8266 27.1759 59.8959C27.3079 59.9652 27.4549 60.001 27.604 60H43.6655C44.3376 59.9985 45.0003 59.8418 45.6019 59.5419C46.2036 59.2421 46.7278 58.8072 47.1338 58.2713L48.8175 56.0379C49.3838 55.2847 49.6913 54.3685 49.6941 53.426V44.8394C49.6924 43.9062 49.3211 43.0117 48.6616 42.3519C48.0021 41.692 47.108 41.3206 46.1753 41.3189H44.6744C44.4935 40.4999 44.0387 39.7671 43.3852 39.2417C42.7316 38.7163 41.9184 38.4298 41.08 38.4294H38.8792C38.5539 37.8027 38.0635 37.2769 37.4611 36.9088C36.8587 36.5408 36.1672 36.3444 35.4613 36.3411H33.9794V33.3696H36.7225C37.7957 33.3679 38.8245 32.9406 39.5834 32.1814C40.3423 31.4221 40.7693 30.3929 40.771 29.3192V25.6158H49.9904C50.161 26.5618 50.5981 27.4395 51.2503 28.1455C51.9025 28.8515 52.7426 29.3564 53.6719 29.601C54.6012 29.8455 55.5809 29.8194 56.4959 29.5258C57.4109 29.2322 58.223 28.6833 58.8368 27.9436C59.4505 27.2039 59.8404 26.3043 59.9605 25.3505C60.0805 24.3967 59.9258 23.4284 59.5146 22.5596C59.1033 21.6907 58.4526 20.9575 57.639 20.446C56.8253 19.9346 55.8826 19.6663 54.9218 19.6727V19.6916ZM45.0591 5.07986C45.0591 4.45596 45.244 3.84606 45.5905 3.3273C45.937 2.80855 46.4294 2.40422 47.0055 2.16547C47.5817 1.92671 48.2156 1.86424 48.8273 1.98596C49.4389 2.10767 50.0007 2.40811 50.4417 2.84928C50.8826 3.29045 51.1829 3.85253 51.3046 4.46444C51.4262 5.07636 51.3638 5.71063 51.1252 6.28704C50.8865 6.86345 50.4824 7.35612 49.9639 7.70274C49.4454 8.04937 48.8357 8.23438 48.2121 8.23438C47.3759 8.23438 46.5739 7.90203 45.9826 7.31044C45.3913 6.71885 45.0591 5.91649 45.0591 5.07986ZM8.61645 5.07986C8.61645 4.45596 8.80137 3.84606 9.14783 3.3273C9.49429 2.80855 9.98672 2.40422 10.5629 2.16547C11.139 1.92671 11.773 1.86424 12.3846 1.98596C12.9962 2.10767 13.558 2.40811 13.999 2.84928C14.44 3.29045 14.7403 3.85253 14.8619 4.46444C14.9836 5.07636 14.9211 5.71063 14.6825 6.28704C14.4438 6.86345 14.0397 7.35612 13.5212 7.70274C13.0027 8.04937 12.3931 8.23438 11.7695 8.23438C10.9332 8.23438 10.1313 7.90203 9.53995 7.31044C8.94864 6.71885 8.61645 5.91649 8.61645 5.07986ZM5.07876 27.8744C4.45515 27.8744 3.84554 27.6894 3.32703 27.3428C2.80852 26.9961 2.40439 26.5035 2.16574 25.9271C1.9271 25.3506 1.86466 24.7164 1.98632 24.1045C2.10798 23.4925 2.40827 22.9305 2.84923 22.4893C3.29019 22.0481 3.852 21.7477 4.46363 21.626C5.07526 21.5043 5.70923 21.5667 6.28537 21.8055C6.86151 22.0442 7.35394 22.4486 7.7004 22.9673C8.04686 23.4861 8.23178 24.096 8.23178 24.7199C8.23178 25.5565 7.89959 26.3589 7.30828 26.9505C6.71697 27.542 5.91499 27.8744 5.07876 27.8744ZM23.0636 12.9977C23.0636 11.1571 23.7944 9.39191 25.0953 8.09042C26.3962 6.78893 28.1605 6.05776 30.0003 6.05776C31.84 6.05776 33.6043 6.78893 34.9052 8.09042C36.2061 9.39191 36.9369 11.1571 36.9369 12.9977V14.8904H36.6973H23.278H23.0636V12.9977ZM35.4613 38.2338C35.9954 38.2355 36.507 38.4489 36.8841 38.8274C37.2612 39.2058 37.4729 39.7184 37.4729 40.2527V44.3851H39.3269V40.5997L39.1062 40.3095H41.08C41.5667 40.3095 42.0334 40.5029 42.3776 40.8472C42.7217 41.1915 42.9151 41.6585 42.9151 42.1454V46.5176H44.7627V43.1738H46.1753C46.6168 43.1738 47.0403 43.3493 47.3525 43.6616C47.6647 43.974 47.8401 44.3976 47.8401 44.8394V53.426C47.8396 53.9661 47.6625 54.4913 47.3356 54.9212L45.6519 57.1609C45.4182 57.4666 45.1177 57.7148 44.7734 57.8865C44.4291 58.0582 44.0502 58.1488 43.6655 58.1514H28.0517L20.4151 47.2368C20.0973 46.7778 19.9715 46.2127 20.0646 45.6622C20.1576 45.1116 20.4622 44.6194 20.9132 44.2905C21.1393 44.1241 21.3964 44.0048 21.6694 43.9398C21.9424 43.8747 22.2257 43.8653 22.5024 43.9119C22.7803 43.9565 23.0466 44.0559 23.2859 44.2042C23.5251 44.3526 23.7325 44.5471 23.896 44.7763L26.8472 48.8645C26.9633 49.023 27.1261 49.1411 27.3128 49.2022C27.4994 49.2633 27.7005 49.2643 27.8877 49.2052C28.0723 49.1429 28.2325 49.0241 28.3457 48.8655C28.4589 48.707 28.5193 48.5168 28.5183 48.322V29.01C28.5038 28.7628 28.5398 28.5153 28.6244 28.2825C28.7089 28.0498 28.8401 27.8368 29.0098 27.6566C29.1796 27.4764 29.3844 27.3329 29.6117 27.2347C29.8389 27.1366 30.0838 27.086 30.3313 27.086C30.5788 27.086 30.8237 27.1366 31.051 27.2347C31.2782 27.3329 31.483 27.4764 31.6528 27.6566C31.8226 27.8368 31.9538 28.0498 32.0383 28.2825C32.1228 28.5153 32.1589 28.7628 32.1443 29.01V41.7038H33.9983V38.2338H35.4613ZM38.917 29.3318C38.917 29.9141 38.6858 30.4725 38.2743 30.8843C37.8627 31.296 37.3045 31.5273 36.7225 31.5273H33.9794V29.0037C33.9401 28.057 33.5366 27.1622 32.8532 26.5062C32.1698 25.8503 31.2595 25.484 30.3124 25.484C29.3654 25.484 28.455 25.8503 27.7716 26.5062C27.0882 27.1622 26.6847 28.057 26.6454 29.0037V31.5273H23.278C22.696 31.5273 22.1378 31.296 21.7263 30.8843C21.3147 30.4725 21.0835 29.9141 21.0835 29.3318V18.9219C21.0835 18.3396 21.3147 17.7811 21.7263 17.3694C22.1378 16.9576 22.696 16.7263 23.278 16.7263H36.7225C37.3045 16.7263 37.8627 16.9576 38.2743 17.3694C38.6858 17.7811 38.917 18.3396 38.917 18.9219V29.3318ZM54.9218 27.887C54.2982 27.887 53.6886 27.702 53.17 27.3554C52.6515 27.0088 52.2474 26.5161 52.0088 25.9397C51.7701 25.3633 51.7077 24.729 51.8293 24.1171C51.951 23.5052 52.2513 22.9431 52.6922 22.5019C53.1332 22.0607 53.695 21.7603 54.3066 21.6386C54.9183 21.5169 55.5522 21.5793 56.1284 21.8181C56.7045 22.0569 57.197 22.4612 57.5434 22.9799C57.8899 23.4987 58.0748 24.1086 58.0748 24.7325C58.0715 25.5669 57.7378 26.3661 57.1469 26.9549C56.5559 27.5438 55.7558 27.8744 54.9218 27.8744V27.887Z" fill="#2D3484"/>
</svg>
