<svg width="25" height="30" viewBox="0 0 25 30" fill="none" xmlns="http://www.w3.org/2000/svg">
<path d="M24.9491 28.9778C23.9088 25.8119 22.8612 22.6477 21.8118 19.4844C21.6833 19.0965 21.4423 18.926 21.034 18.9233C20.1007 18.918 19.1673 18.9162 18.2348 18.9233C17.7511 18.9278 17.4642 19.2145 17.4678 19.662C17.4705 20.1121 17.7538 20.3785 18.2474 20.382C18.8993 20.3865 19.5522 20.3962 20.2032 20.3767C20.4621 20.3687 20.5745 20.4486 20.6528 20.691C21.4692 23.1964 22.2965 25.6982 23.1211 28.2019C23.1534 28.3004 23.1804 28.4008 23.211 28.5028H1.80293C1.80563 28.4522 1.80203 28.4301 1.80923 28.4105C2.66706 25.8021 3.52849 23.1946 4.37913 20.5836C4.44747 20.374 4.57425 20.382 4.73521 20.382C6.28722 20.3838 7.83834 20.3776 9.39035 20.3927C9.54231 20.3927 9.73024 20.4894 9.83725 20.6013C10.2068 20.9875 10.5494 21.3995 10.901 21.8025C11.1384 22.0742 11.374 22.3476 11.6671 22.685C11.1663 22.685 10.7535 22.6752 10.3417 22.6877C9.91278 22.701 9.60256 23.0135 9.61155 23.4006C9.61964 23.7797 9.92087 24.0922 10.33 24.0949C11.7696 24.1046 13.2092 24.1144 14.647 24.0824C14.8611 24.078 15.1425 23.8987 15.2675 23.7167C15.5732 23.2692 15.2279 22.7125 14.6569 22.6886C14.2388 22.6717 13.8198 22.6859 13.3369 22.6859C13.4331 22.5643 13.4718 22.511 13.5159 22.4613C14.8008 20.9937 16.0966 19.5359 17.3689 18.0568C18.2834 16.9932 19.2689 15.9696 20.0413 14.811C21.5439 12.5586 22.1706 10.055 21.6347 7.36845C20.7184 2.77579 16.4571 -0.40702 11.7238 0.0422141C7.75831 0.417759 5.03015 2.53697 3.68135 6.2214C2.63829 9.0695 3.1823 11.8288 4.68755 14.3884C5.27293 15.3836 6.09569 16.2457 6.83214 17.1513C7.30601 17.7354 7.82035 18.2886 8.37426 18.9216C6.89508 18.9216 5.51302 18.9207 4.13005 18.9216C3.50601 18.9216 3.31268 19.0583 3.12205 19.6354C2.63289 21.118 2.14283 22.6007 1.65457 24.0833C1.12134 25.7036 0.58632 27.3221 0.0575931 28.9441C-0.139331 29.546 0.181682 29.9802 0.822809 29.9988C0.890248 30.0006 0.957688 29.9988 1.02513 29.9988H23.9618C24.0409 29.9988 24.1201 30.0015 24.1983 29.9988C24.8017 29.9731 25.1335 29.5416 24.9491 28.9787V28.9778ZM6.79797 14.8385C5.25135 12.9253 4.48973 10.7244 4.73071 8.2536C5.04274 5.05392 7.58027 2.30614 10.8021 1.63495C15.2603 0.706299 19.4838 3.52333 20.2266 7.94819C20.5413 9.82059 20.0836 11.582 19.2329 13.2449C18.9227 13.8522 18.5397 14.4425 18.0946 14.961C16.3043 17.0509 14.4762 19.1107 12.6616 21.1802C12.6176 21.2299 12.5699 21.2761 12.489 21.3604C11.8559 20.6386 11.2463 19.9461 10.6384 19.2509C9.35348 17.7834 8.02177 16.3531 6.79797 14.8385Z" fill="#02A1F5"/>
<path d="M12.4915 5.42578C10.4189 5.42845 8.73017 7.08333 8.72657 9.11465C8.72297 11.146 10.409 12.8 12.4861 12.8035C14.5722 12.8071 16.2546 11.1753 16.2654 9.13596C16.2771 7.08955 14.5821 5.42401 12.4915 5.42578ZM12.4897 11.3457C11.2416 11.3448 10.2093 10.3327 10.2129 9.11287C10.2156 7.89479 11.2542 6.88268 12.4996 6.88535C13.7441 6.88801 14.7827 7.90722 14.7791 9.12175C14.7755 10.3425 13.7423 11.3466 12.4897 11.3457Z" fill="#02A1F5"/>
</svg>
