<svg width="62" height="62" viewBox="0 0 62 62" fill="none" xmlns="http://www.w3.org/2000/svg">
<path d="M44.3358 11.6986C44.5482 12.6511 44.6593 13.6422 44.6593 14.6587C44.6593 22.2016 38.5434 28.3175 31.0006 28.3175C23.4577 28.3175 17.3418 22.2016 17.3418 14.6587C17.3418 7.11468 23.4577 0.999989 31.0006 0.999989C36.0336 0.999989 40.4303 3.72232 42.8002 7.77504" stroke="#2D3484" stroke-width="2" stroke-miterlimit="10" stroke-linecap="round" stroke-linejoin="round"/>
<path d="M35.8782 9.78046C35.8782 12.4744 33.6941 14.6584 31.0001 14.6584C28.306 14.6584 26.1221 12.4744 26.1221 9.78046C26.1221 7.08637 28.306 4.90235 31.0001 4.90235C33.6941 4.90235 35.8782 7.08637 35.8782 9.78046Z" stroke="#2D3484" stroke-width="2" stroke-miterlimit="10" stroke-linecap="round" stroke-linejoin="round"/>
<path d="M31.0001 14.6586C27.435 14.6586 24.2676 16.3589 22.2627 18.9921C23.8617 22.2026 27.1767 24.4147 31.0001 24.4147C34.8236 24.4147 38.1386 22.2026 39.7376 18.9921C37.7327 16.3589 34.5652 14.6586 31.0001 14.6586Z" stroke="#2D3484" stroke-width="2" stroke-miterlimit="10" stroke-linecap="round" stroke-linejoin="round"/>
<path d="M58.8597 39.9976C60.2154 42.1187 61.0001 44.6382 61.0001 47.3412C61.0001 54.8853 54.8854 61 47.3414 61C39.7985 61 33.6826 54.8853 33.6826 47.3412C33.6826 39.7984 39.7985 33.6825 47.3414 33.6825C50.6613 33.6825 53.7048 34.8668 56.071 36.837" stroke="#2D3484" stroke-width="2" stroke-miterlimit="10" stroke-linecap="round" stroke-linejoin="round"/>
<path d="M52.22 42.4633C52.22 45.1574 50.0361 47.3414 47.342 47.3414C44.6479 47.3414 42.4639 45.1574 42.4639 42.4633C42.4639 39.7692 44.6479 37.5853 47.342 37.5853C50.0361 37.5853 52.22 39.7692 52.22 42.4633Z" stroke="#2D3484" stroke-width="2" stroke-miterlimit="10" stroke-linecap="round" stroke-linejoin="round"/>
<path d="M47.3409 47.3416C43.7758 47.3416 40.6084 49.0418 38.6035 51.6751C40.2025 54.8856 43.5175 57.0977 47.3409 57.0977C51.1644 57.0977 54.4794 54.8856 56.0784 51.6751C54.0735 49.0418 50.9061 47.3416 47.3409 47.3416Z" stroke="#2D3484" stroke-width="2" stroke-miterlimit="10" stroke-linecap="round" stroke-linejoin="round"/>
<path d="M2.65392 40.8221C4.96821 36.569 9.47606 33.6825 14.6588 33.6825C22.2016 33.6825 28.3175 39.7984 28.3175 47.3412C28.3175 54.8853 22.2016 61 14.6588 61C7.11469 61 1 54.8853 1 47.3412C1 46.4696 1.08209 45.6173 1.23903 44.7903" stroke="#2D3484" stroke-width="2" stroke-miterlimit="10" stroke-linecap="round" stroke-linejoin="round"/>
<path d="M19.5364 42.4634C19.5364 45.1575 17.3523 47.3416 14.6583 47.3416C11.9642 47.3416 9.78027 45.1575 9.78027 42.4634C9.78027 39.7694 11.9642 37.5855 14.6583 37.5855C17.3523 37.5855 19.5364 39.7694 19.5364 42.4634Z" stroke="#2D3484" stroke-width="2" stroke-miterlimit="10" stroke-linecap="round" stroke-linejoin="round"/>
<path d="M14.6583 47.3414C11.0932 47.3414 7.92577 49.0417 5.9209 51.675C7.51989 54.8855 10.8349 57.0975 14.6583 57.0975C18.4818 57.0975 21.7968 54.8855 23.3958 51.675C21.3909 49.0417 18.2234 47.3414 14.6583 47.3414Z" stroke="#2D3484" stroke-width="2" stroke-miterlimit="10" stroke-linecap="round" stroke-linejoin="round"/>
<path d="M31 28.3171V34.7805L36.9756 38.317" stroke="#2D3484" stroke-width="2" stroke-miterlimit="10" stroke-linecap="round" stroke-linejoin="round"/>
<path d="M31 34.7805L25.0244 38.3171" stroke="#2D3484" stroke-width="2" stroke-miterlimit="10" stroke-linecap="round" stroke-linejoin="round"/>
</svg>
