<svg width="73" height="62" viewBox="0 0 73 62" fill="none" xmlns="http://www.w3.org/2000/svg">
<path d="M46.399 47.469H48.776C49.7763 47.469 50.5943 46.6485 50.5943 45.6454V41.1788C50.5943 39.8184 49.8451 38.0153 48.0957 38.0153H46.0507C43.4833 38.0153 40.4139 32.7482 36.3117 32.7482H24.7949C20.6039 32.7482 16.9269 38.0233 14.4201 38.0153C10.5407 38.011 1 40.3178 1 42.5715V45.6454C1 46.6485 1.81814 47.469 2.81414 47.469H5.96071M28.6054 47.469H37.8627M14.5011 47.469H23.7541" stroke="#2D3484" stroke-width="2" stroke-miterlimit="10" stroke-linecap="round" stroke-linejoin="round"/>
<path d="M14.4209 38.0154C14.4209 39.1116 15.3158 40.0093 16.405 40.0093H44.067C45.1563 40.0093 46.0515 39.1116 46.0515 38.0154" stroke="#2D3484" stroke-width="2" stroke-miterlimit="10" stroke-linecap="round" stroke-linejoin="round"/>
<path d="M10.2277 43.8834C8.25554 43.8834 6.65625 45.4872 6.65625 47.469C6.65625 49.4467 8.25554 51.0548 10.2277 51.0548C12.204 51.0548 13.8035 49.4467 13.8035 47.469C13.8035 45.4872 12.204 43.8834 10.2277 43.8834ZM42.1297 43.8834C40.1534 43.8834 38.5541 45.4872 38.5541 47.469C38.5541 49.4467 40.1534 51.0548 42.1297 51.0548C44.1018 51.0548 45.7014 49.4467 45.7014 47.469C45.7014 45.4872 44.1018 43.8834 42.1297 43.8834Z" stroke="#2D3484" stroke-width="2" stroke-miterlimit="10" stroke-linecap="round" stroke-linejoin="round"/>
<path d="M30.5532 33.2355V40.0093H30.2373" stroke="#2D3484" stroke-width="2" stroke-miterlimit="10" stroke-linecap="round" stroke-linejoin="round"/>
<path d="M38.9236 61H67.0394C69.7687 61 72 58.7624 72 56.0293C72 53.2922 69.7687 51.0546 67.0394 51.0546H5.96071C3.23128 51.0546 1 53.2922 1 56.0293C1 58.7624 3.23128 61 5.96071 61H34.0723" stroke="#2D3484" stroke-width="2" stroke-miterlimit="10" stroke-linecap="round" stroke-linejoin="round"/>
<path d="M5.96109 57.4507V54.604M4.54395 56.0293H7.37852" stroke="#2D3484" stroke-width="2" stroke-miterlimit="10" stroke-linecap="round" stroke-linejoin="round"/>
<path d="M67.0395 57.4507V54.604M65.6221 56.0293H68.4566" stroke="#2D3484" stroke-width="2" stroke-miterlimit="10" stroke-linecap="round" stroke-linejoin="round"/>
<path d="M55.6192 56.0293H56.3279M50.7518 56.0293H51.4605M45.8801 56.0293H46.5929M41.0127 56.0293H41.7214M36.1452 56.0293H36.8539M31.2738 56.0293H31.9822M26.4061 56.0293H27.1148M21.5387 56.0293H22.2472M16.6672 56.0293H17.3759M11.7998 56.0293H12.5085M60.4909 56.0293H61.1994" stroke="#2D3484" stroke-width="2" stroke-miterlimit="10" stroke-linecap="round" stroke-linejoin="round"/>
<path d="M61.0537 38.8314V38.1207" stroke="#2D3484" stroke-width="2" stroke-miterlimit="10" stroke-linecap="round" stroke-linejoin="round"/>
<path d="M61.0537 22.3281V21.6174" stroke="#2D3484" stroke-width="2" stroke-miterlimit="10" stroke-linecap="round" stroke-linejoin="round"/>
<path d="M32.0361 5.52808V4.81737" stroke="#2D3484" stroke-width="2" stroke-miterlimit="10" stroke-linecap="round" stroke-linejoin="round"/>
<path d="M32.0361 25.8203V21.0933" stroke="#2D3484" stroke-width="2" stroke-miterlimit="10" stroke-linecap="round" stroke-linejoin="round"/>
<path d="M55.0684 51.0546H67.0388V44.8739H55.0684V51.0546Z" stroke="#2D3484" stroke-width="2" stroke-miterlimit="10" stroke-linecap="round" stroke-linejoin="round"/>
<path d="M61.0542 34.3036C63.3422 34.3036 65.2129 36.1836 65.2129 38.4781V44.874H56.8955V38.4781C56.8955 36.1836 58.7662 34.3036 61.0542 34.3036Z" stroke="#2D3484" stroke-width="2" stroke-miterlimit="10" stroke-linecap="round" stroke-linejoin="round"/>
<path d="M58.6279 34.9979V25.5361M63.4795 25.5361V34.9979" stroke="#2D3484" stroke-width="2" stroke-miterlimit="10" stroke-linecap="round" stroke-linejoin="round"/>
<path d="M49.841 12.6712L59.2523 18.1168M36.2266 4.78894L45.6378 10.2347M56.8387 22.3401L36.344 10.4742" stroke="#2D3484" stroke-width="2" stroke-miterlimit="10" stroke-linecap="round" stroke-linejoin="round"/>
<path d="M61.0542 26.1451C63.3464 26.1451 65.2129 24.269 65.2129 21.9704C65.2129 19.6721 63.3464 17.8 61.0542 17.8C58.7621 17.8 56.8955 19.6721 56.8955 21.9704C56.8955 24.269 58.7621 26.1451 61.0542 26.1451Z" stroke="#2D3484" stroke-width="2" stroke-miterlimit="10" stroke-linecap="round" stroke-linejoin="round"/>
<path d="M32.0366 0.999882C34.3369 0.999882 36.1996 2.86784 36.1996 5.17031V16.0536H27.8779V5.17031C27.8779 2.86784 29.7406 0.999882 32.0366 0.999882Z" stroke="#2D3484" stroke-width="2" stroke-miterlimit="10" stroke-linecap="round" stroke-linejoin="round"/>
<path d="M29.9531 21.0934H34.1161V16.0538H29.9531V21.0934Z" stroke="#2D3484" stroke-width="2" stroke-miterlimit="10" stroke-linecap="round" stroke-linejoin="round"/>
<path d="M14.6267 14.0722H21.3206C22.4624 14.0722 23.4021 15.0101 23.4021 16.1553V26.1694C23.4021 27.3148 22.4624 28.2569 21.3206 28.2569H14.9911L13.594 30.6814L12.201 33.1055L10.8039 30.6814L9.40686 28.2569H3.07757C1.93557 28.2569 1 27.3148 1 26.1694V16.1553C1 15.0101 1.93557 14.0722 3.07757 14.0722H9.77128" stroke="#2D3484" stroke-width="2" stroke-miterlimit="10" stroke-linecap="round" stroke-linejoin="round"/>
<path d="M12.7236 18.1896L10.8486 20.5654L13.5495 21.7594L11.6748 24.139" stroke="#2D3484" stroke-width="2" stroke-miterlimit="10" stroke-linecap="round" stroke-linejoin="round"/>
<path d="M17.2744 43.7369H19.1818M32.6341 43.7369H34.5414" stroke="#2D3484" stroke-width="2" stroke-miterlimit="10" stroke-linecap="round" stroke-linejoin="round"/>
</svg>
