<svg width="62" height="62" viewBox="0 0 62 62" fill="none" xmlns="http://www.w3.org/2000/svg">
<path d="M61 16.0623H1L31 1.00001L61 16.0623Z" stroke="#2D3484" stroke-width="2" stroke-miterlimit="10" stroke-linecap="round" stroke-linejoin="round"/>
<path d="M4.73444 23.5311C4.73444 23.5311 1 19.7967 1 16.0622" stroke="#2D3484" stroke-width="2" stroke-miterlimit="10" stroke-linecap="round" stroke-linejoin="round"/>
<path d="M4.73438 23.5311H57.2655C57.2655 23.5311 60.9999 19.7967 60.9999 16.0622" stroke="#2D3484" stroke-width="2" stroke-miterlimit="10" stroke-linecap="round" stroke-linejoin="round"/>
<path d="M57.2656 53.5311H4.73444C4.73444 53.5311 1 57.2656 1 61H61C61 57.2656 57.2656 53.5311 57.2656 53.5311Z" stroke="#2D3484" stroke-width="2" stroke-miterlimit="10" stroke-linecap="round" stroke-linejoin="round"/>
<path d="M15.9375 23.5311V53.5311" stroke="#2D3484" stroke-width="2" stroke-miterlimit="10" stroke-linecap="round" stroke-linejoin="round"/>
<path d="M8.46875 53.5311V23.5311" stroke="#2D3484" stroke-width="2" stroke-miterlimit="10" stroke-linecap="round" stroke-linejoin="round"/>
<path d="M34.7344 23.5311V53.5311" stroke="#2D3484" stroke-width="2" stroke-miterlimit="10" stroke-linecap="round" stroke-linejoin="round"/>
<path d="M27.2656 53.5311V23.5311" stroke="#2D3484" stroke-width="2" stroke-miterlimit="10" stroke-linecap="round" stroke-linejoin="round"/>
<path d="M53.5312 23.5311V53.5311" stroke="#2D3484" stroke-width="2" stroke-miterlimit="10" stroke-linecap="round" stroke-linejoin="round"/>
<path d="M46.0625 53.5311V23.5311" stroke="#2D3484" stroke-width="2" stroke-miterlimit="10" stroke-linecap="round" stroke-linejoin="round"/>
</svg>
