<svg width="50" height="60" viewBox="0 0 50 60" fill="none" xmlns="http://www.w3.org/2000/svg">
<path d="M49.8703 57.8144L38.9012 32.4916C38.8408 32.3523 38.8102 32.2044 38.8102 32.0523V20.8151H39.6068C40.0899 20.8151 40.4815 20.4216 40.4815 19.9362C40.4815 19.4508 40.0899 19.0573 39.6068 19.0573H33.9575V15.3617C34.3462 15.399 34.7349 15.4196 35.1223 15.4196C38.3526 15.4196 41.4935 14.1385 43.8079 11.813C46.6051 9.00233 47.8839 4.97847 47.2287 1.04917C47.1671 0.679326 46.8787 0.389521 46.5106 0.327529C42.6006 -0.330713 38.5958 0.954131 35.7985 3.76487C35.0829 4.48394 34.4674 5.2828 33.9575 6.13886V5.18671C33.9575 4.70132 33.566 4.3078 33.0828 4.3078C32.5996 4.3078 32.2081 4.70132 32.2081 5.18671V5.98042C31.6982 5.12437 31.0827 4.3255 30.3671 3.60644C27.5697 0.795928 23.5648 -0.488916 19.6549 0.169326C19.2868 0.231318 18.9984 0.521006 18.9367 0.890967C18.2815 4.82026 19.5603 8.84413 22.3575 11.6548C24.6721 13.9805 27.8128 15.2614 31.0433 15.2614C31.4306 15.2614 31.8193 15.2408 32.208 15.2035V19.0575H27.6291C27.1459 19.0575 26.7544 19.451 26.7544 19.9364C26.7544 20.4218 27.1459 20.8153 27.6291 20.8153H28.4257V32.0525C28.4257 32.2046 28.3951 32.3524 28.3347 32.4919L25.2532 39.6056V33.293C25.2532 32.4315 24.5558 31.7307 23.6985 31.7307H19.7514C19.2684 31.7307 18.8767 32.1242 18.8767 32.6096C18.8767 33.095 19.2684 33.4885 19.7514 33.4885H23.5038V43.6441L21.8531 47.4548V46.1388C21.8531 45.5034 21.3387 44.9865 20.7064 44.9865H8.19428C7.56194 44.9865 7.04751 45.5034 7.04751 46.1388V55.4315C7.04751 56.0669 7.56194 56.5839 8.19428 56.5839H17.8987L17.3655 57.8147C17.3056 57.9531 17.269 58.0971 17.2505 58.2425H5.39692V39.3704C5.39692 39.069 5.31085 38.7759 5.14828 38.5229L1.9123 33.4883H15.6696C16.1526 33.4883 16.5443 33.0948 16.5443 32.6094C16.5443 32.124 16.1526 31.7305 15.6696 31.7305H1.55484C0.98513 31.7305 0.461952 32.0428 0.189517 32.5455C-0.0829186 33.0483 -0.0602935 33.6593 0.248762 34.1402L3.64755 39.4282V58.4379C3.64755 59.2993 4.34497 60.0001 5.20228 60.0001H48.4447C48.9707 60.0001 49.4568 59.7363 49.7449 59.2943C50.0332 58.8521 50.0801 58.299 49.8703 57.8144ZM37.0355 5.008C39.0024 3.03163 41.6658 1.93522 44.4107 1.91636L40.4845 5.86147C40.1429 6.20472 40.1429 6.76124 40.4845 7.10437C40.6553 7.27593 40.8793 7.36183 41.1031 7.36183C41.3269 7.36183 41.5508 7.27604 41.7216 7.10437L45.6477 3.15937C45.6288 5.91726 44.5378 8.59382 42.5708 10.5702C40.604 12.5464 37.9404 13.6427 35.1957 13.6617L38.8352 10.0045C39.1768 9.66128 39.1768 9.10476 38.8352 8.76163C38.4935 8.41839 37.9397 8.41839 37.5981 8.76163L33.9586 12.4187C33.9775 9.66081 35.0687 6.98425 37.0355 5.008ZM23.5944 10.4116C21.6276 8.43538 20.5364 5.7587 20.5177 3.00081L30.9698 13.5034C28.2243 13.4846 25.5613 12.388 23.5944 10.4116ZM21.7546 1.7578C24.4992 1.77655 27.163 2.87319 29.1299 4.84956C31.0968 6.82593 32.1878 9.50237 32.2068 12.2604L21.7546 1.7578ZM8.797 54.8257V46.7441H20.1039V51.493L18.6603 54.8256H8.797V54.8257ZM19.0883 58.2422L29.9387 33.1935C30.0957 32.8315 30.1752 32.4474 30.1752 32.0523V20.8151H32.2081V35.883L31.3328 35.0035C30.9911 34.6603 30.4374 34.6603 30.0958 35.0035C29.7542 35.3468 29.7542 35.9033 30.0958 36.2464L32.2081 38.3689V44.7016H27.3788C26.9221 44.7016 26.5094 44.9735 26.3273 45.394L22.128 55.0883C21.9732 55.4457 22.0078 55.8537 22.2204 56.1797C22.433 56.5057 22.7915 56.7003 23.1795 56.7003H44.0567C44.4445 56.7003 44.803 56.5058 45.0157 56.1799C45.2283 55.8539 45.2629 55.446 45.1082 55.0883L43.6048 51.6178C43.4119 51.1726 42.8966 50.9691 42.4537 51.1626C42.0108 51.3564 41.8079 51.8742 42.0007 52.3193L43.1371 54.9425H24.099L27.7736 46.4594H39.4623L40.3704 48.5558C40.5632 49.0009 41.0785 49.2046 41.5215 49.011C41.9645 48.8173 42.1673 48.2994 41.9745 47.8543L40.9088 45.3942C40.7266 44.9735 40.3139 44.7016 39.8572 44.7016H33.9572V42.5099C33.9769 42.4932 33.9964 42.4761 34.015 42.4575L36.6973 39.7622C37.0389 39.4189 37.0389 38.8624 36.6973 38.5193C36.3556 38.176 35.8019 38.176 35.4603 38.5193L33.9572 40.0296V38.2215C33.9859 38.0938 33.9859 37.9612 33.9572 37.8336V20.8151H37.0606V22.6426H35.6123C35.1291 22.6426 34.7376 23.0361 34.7376 23.5215C34.7376 24.0069 35.1291 24.4004 35.6123 24.4004H37.0606V26.5373H35.6123C35.1291 26.5373 34.7376 26.9308 34.7376 27.4162C34.7376 27.9016 35.1291 28.2951 35.6123 28.2951H37.0606V30.4321H35.6123C35.1291 30.4321 34.7376 30.8256 34.7376 31.311C34.7376 31.7964 35.1291 32.1899 35.6123 32.1899H37.0641C37.0804 32.5364 37.1585 32.8732 37.297 33.193L48.1477 58.2422H19.0883Z" fill="#2D3484"/>
<path d="M6.12663 29.663C6.98977 29.663 7.85279 29.3328 8.50997 28.6726C9.61021 27.5671 9.78864 25.8813 9.04656 24.5868L9.94247 23.6865C10.8465 24.8269 12.2389 25.5599 13.7994 25.5599C15.3598 25.5599 16.7521 24.8269 17.6561 23.6865L18.5521 24.5868C17.8101 25.8813 17.9885 27.5671 19.0886 28.6726C19.7457 29.3328 20.6088 29.663 21.472 29.663C22.3351 29.663 23.1981 29.3328 23.8553 28.6726C25.1694 27.3521 25.1694 25.2035 23.8553 23.883C22.7551 22.7775 21.0773 22.5981 19.7891 23.3439L18.5123 22.0609C18.6534 21.6006 18.7297 21.1119 18.7297 20.6058C18.7297 18.1741 16.9766 16.1475 14.674 15.7314V14.5642C16.1097 14.1761 17.1698 12.8573 17.1698 11.2938C17.1698 9.42632 15.6579 7.9071 13.7994 7.9071C11.9408 7.9071 10.4289 9.42644 10.4289 11.2938C10.4289 12.8573 11.489 14.1761 12.9247 14.5642V15.7314C10.6222 16.1475 8.86906 18.1741 8.86906 20.6058C8.86906 21.112 8.94533 21.6006 9.08645 22.0609L7.80964 23.3439C6.52129 22.5982 4.84376 22.7775 3.74341 23.883C2.42928 25.2035 2.42928 27.3521 3.74341 28.6726C4.40047 29.3328 5.26361 29.663 6.12663 29.663ZM20.3257 25.1261C20.9578 24.4909 21.9862 24.4909 22.6183 25.1261C23.2503 25.7612 23.2503 26.7946 22.6183 27.4297C21.9862 28.0648 20.9578 28.0648 20.3257 27.4297C19.6936 26.7946 19.6936 25.7612 20.3257 25.1261ZM12.1783 11.2938C12.1783 10.3956 12.9056 9.66492 13.7994 9.66492C14.6932 9.66492 15.4204 10.3957 15.4204 11.2938C15.4204 12.1919 14.6933 12.9227 13.7994 12.9227C12.9054 12.9227 12.1783 12.1921 12.1783 11.2938ZM13.7994 17.4095C15.5534 17.4095 16.9803 18.8433 16.9803 20.6058C16.9803 22.3683 15.5534 23.8021 13.7994 23.8021C12.0453 23.8021 10.6184 22.3682 10.6184 20.6058C10.6184 18.8434 12.0453 17.4095 13.7994 17.4095ZM4.98033 25.1261C5.29638 24.8085 5.71156 24.6497 6.12663 24.6497C6.5417 24.6497 6.95688 24.8085 7.27293 25.1261C7.90492 25.7612 7.90492 26.7946 7.27293 27.4297C6.64095 28.0648 5.61243 28.0648 4.98033 27.4297C4.34834 26.7946 4.34834 25.7612 4.98033 25.1261Z" fill="#2D3484"/>
<path d="M15.402 38.0168H13.362C12.8789 38.0168 12.4873 38.4104 12.4873 38.8958C12.4873 39.3811 12.8789 39.7747 13.362 39.7747H15.402C15.885 39.7747 16.2767 39.3811 16.2767 38.8958C16.2767 38.4104 15.885 38.0168 15.402 38.0168Z" fill="#2D3484"/>
<path d="M15.402 41.5016H13.362C12.8789 41.5016 12.4873 41.8951 12.4873 42.3805C12.4873 42.8659 12.8789 43.2594 13.362 43.2594H15.402C15.885 43.2594 16.2767 42.8659 16.2767 42.3805C16.2767 41.8951 15.885 41.5016 15.402 41.5016Z" fill="#2D3484"/>
<path d="M15.402 48.4711H13.362C12.8789 48.4711 12.4873 48.8646 12.4873 49.35C12.4873 49.8354 12.8789 50.2289 13.362 50.2289H15.402C15.885 50.2289 16.2767 49.8354 16.2767 49.35C16.2767 48.8646 15.885 48.4711 15.402 48.4711Z" fill="#2D3484"/>
<path d="M15.402 51.9559H13.362C12.8789 51.9559 12.4873 52.3494 12.4873 52.8348C12.4873 53.3202 12.8789 53.7137 13.362 53.7137H15.402C15.885 53.7137 16.2767 53.3202 16.2767 52.8348C16.2767 52.3494 15.885 51.9559 15.402 51.9559Z" fill="#2D3484"/>
<path d="M36.7204 49.8047C37.2035 49.8047 37.5951 49.4112 37.5951 48.9258C37.5951 48.4404 37.2035 48.0469 36.7204 48.0469C36.2373 48.0469 35.8457 48.4404 35.8457 48.9258C35.8457 49.4112 36.2373 49.8047 36.7204 49.8047Z" fill="#2D3484"/>
<path d="M33.8044 53.3203C34.2874 53.3203 34.6791 52.9268 34.6791 52.4414C34.6791 51.956 34.2874 51.5625 33.8044 51.5625C33.3213 51.5625 32.9297 51.956 32.9297 52.4414C32.9297 52.9268 33.3213 53.3203 33.8044 53.3203Z" fill="#2D3484"/>
<path d="M30.3063 50.5078C30.7894 50.5078 31.181 50.1143 31.181 49.6289C31.181 49.1435 30.7894 48.75 30.3063 48.75C29.8233 48.75 29.4316 49.1435 29.4316 49.6289C29.4316 50.1143 29.8233 50.5078 30.3063 50.5078Z" fill="#2D3484"/>
</svg>
