<svg width="110" height="180" viewBox="0 0 110 180" fill="none" xmlns="http://www.w3.org/2000/svg">
<path d="M108.592 125L110 125C110 55.9655 54.0408 1.90956e-09 -15.0141 1.22999e-09C-84.0408 5.50696e-10 -140 55.9655 -140 125C-140 194.034 -84.0408 250 -15.0141 250C54.0126 250 109.972 194.034 109.972 125L107.156 125C107.156 158.743 93.4685 189.274 71.3608 211.413C49.2531 233.523 18.6966 247.212 -15.0422 247.212C-48.7811 247.212 -79.3095 233.523 -101.445 211.413C-123.497 189.303 -137.184 158.771 -137.184 125C-137.184 91.2573 -123.497 60.7255 -101.389 38.5872C-79.2813 16.5052 -48.753 2.81658 -15.0141 2.81658C18.7248 2.81658 49.2531 16.5052 71.389 38.6154C93.4967 60.7255 107.184 91.2855 107.184 125.028L108.592 125.028L108.592 125Z" fill="white" fill-opacity="0.1"/>
<path d="M88.4831 124.999L89.8912 124.999C89.8912 67.0622 42.9159 20.0815 -15.0147 20.0815C-72.9453 20.0815 -119.921 67.0622 -119.921 124.999C-119.921 182.936 -72.9453 229.917 -15.0147 229.917C42.9159 229.917 89.8912 182.936 89.8912 124.999L87.0749 124.999C87.0749 153.193 75.6409 178.712 57.1662 197.188C38.6915 215.665 13.1761 227.1 -15.0147 227.1C-43.2056 227.1 -68.7209 215.665 -87.1956 197.188C-105.67 178.712 -117.104 153.193 -117.104 124.999C-117.104 96.8053 -105.67 71.287 -87.1956 52.8102C-68.7209 34.3335 -43.2056 22.8981 -15.0147 22.8981C13.1761 22.8981 38.6915 34.3335 57.1662 52.8102C75.6409 71.287 87.0749 96.8053 87.0749 124.999L88.4831 124.999V124.999Z" fill="white" fill-opacity="0.1"/>
<path d="M68.3757 125L69.7838 125C69.7838 78.1604 31.8205 40.1929 -15.014 40.1929C-61.8485 40.1929 -99.8118 78.1604 -99.8118 125C-99.8118 171.84 -61.8485 209.808 -15.014 209.808C31.8205 209.808 69.7838 171.84 69.7838 125L66.9675 125C66.9675 147.646 57.7865 168.122 42.9448 182.966C28.1031 197.809 7.6288 206.991 -15.014 206.991C-37.6568 206.991 -58.131 197.809 -72.9728 182.966C-87.8145 168.122 -96.9955 147.646 -96.9955 125C-96.9955 102.355 -87.8145 81.8783 -72.9728 67.0349C-58.131 52.1915 -37.6568 43.0095 -15.014 43.0095C7.6288 43.0095 28.1031 52.1915 42.9448 67.0349C57.7865 81.8783 66.9675 102.355 66.9675 125L68.3757 125V125Z" fill="white" fill-opacity="0.1"/>
<path d="M48.2951 125L49.7033 125C49.7033 89.2577 20.7239 60.3032 -14.9864 60.3032C-50.7248 60.3032 -79.676 89.2859 -79.676 125C-79.676 160.743 -50.6966 189.697 -14.9864 189.697C20.752 189.697 49.7033 160.714 49.7033 125L46.887 125C46.887 142.097 39.959 157.56 28.7502 168.77C17.5415 179.98 2.0802 186.909 -15.0145 186.909C-32.1093 186.909 -47.5706 179.98 -58.7793 168.77C-69.9881 157.56 -76.9161 142.097 -76.9161 125C-76.9161 107.903 -69.9881 92.4404 -58.7793 81.2304C-47.5706 70.0204 -32.1093 63.0916 -15.0145 63.0916C2.0802 63.0916 17.5415 70.0204 28.7502 81.2304C39.959 92.4404 46.887 107.903 46.887 125L48.2951 125Z" fill="white" fill-opacity="0.1"/>
<path d="M28.1872 125.001L29.5953 125.001C29.5953 100.356 9.62798 80.3862 -15.0144 80.3862C-39.6567 80.3862 -59.624 100.356 -59.624 125.001C-59.624 149.646 -39.6567 169.616 -15.0144 169.616C9.62798 169.616 29.5953 149.646 29.5953 125.001L26.779 125.001C26.779 136.549 22.104 146.97 14.5283 154.547C6.95252 162.123 -3.46766 166.799 -15.0144 166.799C-26.5611 166.799 -37.0094 162.123 -44.557 154.547C-52.1328 146.97 -56.8078 136.549 -56.8078 125.001C-56.8078 113.453 -52.1328 103.003 -44.557 95.4549C-36.9812 87.8783 -26.5611 83.2028 -15.0144 83.2028C-3.46766 83.2028 6.95252 87.8783 14.5283 95.4549C22.104 103.032 26.779 113.453 26.779 125.001L28.1872 125.001V125.001Z" fill="white" fill-opacity="0.1"/>
</svg>
