<svg width="60" height="50" viewBox="0 0 60 50" fill="none" xmlns="http://www.w3.org/2000/svg">
<g clip-path="url(#clip0_415_195)">
<path d="M58.3 33.59V9.02C58.3 7.29 56.89 5.87 55.15 5.87H44.5V1.87C44.5 0.84 43.66 0 42.63 0H29.98C28.95 0 28.11 0.84 28.11 1.87V5.87H17.46C15.72 5.87 14.31 7.28 14.31 9.02V27.59C14.31 27.73 14.35 27.86 14.4 27.98C13.29 28.12 12.31 28.27 11.61 28.38V26.59C11.61 25.56 10.77 24.72 9.74 24.72H1.87C0.84 24.72 0 25.56 0 26.59V47.91C0 48.94 0.84 49.78 1.87 49.78H9.73C10.76 49.78 11.6 48.94 11.6 47.91V45.92C14.02 47.53 16.98 48.15 19.17 48.46C35.14 50.77 40.83 44.76 57.27 39.07C58.19 38.76 59.44 38.32 59.87 37.27C60.37 36.03 59.25 34.53 58.29 33.59H58.3ZM39.62 18.37H32.99C32.47 18.37 32.05 18.79 32.05 19.31V21.68H27.66L17.82 7.75H54.78L44.94 21.68H40.55V19.31C40.55 18.79 40.13 18.37 39.61 18.37H39.62ZM38.68 20.24V24.99H33.93V20.24H38.68ZM29.97 1.87H42.62V5.87H29.97V1.87ZM16.18 27.58V9.02C16.18 8.92 16.21 8.84 16.23 8.75L26.41 23.16C26.59 23.41 26.87 23.56 27.17 23.56H32.04V25.94C32.04 26.46 32.46 26.88 32.98 26.88H39.61C40.13 26.88 40.55 26.46 40.55 25.94V23.56H45.42C45.72 23.56 46.01 23.41 46.18 23.16L56.36 8.75C56.38 8.84 56.41 8.92 56.41 9.02V32.27C54.49 31.32 52.19 31.22 50.1 32.18L39.99 36.41C40.05 36.11 40.08 35.81 40.08 35.5C40.08 33.01 38.05 30.99 35.57 30.99H31.36C26.2 31.19 24.82 27.49 19 27.63C18.06 27.65 17.08 27.72 16.14 27.81C16.15 27.74 16.18 27.68 16.18 27.61V27.58ZM1.87 47.91V26.59H9.73C9.73 53.97 9.73 28.3 9.73 47.91H1.87ZM56.67 37.29C40.36 42.92 34.83 48.83 19.44 46.6C17.11 46.26 13.8 45.58 11.61 43.57V30.28C13.04 30.04 16.25 29.55 19.05 29.48C24.28 29.37 25.61 33.07 31.41 32.84H35.58C37.04 32.84 38.22 34.02 38.22 35.48C38.22 36.94 37.03 38.12 35.58 38.12H25.57C25.05 38.12 24.63 38.54 24.63 39.06C24.63 39.58 25.05 40 25.57 40H35.58C36.48 40 35.76 40.33 50.87 33.89C53.2 32.82 56.06 33.17 58.14 36.57C58.03 36.83 57.04 37.17 56.67 37.3V37.29Z" fill="#02A1F5"/>
<path d="M5.80011 43.36C5.28011 43.36 4.86011 43.78 4.86011 44.3V45.41C4.86011 45.93 5.28011 46.35 5.80011 46.35C6.32011 46.35 6.74011 45.93 6.74011 45.41V44.3C6.74011 43.78 6.32011 43.36 5.80011 43.36V43.36Z" fill="#02A1F5"/>
<path d="M31.6201 12.12H29.7501C29.2301 12.12 28.8101 12.54 28.8101 13.06C28.8101 13.58 29.2301 14 29.7501 14H31.6201C32.1401 14 32.5601 13.58 32.5601 13.06C32.5601 12.54 32.1401 12.12 31.6201 12.12Z" fill="#02A1F5"/>
<path d="M37.2399 12.12H35.3699C34.8499 12.12 34.4299 12.54 34.4299 13.06C34.4299 13.58 34.8499 14 35.3699 14H37.2399C37.7599 14 38.1799 13.58 38.1799 13.06C38.1799 12.54 37.7599 12.12 37.2399 12.12Z" fill="#02A1F5"/>
<path d="M42.8601 14C43.3801 14 43.8 13.58 43.8 13.06C43.8 12.54 43.3801 12.12 42.8601 12.12H40.9901C40.4701 12.12 40.05 12.54 40.05 13.06C40.05 13.58 40.4701 14 40.9901 14H42.8601Z" fill="#02A1F5"/>
</g>
<defs>
<clipPath id="clip0_415_195">
<rect width="60" height="49.78" fill="white"/>
</clipPath>
</defs>
</svg>
