<svg width="28" height="28" viewBox="0 0 28 28" fill="none" xmlns="http://www.w3.org/2000/svg">
<path d="M27.9998 12.4153V12.5792C27.9932 12.5851 27.9829 12.5903 27.9799 12.5977C27.8107 13.0672 27.5359 13.2961 27.1695 13.2725C26.7233 13.2437 26.461 12.9882 26.362 12.4559C25.9963 10.4929 25.248 8.69154 24.0793 7.07254C22.5508 4.95373 20.5901 3.35982 18.1544 2.40009C17.3041 2.06565 16.4006 1.86411 15.5156 1.6227C15.0096 1.48538 14.7466 1.27719 14.7022 0.89994C14.6557 0.506447 14.8337 0.239935 15.3028 0H15.6863C16.3179 0.163894 16.9569 0.30564 17.5804 0.496111C19.612 1.11699 21.4212 2.14539 23.0147 3.5466C24.7072 5.03494 26.0185 6.8075 26.9242 8.87537C27.3963 9.95471 27.7258 11.0776 27.9444 12.2345C27.9563 12.2957 27.9814 12.3548 27.9998 12.4153V12.4153Z" fill="#02A1F5"/>
<path d="M25.6114 20.9049C24.3858 19.6056 23.1254 18.3372 21.8311 17.1066C20.8604 16.1845 19.4339 16.1933 18.4218 17.0815C17.7584 17.6639 17.1452 18.3047 16.5173 18.9264C16.422 19.0209 16.3643 19.1538 16.2875 19.2719C12.9816 17.4351 10.5031 14.9412 8.68645 11.715C8.79431 11.625 8.86154 11.577 8.91916 11.5194C9.57665 10.8498 10.2622 10.2046 10.8828 9.50247C11.7604 8.50951 11.7752 7.07802 10.8739 6.1109C9.70077 4.85069 8.49438 3.61631 7.23849 2.43879C6.05205 1.32623 4.71047 1.31737 3.4797 2.38563C2.68332 3.07665 1.96894 3.86363 1.22871 4.61813C0.295659 5.56901 -0.0316101 6.74063 0.0023727 8.04145C0.0370942 9.33341 0.368796 10.5604 0.819437 11.7579C2.05907 15.0483 4.02638 17.8766 6.40517 20.4332C8.36214 22.5372 10.6006 24.2957 13.1168 25.6881C15.1498 26.8139 17.2486 27.7715 19.6119 27.9745C20.8907 28.0838 22.0956 27.8601 23.0575 26.983C23.9913 26.1318 24.8785 25.2186 25.7037 24.2618C26.5429 23.2887 26.4956 21.8425 25.6114 20.9049V20.9049ZM24.3776 23.4061C24.3097 23.4918 24.2365 23.5737 24.1604 23.652C23.562 24.2647 22.9563 24.8708 22.3638 25.4895C21.6376 26.2477 20.7444 26.4839 19.7257 26.3931C18.0997 26.2492 16.6089 25.6755 15.1646 24.9661C10.4373 22.6413 6.77603 19.1537 4.02786 14.6895C2.99729 13.0151 2.19205 11.2359 1.75766 9.30535C1.72737 9.17246 1.6956 9.03884 1.68083 8.90374C1.64537 8.58702 1.61951 8.26957 1.58996 7.95286C1.55524 6.97245 1.8899 6.15593 2.60353 5.47895C3.20488 4.90753 3.77816 4.30733 4.36768 3.72336C5.04808 3.04933 5.6317 3.04859 6.30396 3.71967C7.33675 4.74955 8.36657 5.78237 9.39714 6.8152C9.46141 6.87943 9.52346 6.94587 9.5833 7.01453C10.0591 7.56158 10.0775 8.07098 9.57961 8.59367C8.95167 9.25367 8.29565 9.8871 7.64111 10.5213C6.99396 11.1488 6.91492 11.5511 7.28725 12.3728C7.99276 13.9283 9.03736 15.2447 10.1832 16.4894C11.479 17.898 12.9151 19.1427 14.5647 20.1253C14.9319 20.3446 15.3153 20.5372 15.6965 20.7307C16.2432 21.0068 16.7455 20.9263 17.1969 20.4826C17.8278 19.8632 18.4499 19.2342 19.0763 18.6104C19.1664 18.5203 19.2566 18.4288 19.3534 18.3468C19.8661 17.912 20.4098 17.9172 20.8929 18.3867C21.5408 19.015 22.1747 19.6572 22.8115 20.2966C23.3264 20.8126 23.8516 21.3205 24.3459 21.855C24.8046 22.3504 24.7995 22.8805 24.3776 23.4061V23.4061Z" fill="#02A1F5"/>
<path d="M22.3017 13.4915C21.9043 13.5942 21.4869 13.366 21.3591 12.9489C21.2202 12.4971 21.1478 12.0224 20.9779 11.5846C19.937 8.90915 18.0088 7.26431 15.1905 6.6737C14.6622 6.5637 14.38 6.16504 14.4894 5.69033C14.5706 5.3404 14.8986 5.0857 15.4269 5.08496C15.7719 5.17429 16.2786 5.26214 16.7544 5.4349C19.8823 6.57034 21.8969 8.74083 22.7642 11.9604C22.8166 12.1531 22.8565 12.3502 22.8927 12.5466C22.9725 12.9836 22.7191 13.3838 22.3017 13.4915Z" fill="#02A1F5"/>
</svg>
