<svg width="60" height="60" viewBox="0 0 60 60" fill="none" xmlns="http://www.w3.org/2000/svg">
<g clip-path="url(#clip0_415_192)">
<path fill-rule="evenodd" clip-rule="evenodd" d="M10.22 56.07C8.46003 56.07 7.05003 54.66 7.05003 52.9C7.05003 51.14 8.46003 49.7 10.22 49.7C11.98 49.7 13.42 51.14 13.42 52.9C13.42 54.66 11.98 56.07 10.22 56.07V56.07ZM30.73 59.2H6.87003C1.17003 59.2 -1.64997 53.32 0.99003 48.54L11.83 28.2V18.07C8.84003 17.89 8.94003 13.35 11.97 13.35H17.99V7.02C14.19 7.76 10.35 5.16 9.65003 1.28C9.58003 0.889995 9.79003 0.509995 10.14 0.399995C13.41 -0.760005 17.14 0.649995 18.8 3.64C20.46 0.649995 24.19 -0.760005 27.42 0.409995C27.81 0.519995 28.02 0.899995 27.95 1.29C27.25 5.16 23.41 7.76 19.61 7.03V13.36H25.63C28.66 13.36 28.76 17.9 25.74 18.08V19.84H33.31L35.63 15.41L33.8 12.21C33.27 11.3 34.68 10.52 35.17 11.4L37 14.57H42.31L45.02 9.64V5.7C45.02 4.68 46.64 4.68 46.64 5.7V9.04H51.25V5.7C51.25 4.68 52.87 4.68 52.87 5.7V9.64L55.58 14.32H59.24C60.26 14.32 60.26 15.9 59.24 15.9H55.58L52.98 20.62L55.58 25.09H59.24C60.26 25.09 60.26 26.71 59.24 26.71H55.58L52.98 31.43L54.84 34.63C55.33 35.51 53.96 36.32 53.43 35.4L51.6 32.23H46.32L43.86 36.87V40.81C43.86 41.83 42.28 41.83 42.28 40.81V37.47H37.64V40.81C37.64 41.83 36.06 41.83 36.06 40.81V36.87L33.6 31.94H27.76L36.63 48.58C39.27 53.33 36.42 59.21 30.75 59.21L30.73 59.2ZM25.73 21.41V28.2L26.89 30.35H33.58L35.9 25.92L33.33 21.42H25.73V21.41ZM13.45 18.07V28.42C13.45 28.53 13.41 28.67 13.34 28.77L5.21003 44.01C14.32 46.33 21.43 38.49 31.25 41.97L24.25 28.81C24.18 28.7 24.14 28.56 24.14 28.42V18.07H13.44H13.45ZM4.44003 45.48L2.40003 49.32C0.32003 53.05 2.36003 57.59 6.87003 57.59H30.73C35.2 57.59 37.28 53.05 35.2 49.36L32.46 44.22C27.01 41.51 22.4 42.88 17.58 44.33C13.29 45.6 8.99003 46.72 4.45003 45.49L4.44003 45.48ZM11.97 14.97C10.98 14.97 10.98 16.48 11.97 16.48H25.62C26.57 16.48 26.57 14.97 25.62 14.97H11.97V14.97ZM20.73 51.53C19.15 51.53 17.81 50.23 17.81 48.61C17.81 46.99 19.15 45.69 20.73 45.69C22.31 45.69 23.69 46.99 23.69 48.61C23.69 50.23 22.35 51.53 20.73 51.53ZM20.73 47.27C19.01 47.27 19.01 49.94 20.73 49.94C22.45 49.94 22.49 47.27 20.73 47.27ZM29 56.84C27.56 56.84 26.4 55.64 26.4 54.2C26.4 52.76 27.56 51.6 29 51.6C30.44 51.6 31.6 52.76 31.6 54.2C31.6 55.64 30.44 56.84 29 56.84ZM29 53.18C27.66 53.18 27.66 55.22 29 55.22C30.34 55.22 30.34 53.18 29 53.18ZM17.28 39.32C15.06 39.32 13.27 37.53 13.27 35.31C13.27 33.09 15.06 31.3 17.28 31.3C19.5 31.3 21.29 33.09 21.29 35.31C21.29 37.53 19.5 39.32 17.28 39.32ZM17.28 32.88C14.11 32.88 14.11 37.7 17.28 37.7C20.45 37.7 20.48 32.88 17.28 32.88ZM18.58 29.15C16.96 29.15 15.62 27.81 15.62 26.16C15.62 24.51 16.96 23.17 18.58 23.17C20.2 23.17 21.57 24.51 21.57 26.16C21.57 27.81 20.23 29.15 18.58 29.15V29.15ZM18.58 24.79C16.79 24.79 16.79 27.53 18.58 27.53C20.37 27.53 20.41 24.79 18.58 24.79V24.79ZM19.74 5.44C22.48 6 25.33 4.38 26.18 1.71C23.44 1.11 20.62 2.77 19.74 5.44ZM11.38 1.71C12.26 4.38 15.11 6 17.82 5.44C16.98 2.77 14.13 1.11 11.38 1.71V1.71ZM44.91 31.41L42.55 26.69H37.31L34.95 31.16L37.31 35.88H42.59L44.91 31.41V31.41ZM42.59 25.08L44.91 20.65L42.31 16.18H37.03L34.71 20.61L37.28 25.08H42.59ZM46.28 19.84H51.59L54.16 15.12L51.59 10.65H46.28L43.71 15.37L46.28 19.84ZM46.32 30.64H51.6L54.17 25.89L51.6 21.42H46.32L43.96 25.89L46.32 30.64ZM10.22 51.32C8.14003 51.32 8.14003 54.49 10.22 54.49C12.3 54.49 12.3 51.32 10.22 51.32Z" fill="#02A1F5"/>
</g>
<defs>
<clipPath id="clip0_415_192">
<rect width="60" height="59.21" fill="white"/>
</clipPath>
</defs>
</svg>
