<svg width="64" height="60" viewBox="0 0 64 60" fill="none" xmlns="http://www.w3.org/2000/svg">
<path d="M63.8408 52.1506C63.3176 50.64 62.2711 49.744 60.6923 49.464C60.1181 49.3625 59.6641 49.4875 59.2439 49.9485C57.9117 51.407 55.9126 51.3927 54.5869 49.9224C54.2033 49.4966 53.7844 49.3794 53.2521 49.4536C51.1748 49.7427 49.7747 51.3224 49.7616 53.4255C49.7512 55.1511 49.759 56.8766 49.7616 58.6021C49.7616 59.7285 50.0252 59.9955 51.1578 59.9955C55.0123 59.9981 58.8668 60.0111 62.72 59.976C63.148 59.9721 63.5734 59.6843 64 59.5293V52.5413C63.9465 52.4111 63.8878 52.2835 63.8421 52.1506H63.8408ZM62.1263 58.1267H51.6054C51.6054 57.5108 51.6054 56.8974 51.6054 56.284C51.6067 55.2657 51.5923 54.2473 51.6145 53.2302C51.6328 52.385 52.0477 51.7547 52.8202 51.424C53.0237 51.3367 53.3995 51.3901 53.5705 51.5294C55.6608 53.251 58.2 53.2523 60.2369 51.5347C60.4052 51.3927 60.7758 51.3406 60.9846 51.4227C61.6265 51.674 62.0845 52.1962 62.1067 52.876C62.1641 54.6132 62.1263 56.3531 62.1263 58.1267Z" fill="#02A1F5"/>
<path d="M62.8321 1.71768C62.8321 0.365923 62.6325 0.167978 61.2729 0.167978H25.4589C25.2502 0.167978 25.0401 0.158862 24.8339 0.175792C24.2741 0.221371 23.927 0.530009 23.9231 1.08999C23.9062 3.16971 23.9009 5.24813 23.927 7.32786C23.9349 7.93863 24.3172 8.23294 24.9605 8.24857C25.3715 8.25898 25.7838 8.24987 26.2588 8.24987V9.04425C26.2588 14.8459 26.2588 20.6475 26.2588 26.4491C26.2588 29.0562 27.7528 30.5473 30.3677 30.5486C33.7851 30.5512 37.2025 30.5486 40.6186 30.5512C40.8325 30.5512 41.0478 30.5695 41.3675 30.5838C41.1692 30.7726 41.07 30.8729 40.9643 30.9667C39.054 32.6713 37.1412 34.3734 35.2335 36.0807C34.7494 36.5143 34.6776 37.0392 35.0208 37.452C35.3927 37.8987 35.9107 37.9 36.4457 37.4468C36.7784 37.1642 37.1007 36.8686 37.4282 36.5782C39.3868 34.8396 41.344 33.1011 43.3196 31.3469C43.5022 31.5006 43.664 31.6295 43.818 31.7663C45.8875 33.6051 47.9544 35.4465 50.0238 37.2853C50.1791 37.422 50.3331 37.5705 50.5118 37.6708C50.9072 37.8908 51.2882 37.8192 51.5936 37.4989C51.8976 37.1798 51.9563 36.7904 51.7123 36.4128C51.5805 36.2083 51.3835 36.039 51.1982 35.8736C49.4288 34.2927 47.6569 32.7156 45.8823 31.1399C45.7074 30.9849 45.5156 30.8469 45.3316 30.7023C45.3682 30.6515 45.406 30.6007 45.4425 30.5499H46.1185C49.4928 30.5499 52.8684 30.5512 56.244 30.5499C58.8863 30.5473 60.3516 29.0914 60.3516 26.4634C60.3542 20.641 60.3516 14.8198 60.3516 8.99737V8.25117C60.8057 8.25117 61.158 8.25247 61.5103 8.25117C62.5151 8.24726 62.8256 7.95035 62.8282 6.95802C62.8347 5.21037 62.8308 3.46402 62.8308 1.71768H62.8321ZM58.5079 8.92705C58.5079 14.7912 58.5079 20.6553 58.5079 26.5194C58.5079 28.0704 57.8633 28.7137 56.3092 28.7137C47.6621 28.715 39.0162 28.715 30.369 28.7137C28.751 28.7137 28.1038 28.0652 28.1038 26.4465C28.1038 20.624 28.1038 14.8016 28.1038 8.97914V8.28242H58.5079V8.92705ZM60.978 6.3772H25.7812V2.04976H60.978V6.3772Z" fill="#02A1F5"/>
<path d="M22.8845 17.3748C22.8897 14.9096 21.2926 12.7674 18.8813 12.2399C17.8596 12.0173 16.7726 12.042 15.717 12.0576C15.3073 12.0641 14.8232 12.266 14.5087 12.5356C13.4701 13.4276 12.4915 14.39 11.3406 15.4657C10.8434 14.9005 10.4063 14.3431 9.90657 13.8469C8.6287 12.5794 7.09073 11.9747 5.29266 12.0329C2.55641 12.1162 0.462143 13.9342 0.0485087 16.6325C-0.0363059 17.1821 0.0158877 17.7525 0.0158877 18.3124C0.0145829 22.4289 0.00805866 26.5454 0.0184974 30.6619C0.0224119 32.726 1.4747 34.1532 3.48807 34.0634C3.94346 34.0426 4.39232 33.8746 4.86859 33.7691C4.87772 33.9774 4.88946 34.1624 4.89599 34.3486C5.0891 40.6034 5.27961 46.8582 5.47664 53.113C5.53014 54.8359 6.67709 56.1538 8.36947 56.4468C9.56862 56.6552 10.572 56.2345 11.4385 55.4467C11.4933 55.4701 11.5376 55.4779 11.5676 55.504C12.742 56.5328 14.0599 56.8375 15.4952 56.1564C16.9318 55.474 17.4538 54.2382 17.4942 52.6976C17.6508 46.5873 17.8387 40.4771 18.0188 34.3681C18.024 34.1754 18.0618 33.9853 18.0866 33.7691C20.8163 34.8929 22.9706 32.8953 22.9041 30.4105C22.7866 26.0688 22.8754 21.7205 22.8845 17.3748ZM15.6413 52.82C15.6296 53.2002 15.537 53.6118 15.3595 53.9438C15.0476 54.526 14.3248 54.7838 13.6867 54.6419C13.0447 54.4986 12.5515 53.9686 12.4654 53.2992C12.4288 53.0114 12.4301 52.7184 12.4301 52.428C12.4301 46.418 12.4301 40.4081 12.4301 34.3981C12.4301 33.4149 12.1496 32.9721 11.5272 32.9617C10.9048 32.9526 10.6086 33.4057 10.6086 34.372C10.6086 40.507 10.6086 46.6407 10.6073 52.7757C10.6073 53.8436 10.0566 54.5533 9.17064 54.6601C8.19462 54.7773 7.38432 54.1275 7.32299 53.0804C7.23035 51.4826 7.20034 49.8808 7.15075 48.2803C6.97721 42.6271 6.80758 36.974 6.63664 31.3208C6.63142 31.1372 6.63534 30.9536 6.63534 30.7035H16.2442C16.2611 30.8272 16.2938 30.9445 16.2898 31.059C16.0798 38.3127 15.8697 45.5676 15.6426 52.82H15.6413ZM21.0864 17.7004C21.0068 18.8594 21.0421 20.0262 21.0395 21.1891C21.0356 24.1818 21.0395 27.1757 21.0395 30.1683C21.0395 30.3142 21.0395 30.4587 21.0395 30.6046C21.0225 31.6516 20.4836 32.2949 19.6185 32.3014C18.7612 32.3066 18.1753 31.6503 18.1714 30.6241C18.161 27.9844 18.1688 25.3447 18.1675 22.705C18.1675 22.4979 18.174 22.2883 18.1532 22.0825C18.0984 21.5486 17.7917 21.2517 17.2567 21.2295C16.7596 21.21 16.3694 21.5941 16.3629 22.1463C16.346 23.5801 16.3551 25.0139 16.3551 26.4477C16.3538 27.2147 16.3551 27.9818 16.3551 28.8048H6.55313V23.7937C6.55313 23.2949 6.56357 22.7948 6.54922 22.2974C6.52834 21.6007 6.16951 21.2048 5.60321 21.2269C5.06953 21.2477 4.73419 21.6462 4.73419 22.3039C4.72897 25.0686 4.73549 27.832 4.72897 30.5967C4.72636 31.563 4.20051 32.1686 3.3628 32.2142C2.48986 32.2623 1.87789 31.7206 1.86354 30.8429C1.84397 29.762 1.85963 28.6811 1.85702 27.6002C1.84658 24.1922 1.84005 20.7828 1.82048 17.3748C1.81004 15.5021 3.28712 13.9381 5.16218 13.8639C6.54096 13.8109 7.73227 14.2706 8.73613 15.243C9.37811 15.8655 10.0201 16.4906 10.6647 17.1104C11.2323 17.6548 11.659 17.6691 12.2305 17.1378C13.2822 16.1598 14.3117 15.1596 15.3791 14.1999C15.5839 14.0149 15.9154 13.8821 16.1907 13.8782C16.9357 13.8678 17.703 13.843 18.4246 13.9954C20.147 14.3613 21.2065 15.9527 21.0864 17.7004Z" fill="#02A1F5"/>
<path d="M34.1022 53.2992C34.0774 51.3367 32.7556 49.8261 30.8231 49.4758C30.2059 49.3638 29.7205 49.4771 29.2651 49.9771C28.0007 51.3719 25.9573 51.3654 24.6943 49.9654C24.2571 49.481 23.7887 49.3677 23.1937 49.4679C21.2064 49.8039 19.8833 51.3471 19.8703 53.3787C19.8598 55.1654 19.8677 56.9508 19.8703 58.7375C19.8703 59.7233 20.1365 59.9929 21.1281 59.9955C23.0841 59.9994 25.0413 59.9968 26.9973 59.9968C28.9533 59.9968 30.9927 60.002 32.9904 59.9929C33.7877 59.9903 34.1035 59.6817 34.1061 58.9068C34.1139 57.038 34.1269 55.168 34.1035 53.2992H34.1022ZM32.2388 58.1411H21.7075V56.5953C21.7088 55.474 21.6983 54.3515 21.7179 53.2302C21.7336 52.3564 22.1629 51.7222 22.9693 51.3914C23.1454 51.3185 23.4664 51.3719 23.6165 51.4943C25.7903 53.2823 28.1469 53.2784 30.369 51.4852C30.5178 51.3654 30.8361 51.3263 31.0188 51.3966C31.7104 51.6649 32.1932 52.2105 32.2193 52.9359C32.2806 54.6523 32.2388 56.3726 32.2388 58.1411Z" fill="#02A1F5"/>
<path d="M49.1157 53.4112C49.1039 51.3497 47.7886 49.8261 45.7492 49.4705C45.1476 49.3664 44.6857 49.494 44.2486 49.9693C42.9516 51.3823 40.92 51.364 39.6308 49.9328C39.2289 49.4849 38.7905 49.3755 38.2411 49.4562C36.2904 49.7414 34.906 51.2898 34.8838 53.268C34.8616 55.1159 34.8759 56.9651 34.8786 58.813C34.8799 59.7259 35.1487 59.9929 36.0764 59.9955C38.0324 59.9994 39.9896 59.9968 41.9456 59.9968H47.8774C47.8982 59.9968 47.9178 59.9968 47.9387 59.9955C48.8051 59.9733 49.1144 59.6738 49.1157 58.8326C49.1196 57.025 49.1248 55.2188 49.1157 53.4112ZM47.2641 58.1306H36.7223V57.3297C36.7223 56.0001 36.6636 54.6666 36.7523 53.3435C36.7875 52.8083 37.042 52.2131 37.3773 51.7886C37.8823 51.1518 38.2437 51.1921 38.8701 51.7065C40.7125 53.2185 43.3156 53.2067 45.1711 51.6063C45.6357 51.2065 45.9658 51.2859 46.369 51.5698C46.9092 51.9514 47.251 52.4671 47.2576 53.1351C47.2758 54.7747 47.2641 56.4155 47.2641 58.1306Z" fill="#02A1F5"/>
<path d="M16.4738 6.00729C16.4738 5.65438 16.4882 5.30016 16.4712 4.94855C16.3525 2.38438 14.3874 0.296839 11.8495 0.028571C9.31677 -0.238394 6.89369 1.38944 6.36131 3.90934C6.11731 5.06315 6.13949 6.30682 6.23866 7.49449C6.43177 9.81383 8.33553 11.667 10.6621 11.9704C12.999 12.2738 15.3282 10.9195 16.1019 8.69388C16.3955 7.85001 16.4477 6.92149 16.6095 6.03073C16.5652 6.02292 16.5195 6.01511 16.4738 6.00729ZM14.4983 7.75234C14.0677 9.38799 12.5371 10.3465 10.8121 10.1264C9.26849 9.92973 8.04064 8.55193 7.99497 6.94753C7.9767 6.30421 7.97279 5.65828 7.99497 5.01366C8.06152 3.22043 9.54381 1.82831 11.3523 1.84394C13.1386 1.86086 14.5622 3.23997 14.6275 5.02538C14.6405 5.35746 14.6301 5.69084 14.6301 6.02292C14.6483 6.02553 14.6679 6.02683 14.6862 6.02813C14.6275 6.60504 14.6418 7.20017 14.497 7.75234H14.4983Z" fill="#02A1F5"/>
<path d="M26.9686 41.4173C24.6407 41.4251 22.7565 43.3016 22.75 45.6184C22.7435 47.9534 24.6655 49.8612 27.0116 49.8482C29.3408 49.8364 31.2236 47.9586 31.2302 45.6405C31.2367 43.2977 29.3316 41.4094 26.9686 41.4173ZM27.0038 48.0393C25.6716 48.0484 24.5885 46.9584 24.5951 45.6145C24.6016 44.2979 25.6572 43.2378 26.9751 43.2248C28.3073 43.2105 29.3916 44.3005 29.3851 45.6483C29.3786 46.9597 28.3125 48.0302 27.0038 48.0393Z" fill="#02A1F5"/>
<path d="M41.9664 41.4174C39.6268 41.4161 37.7479 43.2718 37.7361 45.5937C37.7244 47.9534 39.6021 49.8443 41.9586 49.8496C44.306 49.8535 46.2267 47.9326 46.2019 45.6029C46.1771 43.2783 44.2956 41.4187 41.9664 41.4174ZM41.926 48.0381C40.6159 48.016 39.5538 46.9338 39.559 45.6263C39.5642 44.2915 40.6772 43.1976 42.0004 43.2249C43.3156 43.2523 44.3726 44.3292 44.3686 45.638C44.366 46.9676 43.253 48.0602 41.926 48.0381Z" fill="#02A1F5"/>
<path d="M56.9682 41.4173C54.5973 41.4043 52.7144 43.2678 52.7131 45.6275C52.7105 47.9573 54.5647 49.8235 56.9017 49.8482C59.2543 49.8729 61.1541 47.9899 61.1554 45.6328C61.1568 43.2965 59.3039 41.4303 56.9682 41.4173ZM56.9056 48.038C55.5864 48.0211 54.489 46.8933 54.5203 45.5872C54.5517 44.2901 55.6373 43.2249 56.9317 43.2222C58.247 43.2196 59.3587 44.3344 59.3496 45.6445C59.3391 46.9598 58.2209 48.055 56.9056 48.038Z" fill="#02A1F5"/>
<path d="M54.6716 19.0326C54.4746 19.0847 54.2593 19.0769 54.0518 19.0769C46.9326 19.0795 39.8121 19.0795 32.6916 19.0782C32.5258 19.0782 32.3549 19.0925 32.1931 19.0625C31.679 18.9701 31.3606 18.6719 31.3737 18.1301C31.3867 17.6209 31.7025 17.3409 32.1892 17.2576C32.3719 17.225 32.5624 17.2407 32.7503 17.2407H43.3678C46.9065 17.2407 50.4452 17.2394 53.9852 17.242C54.2136 17.242 54.5085 17.1781 54.6546 17.2927C54.9378 17.5141 55.2601 17.8111 55.3423 18.1327C55.4558 18.582 55.127 18.9141 54.6716 19.0326Z" fill="#02A1F5"/>
<path d="M55.3711 21.7048C55.358 22.1984 54.9861 22.5734 54.429 22.5838C53.4086 22.6034 52.3882 22.5903 51.3678 22.5903C48.7033 22.5917 46.0388 22.5903 43.3744 22.5903C39.773 22.5903 36.1716 22.5969 32.5703 22.5786C32.2597 22.5786 31.8879 22.4901 31.6556 22.3052C31.1376 21.8936 31.3176 21.0667 31.9492 20.8492C32.1971 20.7646 32.4803 20.7594 32.7477 20.7594C39.8265 20.7541 46.904 20.7554 53.9827 20.7554C54.1484 20.7554 54.3167 20.7476 54.4812 20.7672C55.0422 20.8336 55.3854 21.2021 55.3711 21.7048Z" fill="#02A1F5"/>
<path d="M49.3363 15.3719C49.0975 15.4292 48.8404 15.4266 48.5912 15.4266C45.9463 15.4305 43.3001 15.4292 40.6552 15.4292C38.0103 15.4292 35.4058 15.4305 32.7805 15.4266C32.5326 15.4266 32.2755 15.4253 32.0367 15.368C31.5996 15.2625 31.3686 14.95 31.3739 14.5046C31.3778 14.0267 31.6492 13.7284 32.1085 13.6282C32.3081 13.5839 32.5234 13.6034 32.7309 13.6034C38.0429 13.6021 43.3549 13.6021 48.6669 13.6034C48.8757 13.6034 49.1471 13.5357 49.2776 13.6399C49.5607 13.8626 49.8895 14.1439 49.9796 14.4629C50.1061 14.9083 49.8034 15.2599 49.3363 15.3719Z" fill="#02A1F5"/>
</svg>
