<svg width="39" height="30" viewBox="0 0 39 30" fill="none" xmlns="http://www.w3.org/2000/svg">
<path d="M21.5622 0.00610352L39 0.00610352V15.1429C39 17.6623 38.5554 19.748 37.6559 21.4155C36.7615 23.0779 35.6014 24.4614 34.1704 25.5662C32.7445 26.6659 31.155 27.5539 29.402 28.2198C27.6491 28.8858 25.9165 29.4847 24.2044 30.0061L21.6337 25.2875C22.9319 24.7919 24.0409 24.2859 24.9608 23.7748C25.8808 23.2637 26.6371 22.7062 27.2198 22.1021C27.8024 21.4981 28.2317 20.8115 28.5026 20.0371C28.7734 19.2627 28.9114 18.3541 28.9114 17.306H21.5571L21.5571 0.00610352H21.5622ZM0 0.00610352L17.3969 0.00610352L17.3969 15.1429C17.3969 17.6623 16.9523 19.748 16.0528 21.4155C15.1584 23.0779 14.0034 24.4614 12.5877 25.5662C11.1721 26.6659 9.59285 27.5539 7.83986 28.2198C6.08688 28.8858 4.35434 29.4847 2.64225 30.0061L0.0408859 25.2875C1.33901 24.7919 2.44804 24.2859 3.36797 23.7748C4.2879 23.2637 5.04429 22.7062 5.62692 22.1021C6.20954 21.4981 6.63884 20.8115 6.90971 20.0371C7.18058 19.2627 7.31857 18.3541 7.31857 17.306H0L0 0.00610352Z" fill="#2D3484" fill-opacity="0.2"/>
</svg>
