<svg width="52" height="60" viewBox="0 0 52 60" fill="none" xmlns="http://www.w3.org/2000/svg">
<path d="M50.3181 24.9544C49.0119 24.2852 48.7412 23.3622 48.7202 22.1421C48.7164 21.956 48.6897 21.768 48.6534 21.5838C47.0708 13.4176 42.4297 7.65579 34.6824 4.34909C34.2419 4.16111 34.0837 3.975 34.1333 3.47871C34.3468 1.31497 33.1093 0.00657957 30.886 0.00281981C27.6254 -0.000939938 24.3667 -0.000939938 21.1061 0.00281981C18.8542 0.00657957 17.6357 1.32813 17.8569 3.54263C17.897 3.9562 17.7864 4.13103 17.3898 4.32277C15.9406 5.02209 14.44 5.66501 13.1185 6.55983C7.19034 10.5846 3.85156 16.1622 3.13651 23.2343C3.07168 23.8678 2.90389 24.2419 2.2613 24.5352C0.50324 25.336 -0.34528 27.2892 0.139044 29.1353C0.640529 31.0527 2.23651 32.1995 4.46173 32.2013C11.6236 32.2089 18.7874 32.2032 25.9493 32.2032C33.1112 32.2032 40.0843 32.2051 47.1528 32.2013C47.5322 32.2013 47.9136 32.1957 48.2912 32.1581C49.992 31.9889 51.3916 30.8196 51.8321 29.2236C52.2802 27.5956 51.7977 25.712 50.3181 24.9544ZM47.988 29.7744C47.7267 29.7989 47.4636 29.7932 47.2024 29.7932C33.0731 29.7932 18.9419 29.7932 4.81258 29.7932C4.52656 29.7932 4.24054 29.797 3.95834 29.7669C3.08122 29.671 2.46914 29.0187 2.44244 28.1803C2.41956 27.3588 3.01639 26.6613 3.87635 26.5053C5.30262 26.2478 5.37699 26.1049 5.4647 24.6893C5.97572 16.401 10.0105 10.4249 17.6052 6.80233C17.794 6.7121 17.9999 6.6557 18.2631 6.55983C18.5605 8.63521 18.8523 10.6692 19.144 12.7033C19.4109 14.5587 19.6626 16.416 19.9487 18.2696C20.0688 19.0384 20.5836 19.4708 21.2224 19.4313C21.9775 19.3862 22.4561 18.7659 22.3417 17.9406C21.9184 14.9234 21.4836 11.9081 21.0546 8.89275C20.7915 7.03544 20.5245 5.18 20.2804 3.32268C20.1775 2.54817 20.3205 2.4053 21.1137 2.4053C24.3724 2.39966 27.633 2.39966 30.8917 2.4053C31.6735 2.40718 31.8241 2.55569 31.7154 3.33584C31.2254 6.88693 30.7163 10.4361 30.2129 13.9853C30.0222 15.3313 29.822 16.6754 29.6447 18.0233C29.5493 18.7414 29.9631 19.3016 30.6343 19.4257C31.275 19.546 31.9042 19.1343 32.0167 18.4162C32.3657 16.1942 32.6727 13.9665 32.993 11.7389C33.2371 10.047 33.4773 8.35511 33.7366 6.55043C35.8189 7.35877 37.6437 8.44158 39.272 9.82705C43.938 13.8011 46.331 18.8505 46.5426 24.9149C46.5808 26.0353 46.8744 26.3681 47.9956 26.4884C48.9185 26.5861 49.5496 27.2328 49.563 28.0994C49.5763 28.9943 48.9318 29.6861 47.988 29.7744Z" fill="#02A1F5"/>
<path d="M51.9886 37.3069C51.9771 38.0984 51.6091 38.5025 50.7987 38.6153C49.7385 38.762 48.6746 38.871 47.6182 39.0327C47.4027 39.0646 47.0709 39.2244 47.0328 39.3823C46.4722 41.6795 45.5322 43.8151 44.268 45.8341C45.004 46.7608 45.7267 47.6613 46.4398 48.5674C47.0748 49.3757 47.0519 49.8908 46.3368 50.6014C45.0307 51.9004 43.7169 53.1938 42.3993 54.4815C41.711 55.1545 41.1809 55.1752 40.3972 54.5774C39.5887 53.9608 38.7745 53.3498 37.987 52.705C37.6857 52.4587 37.4722 52.4249 37.1213 52.6373C35.287 53.7465 33.3135 54.551 31.2198 55.0417C30.8118 55.1376 30.6859 55.3199 30.6459 55.6959C30.541 56.6734 30.398 57.6472 30.2817 58.6247C30.1616 59.6286 29.7707 59.9914 28.7601 59.9952C26.9029 59.9989 25.0476 59.9989 23.1923 59.9952C22.2122 59.9914 21.827 59.6493 21.6992 58.683C21.5639 57.6604 21.4533 56.6339 21.2778 55.6188C21.2435 55.4139 20.9956 55.1338 20.7954 55.0849C18.5435 54.5191 16.4308 53.6431 14.4058 52.3892C13.481 53.1017 12.5505 53.8217 11.6161 54.5341C10.8 55.1564 10.2776 55.1338 9.55682 54.4289C8.25639 53.1562 6.96168 51.8797 5.67078 50.5977C4.92713 49.8608 4.90997 49.3607 5.57544 48.5166C6.20468 47.7215 6.84918 46.9394 7.44981 46.1236C7.56232 45.9694 7.59282 45.6292 7.49939 45.4712C6.36676 43.582 5.52396 41.5818 4.98053 39.4538C4.93667 39.2733 4.664 39.0552 4.46951 39.0251C3.41315 38.856 2.34916 38.7432 1.28898 38.6078C0.398515 38.495 0.0190642 38.0965 0.00762343 37.2317C-0.00191051 36.3181 -0.00572408 35.4026 0.00953022 34.489C0.0247845 33.7013 0.507202 33.2126 1.22415 33.2163C1.93348 33.2201 2.40446 33.7145 2.43496 34.5022C2.4464 34.8067 2.43687 35.1131 2.43687 35.4177V36.3294C3.58666 36.476 4.70595 36.6339 5.82905 36.7561C6.60511 36.8389 7.01888 37.2411 7.15998 37.9856C7.64049 40.5046 8.61677 42.8244 10.0583 44.958C10.6151 45.7833 10.5846 46.1123 9.95152 46.915C9.29749 47.7459 8.63774 48.573 8.02376 49.3475C8.9619 50.2687 9.86571 51.1541 10.8439 52.1128C11.5818 51.5414 12.417 50.8966 13.2541 50.2499C14.1293 49.5769 14.4439 49.5543 15.3554 50.1521C17.4795 51.547 19.7905 52.4851 22.2942 52.9644C23.2209 53.143 23.4706 53.4156 23.6003 54.3631C23.7471 55.4252 23.8844 56.4911 24.0312 57.587H27.9649C28.1137 56.4779 28.2777 55.3725 28.4035 54.2634C28.4836 53.5566 28.8592 53.1543 29.5495 53.0227C32.198 52.5189 34.6425 51.532 36.8696 50.0281C37.4321 49.6483 37.9756 49.6784 38.5095 50.0957C39.4057 50.7913 40.3076 51.4774 41.1485 52.126C42.0885 51.1955 43 50.2931 43.9534 49.3475C43.3394 48.5693 42.6701 47.6895 41.9646 46.8398C41.4688 46.2439 41.4497 45.6761 41.8864 45.0464C43.3813 42.8902 44.3519 40.5178 44.8534 37.9536C45.0116 37.1509 45.3644 36.8708 46.2148 36.7731C47.2998 36.649 48.3828 36.5099 49.5612 36.367C49.5612 35.7109 49.5498 35.1282 49.565 34.5435C49.5841 33.7521 50.0494 33.252 50.7549 33.2389C51.4966 33.2239 51.9771 33.7277 51.9886 34.5623C52.0019 35.4778 52.0038 36.3914 51.9886 37.3069Z" fill="#02A1F5"/>
<path d="M40.0654 34.4364C39.9987 35.553 39.9167 36.6904 39.6479 37.7732C38.1186 43.9373 32.4192 48.3005 25.9895 48.2986C18.3719 48.2967 12.0204 42.157 11.9136 34.6977C11.9022 33.9269 12.2149 33.4006 12.8003 33.269C13.3971 33.1336 13.9196 33.2953 14.1827 33.8574C14.3238 34.1619 14.3333 34.5379 14.36 34.8838C14.7204 39.6079 17.0562 43.0331 21.4419 44.9487C28.6667 48.1031 36.986 43.1214 37.5923 35.3538C37.6171 35.0267 37.6305 34.6977 37.6667 34.3725C37.7449 33.6544 38.1949 33.2314 38.8623 33.2314C39.5487 33.2295 40.1093 33.707 40.0654 34.4364Z" fill="#02A1F5"/>
</svg>
