<svg width="67" height="60" viewBox="0 0 67 60" fill="none" xmlns="http://www.w3.org/2000/svg">
<path d="M63.65 51.2571V45.5469C63.6483 44.0749 63.0595 42.6636 62.0128 41.6226C60.966 40.5817 59.5469 39.9962 58.0667 39.9945H53.6C53.3038 39.9945 53.0198 40.1115 52.8104 40.3197C52.601 40.528 52.4833 40.8104 52.4833 41.1049C52.4833 41.3995 52.601 41.6819 52.8104 41.8902C53.0198 42.0984 53.3038 42.2154 53.6 42.2154H58.0667C58.9548 42.2164 59.8064 42.5677 60.4344 43.1923C61.0624 43.8168 61.4157 44.6637 61.4167 45.5469V51.2571C60.364 51.5274 59.4467 52.1702 58.8365 53.065C58.2263 53.9598 57.9653 55.0452 58.1023 56.1177C58.2392 57.1903 58.7649 58.1763 59.5806 58.891C60.3963 59.6057 61.4462 60 62.5333 60C63.6205 60 64.6703 59.6057 65.4861 58.891C66.3018 58.1763 66.8274 57.1903 66.9644 56.1177C67.1014 55.0452 66.8403 53.9598 66.2302 53.065C65.62 52.1702 64.7026 51.5274 63.65 51.2571ZM62.5333 57.7624C62.0916 57.7624 61.6598 57.6321 61.2926 57.3881C60.9253 57.144 60.639 56.7971 60.47 56.3913C60.301 55.9855 60.2567 55.5389 60.3429 55.1081C60.4291 54.6773 60.6418 54.2815 60.9541 53.9709C61.2665 53.6603 61.6644 53.4488 62.0976 53.3631C62.5308 53.2774 62.9799 53.3214 63.388 53.4895C63.7961 53.6576 64.1449 53.9422 64.3903 54.3075C64.6357 54.6727 64.7667 55.1021 64.7667 55.5414C64.766 56.1302 64.5305 56.6947 64.1118 57.1111C63.6931 57.5275 63.1254 57.7617 62.5333 57.7624ZM62.5333 25.558C61.5457 25.5609 60.587 25.8895 59.8074 26.4924C59.0278 27.0953 58.4713 27.9384 58.2252 28.8895H56.95C56.6538 28.8895 56.3698 29.0065 56.1604 29.2148C55.951 29.423 55.8333 29.7055 55.8333 30C55.8333 30.2945 55.951 30.577 56.1604 30.7852C56.3698 30.9935 56.6538 31.1105 56.95 31.1105H58.2252C58.4354 31.9131 58.8677 32.6409 59.473 33.2114C60.0783 33.782 60.8323 34.1722 61.6495 34.338C62.4666 34.5037 63.3141 34.4383 64.0957 34.149C64.8773 33.8598 65.5617 33.3584 66.0711 32.7018C66.5806 32.0452 66.8947 31.2597 66.9778 30.4345C67.0608 29.6093 66.9096 28.7774 66.5411 28.0334C66.1727 27.2894 65.6018 26.663 64.8933 26.2255C64.1849 25.7879 63.3673 25.5567 62.5333 25.558ZM62.5333 32.221C62.0916 32.221 61.6598 32.0907 61.2926 31.8467C60.9253 31.6026 60.639 31.2558 60.47 30.8499C60.301 30.4441 60.2567 29.9975 60.3429 29.5667C60.4291 29.1359 60.6418 28.7401 60.9541 28.4295C61.2665 28.1189 61.6644 27.9074 62.0976 27.8217C62.5308 27.736 62.9799 27.78 63.388 27.9481C63.7961 28.1162 64.1449 28.4008 64.3903 28.7661C64.6357 29.1313 64.7667 29.5607 64.7667 30C64.766 30.5888 64.5305 31.1534 64.1118 31.5697C63.6931 31.9861 63.1254 32.2203 62.5333 32.221ZM4.46668 34.442C5.45426 34.4391 6.41297 34.1105 7.19259 33.5076C7.97221 32.9047 8.52867 32.0616 8.77477 31.1105H10.05C10.3462 31.1105 10.6302 30.9935 10.8396 30.7852C11.049 30.577 11.1667 30.2945 11.1667 30C11.1667 29.7055 11.049 29.423 10.8396 29.2148C10.6302 29.0065 10.3462 28.8895 10.05 28.8895H8.77477C8.56457 28.0869 8.13228 27.3591 7.52699 26.7886C6.92171 26.218 6.16768 25.8278 5.35054 25.662C4.53341 25.4963 3.68591 25.5617 2.90431 25.851C2.1227 26.1402 1.43831 26.6416 0.928857 27.2982C0.419402 27.9548 0.105302 28.7403 0.0222282 29.5655C-0.0608457 30.3907 0.0904357 31.2226 0.458892 31.9666C0.827348 32.7106 1.39821 33.337 2.10665 33.7745C2.81509 34.2121 3.63272 34.4433 4.46668 34.442ZM4.46668 27.779C4.90839 27.779 5.34018 27.9093 5.70745 28.1533C6.07472 28.3974 6.36097 28.7442 6.53001 29.1501C6.69904 29.5559 6.74327 30.0025 6.6571 30.4333C6.57092 30.8641 6.35822 31.2599 6.04588 31.5705C5.73354 31.8811 5.3356 32.0926 4.90238 32.1783C4.46915 32.264 4.0201 32.22 3.61202 32.0519C3.20393 31.8838 2.85513 31.5992 2.60973 31.2339C2.36433 30.8687 2.23334 30.4393 2.23334 30C2.23402 29.4112 2.46953 28.8466 2.88822 28.4303C3.3069 28.0139 3.87457 27.7797 4.46668 27.779ZM3.35001 8.74291V14.4531C3.35175 15.9251 3.94055 17.3364 4.98725 18.3774C6.03395 19.4183 7.45308 20.0038 8.93334 20.0055H10.05C10.3462 20.0055 10.6302 19.8885 10.8396 19.6803C11.049 19.472 11.1667 19.1896 11.1667 18.8951C11.1667 18.6005 11.049 18.3181 10.8396 18.1098C10.6302 17.9016 10.3462 17.7846 10.05 17.7846H8.93334C8.04516 17.7836 7.19364 17.4323 6.56561 16.8077C5.93757 16.1832 5.58431 15.3363 5.58334 14.4531V8.74291C6.63598 8.47262 7.55335 7.82983 8.16351 6.93501C8.77367 6.0402 9.03473 4.9548 8.89774 3.88227C8.76075 2.80974 8.23513 1.82371 7.4194 1.10901C6.60367 0.394306 5.55383 0 4.46668 0C3.37952 0 2.32968 0.394306 1.51395 1.10901C0.698219 1.82371 0.172598 2.80974 0.0356116 3.88227C-0.101375 4.9548 0.159678 6.0402 0.769839 6.93501C1.38 7.82983 2.29737 8.47262 3.35001 8.74291ZM4.46668 2.23763C4.90839 2.23763 5.34018 2.36789 5.70745 2.61193C6.07472 2.85598 6.36097 3.20285 6.53001 3.60868C6.69904 4.01452 6.74327 4.46108 6.6571 4.89191C6.57092 5.32274 6.35822 5.71848 6.04588 6.02909C5.73354 6.33971 5.3356 6.55124 4.90238 6.63693C4.46915 6.72263 4.0201 6.67865 3.61202 6.51055C3.20393 6.34244 2.85513 6.05777 2.60973 5.69253C2.36433 5.32729 2.23334 4.89789 2.23334 4.45862C2.23402 3.86978 2.46953 3.30526 2.88822 2.88888C3.3069 2.47251 3.87457 2.2383 4.46668 2.23763ZM56.95 20.0055H58.0667C59.5469 20.0038 60.966 19.4183 62.0128 18.3774C63.0595 17.3364 63.6483 15.9251 63.65 14.4531V8.74291C64.7026 8.47262 65.62 7.82983 66.2302 6.93501C66.8403 6.0402 67.1014 4.9548 66.9644 3.88227C66.8274 2.80974 66.3018 1.82371 65.4861 1.10901C64.6703 0.394306 63.6205 0 62.5333 0C61.4462 0 60.3963 0.394306 59.5806 1.10901C58.7649 1.82371 58.2392 2.80974 58.1023 3.88227C57.9653 4.9548 58.2263 6.0402 58.8365 6.93501C59.4467 7.82983 60.364 8.47262 61.4167 8.74291V14.4531C61.4157 15.3363 61.0624 16.1832 60.4344 16.8077C59.8064 17.4323 58.9548 17.7836 58.0667 17.7846H56.95C56.6538 17.7846 56.3698 17.9016 56.1604 18.1098C55.951 18.3181 55.8333 18.6005 55.8333 18.8951C55.8333 19.1896 55.951 19.472 56.1604 19.6803C56.3698 19.8885 56.6538 20.0055 56.95 20.0055ZM60.3 4.45862C60.3 4.01935 60.431 3.58994 60.6764 3.2247C60.9218 2.85946 61.2706 2.57479 61.6787 2.40669C62.0868 2.23859 62.5358 2.19461 62.969 2.2803C63.4023 2.366 63.8002 2.57753 64.1125 2.88814C64.4249 3.19875 64.6376 3.59449 64.7237 4.02532C64.8099 4.45615 64.7657 4.90272 64.5967 5.30855C64.4276 5.71439 64.1414 6.06126 63.7741 6.3053C63.4068 6.54935 62.975 6.67961 62.5333 6.67961C61.9412 6.67893 61.3736 6.44472 60.9549 6.02835C60.5362 5.61198 60.3007 5.04745 60.3 4.45862ZM13.4 39.9945H8.93334C7.45308 39.9962 6.03395 40.5817 4.98725 41.6226C3.94055 42.6636 3.35175 44.0749 3.35001 45.5469V51.2571C2.29737 51.5274 1.38 52.1702 0.769839 53.065C0.159678 53.9598 -0.101375 55.0452 0.0356116 56.1177C0.172598 57.1903 0.698219 58.1763 1.51395 58.891C2.32968 59.6057 3.37952 60 4.46668 60C5.55383 60 6.60367 59.6057 7.4194 58.891C8.23513 58.1763 8.76075 57.1903 8.89774 56.1177C9.03473 55.0452 8.77367 53.9598 8.16351 53.065C7.55335 52.1702 6.63598 51.5274 5.58334 51.2571V45.5469C5.58431 44.6637 5.93757 43.8168 6.56561 43.1923C7.19364 42.5677 8.04516 42.2164 8.93334 42.2154H13.4C13.6962 42.2154 13.9802 42.0984 14.1896 41.8902C14.399 41.6819 14.5167 41.3995 14.5167 41.1049C14.5167 40.8104 14.399 40.528 14.1896 40.3197C13.9802 40.1115 13.6962 39.9945 13.4 39.9945ZM6.70001 55.5414C6.70001 55.9807 6.56903 56.4101 6.32362 56.7753C6.07822 57.1405 5.72942 57.4252 5.32134 57.5933C4.91325 57.7614 4.4642 57.8054 4.03097 57.7197C3.59775 57.634 3.19981 57.4225 2.88747 57.1119C2.57513 56.8013 2.36243 56.4055 2.27626 55.9747C2.19008 55.5438 2.23431 55.0973 2.40335 54.6914C2.57238 54.2856 2.85863 53.9387 3.2259 53.6947C3.59317 53.4506 4.02496 53.3204 4.46668 53.3204C5.05878 53.3211 5.62645 53.5553 6.04513 53.9716C6.46382 54.388 6.69933 54.9525 6.70001 55.5414ZM32.8446 12.4436C28.719 15.128 23.9129 16.5949 18.9833 16.6741C18.8367 16.674 18.6915 16.7027 18.556 16.7585C18.4205 16.8143 18.2973 16.8961 18.1936 16.9992C18.09 17.1024 18.0077 17.2248 17.9516 17.3595C17.8955 17.4943 17.8666 17.6387 17.8667 17.7846V28.8895C17.8667 42.6259 33.0027 47.6644 33.1554 47.7137C33.3794 47.786 33.6206 47.786 33.8446 47.7137C33.9973 47.6644 49.1333 42.6259 49.1333 28.8895V17.7846C49.1334 17.6387 49.1045 17.4943 49.0484 17.3595C48.9923 17.2248 48.9101 17.1024 48.8064 16.9992C48.7027 16.8961 48.5795 16.8143 48.444 16.7585C48.3085 16.7027 48.1633 16.674 48.0167 16.6741C43.0871 16.5949 38.281 15.128 34.1554 12.4436C33.9646 12.3066 33.7353 12.2329 33.5 12.2329C33.2647 12.2329 33.0354 12.3066 32.8446 12.4436ZM46.9 18.8701V28.8895C46.9 39.9077 35.633 44.6739 33.5 45.477C31.367 44.6739 20.1 39.9077 20.1 28.8895V18.8701C24.8499 18.6144 29.4585 17.1725 33.5 14.6776C37.5415 17.1725 42.1501 18.6144 46.9 18.8701ZM53.6 13.3426C53.6 13.1967 53.5712 13.0523 53.5151 12.9176C53.459 12.7828 53.3767 12.6604 53.273 12.5573C53.1693 12.4541 53.0462 12.3723 52.9107 12.3165C52.7752 12.2607 52.63 12.232 52.4833 12.2321C45.9882 12.1954 39.6344 10.3427 34.1478 6.88566C33.9582 6.75214 33.7317 6.68047 33.4994 6.68056C33.2671 6.68064 33.0406 6.75249 32.8512 6.88616C27.3684 10.3508 21.0127 12.204 14.5167 12.2321C14.37 12.232 14.2248 12.2607 14.0893 12.3165C13.9538 12.3723 13.8307 12.4541 13.727 12.5573C13.6233 12.6604 13.541 12.7828 13.4849 12.9176C13.4288 13.0523 13.4 13.1967 13.4 13.3426V28.8895C13.4 46.9492 32.9711 53.2092 33.1685 53.2705C33.3844 53.337 33.6156 53.337 33.8315 53.2705C34.0289 53.2092 53.6 46.9492 53.6 28.8895V13.3426ZM51.3667 28.8895C51.3667 44.0574 35.9732 50.1554 33.5 51.036C31.0268 50.1554 15.6333 44.0574 15.6333 28.8895V14.4352C21.9488 14.2189 28.1019 12.3891 33.5 9.12183C38.8981 12.3891 45.0512 14.2189 51.3667 14.4352V28.8895ZM31.2667 33.9822L40.5272 24.7728C40.6306 24.6687 40.7538 24.5859 40.8895 24.5292C41.0253 24.4725 41.1709 24.4431 41.3181 24.4427C41.4654 24.4422 41.6112 24.4707 41.7473 24.5265C41.8834 24.5824 42.0071 24.6644 42.1112 24.7679C42.2153 24.8714 42.2977 24.9944 42.3539 25.1298C42.41 25.2651 42.4386 25.4102 42.4382 25.5566C42.4377 25.703 42.4081 25.8478 42.3512 25.9828C42.2942 26.1178 42.2109 26.2403 42.1062 26.3431L32.0562 36.3376C31.9525 36.4407 31.8294 36.5226 31.6939 36.5784C31.5585 36.6342 31.4133 36.6629 31.2666 36.6629C31.12 36.6629 30.9748 36.6342 30.8393 36.5784C30.7039 36.5226 30.5808 36.4407 30.4771 36.3376L24.8938 30.7851C24.789 30.6822 24.7058 30.5598 24.6488 30.4248C24.5918 30.2898 24.5623 30.1449 24.5618 29.9985C24.5613 29.8521 24.59 29.7071 24.6461 29.5717C24.7022 29.4364 24.7847 29.3134 24.8888 29.2099C24.9929 29.1064 25.1166 29.0243 25.2527 28.9685C25.3888 28.9127 25.5347 28.8842 25.6819 28.8847C25.8291 28.8852 25.9748 28.9146 26.1105 28.9712C26.2462 29.0279 26.3694 29.1107 26.4728 29.2149L31.2667 33.9822Z" fill="#2D3484"/>
</svg>
