<svg width="64" height="60" viewBox="0 0 64 60" fill="none" xmlns="http://www.w3.org/2000/svg">
<path d="M63.7427 37.6345C61.9985 32.2646 60.2544 26.8946 58.5119 21.5246C57.7935 19.3123 56.3985 18.6021 54.1765 19.3223C53.0554 19.6874 51.9328 20.0475 50.7265 20.436V19.6757C50.7265 17.43 50.7499 15.1844 50.7048 12.9403C50.6965 12.5269 50.5194 12.0134 50.237 11.7266C46.5048 7.95381 42.7457 4.206 38.9684 0.476529C38.7044 0.216449 38.245 0.0230568 37.8741 0.0213896C30.6033 -0.00528518 23.3309 -0.00361801 16.0585 0.00805223C14.7637 0.0097194 13.7763 0.713268 13.4506 1.84361C13.3303 2.25541 13.3086 2.70554 13.3086 3.13734C13.2985 8.64736 13.3019 14.1574 13.3002 19.6674C13.3002 19.9025 13.2802 20.1375 13.2668 20.4226C11.9921 20.0142 10.8059 19.6324 9.61971 19.2556C7.69844 18.6454 6.22491 19.3856 5.6051 21.2829C4.35711 25.1107 3.12081 28.9436 1.86781 32.7714C1.25801 34.6403 0.62316 36.5025 0 38.3664V39.6152C0.469458 40.9789 1.48523 41.6491 2.84181 42.0276C4.66284 42.5377 6.4421 43.1896 8.25144 43.7464C8.73927 43.8965 9.26887 43.9098 9.77509 44.0065C9.93714 44.0365 10.141 44.0899 10.2345 44.2049C10.6088 44.6717 10.9479 45.1668 11.3021 45.6537C10.6789 46.5889 10.004 47.5126 9.42425 48.4945C8.17291 50.6152 9.31565 53.2693 11.7081 53.8762C12.0038 53.9512 12.3078 53.9879 12.6035 54.0429C12.3897 57.0155 15.6742 59.4612 18.8218 57.1772C19.3731 58.3342 20.2452 59.0978 21.5232 59.3562C22.8013 59.6146 23.8839 59.1945 24.8412 58.3776C26.2696 60.5299 29.1415 60.5982 30.625 58.2358C31.4671 58.6776 32.2974 59.1528 33.1611 59.5562C35.3764 60.5916 37.854 59.2211 38.1681 56.8121C38.1882 56.6554 38.2283 56.502 38.2583 56.3603C41.3307 56.2269 42.4099 55.2216 42.9496 52.0339C45.8365 52.174 47.1313 51.062 47.7878 47.8227C49.0843 48.0377 50.3072 47.8527 51.348 46.9724C52.4039 46.0821 52.8416 44.9201 52.7748 43.4663C53.9309 44.2416 55.0385 44.0315 56.1829 43.6364C57.9722 43.0195 59.7816 42.4627 61.5809 41.8808C63.7227 41.189 64.4394 39.7769 63.7427 37.6345ZM39.1538 3.69418C41.7584 6.28997 44.3964 8.91911 47.0477 11.5599H39.1538V3.69418ZM15.3033 3.14568C15.3033 2.12537 15.4303 1.99699 16.4561 1.99699C23.102 1.99533 29.7479 2.00366 36.3939 1.98532C36.9619 1.98532 37.1306 2.1287 37.1239 2.70888C37.0955 5.88985 37.1089 9.07082 37.1122 12.2518C37.1122 13.2788 37.4163 13.5839 38.4555 13.5839C41.6013 13.5889 44.7472 13.5855 47.8931 13.5855H48.7267V17.7351C48.7267 18.3186 48.6917 18.9022 48.7334 19.4823C48.8053 20.4493 48.7518 21.1645 47.5656 21.5796C46.2859 22.0264 45.7964 23.5769 46.2007 24.9557C46.3394 25.4325 46.5014 25.9026 46.6818 26.4595C45.362 26.8412 44.1291 27.2714 42.7992 26.4445C40.8946 25.2608 38.828 24.4222 36.5359 24.7823C35.2996 24.9773 34.1184 25.5192 32.9005 25.8593C32.5948 25.946 32.2138 25.9376 31.9115 25.8376C30.9258 25.5108 29.9568 25.1324 28.9911 24.7523C26.973 23.9587 24.9882 24.1521 23.0335 24.9523C22.3435 25.2341 21.6385 25.5342 21.0304 25.956C19.8643 26.7662 18.7132 26.4695 17.4668 26.1277C17.5905 25.7226 17.7007 25.3725 17.806 25.0207C18.3039 23.3669 17.5487 21.8264 15.9098 21.2979C15.4103 21.1378 15.29 20.9128 15.2916 20.4226C15.3083 14.6642 15.3017 8.9041 15.3033 3.14568ZM10.4801 41.1356C10.2128 41.9559 9.82187 42.1626 9.01493 41.9042C6.97504 41.2523 4.9385 40.5938 2.90362 39.9302C2.03655 39.6468 1.85611 39.2884 2.13512 38.4248C3.92106 32.9181 5.71369 27.4131 7.49629 21.9047C7.65668 21.4096 7.89057 21.0345 8.52877 21.0178C8.65741 21.0528 8.83951 21.0945 9.0166 21.1528C11.0331 21.8047 13.0496 22.4566 15.0644 23.1151C15.9282 23.3985 16.1169 23.762 15.8413 24.6172C14.057 30.1239 12.2694 35.6306 10.4801 41.1356ZM12.6587 52.1006C11.3355 51.9889 10.5068 50.6735 11.13 49.5649C11.6279 48.6813 12.2126 47.8427 12.8257 47.0324C13.342 46.3539 14.321 46.2622 15.021 46.734C15.6993 47.1925 15.9967 48.1094 15.579 48.823C15.0444 49.7332 14.4513 50.6185 13.7947 51.4438C13.5408 51.7622 13.0446 51.8872 12.6587 52.1006ZM19.2595 52.9442C18.7349 53.8145 18.1669 54.6614 17.5604 55.4767C17.1177 56.0735 16.3776 56.2252 15.706 55.9718C15.0494 55.7234 14.6351 55.1382 14.625 54.443C14.6133 53.6778 16.4377 50.9386 17.1494 50.6535C17.7793 50.4001 18.5294 50.5585 18.9905 51.042C19.4733 51.5488 19.6287 52.3307 19.2595 52.9442ZM22.8731 57.2805C22.3168 57.664 21.5282 57.4256 21.0421 56.9354C20.5459 56.432 20.3755 55.6634 20.7464 55.0415C21.276 54.1529 21.8557 53.286 22.4755 52.4557C22.9116 51.8689 23.6751 51.7305 24.34 51.9939C24.9665 52.244 25.3925 52.8759 25.3875 53.8195C24.7994 54.9648 24.1796 56.3786 22.8731 57.2805ZM29.9417 55.5484C29.5191 56.2619 29.0513 56.9555 28.54 57.6073C28.3579 57.8391 27.9954 57.9308 27.8718 57.9991C26.7975 57.9891 26.2044 57.0888 26.6271 56.3219C27.0264 55.5984 27.5092 54.9132 28.0104 54.2513C28.3813 53.7611 29.0312 53.7011 29.5291 54.0196C30.042 54.3463 30.2608 55.0082 29.9417 55.5484ZM50.7299 44.3516C50.4743 45.6703 48.9991 46.2922 47.7193 45.622C45.3603 44.3899 43.0147 43.1312 40.6624 41.8858C40.4786 41.7875 40.2965 41.6758 40.1011 41.6158C39.5765 41.4557 39.1421 41.6008 38.8848 42.0959C38.6259 42.5944 38.7746 43.0262 39.2089 43.3563C39.3727 43.4797 39.5665 43.5664 39.7502 43.6647C41.329 44.5033 42.9128 45.3369 44.4883 46.1838C45.6327 46.799 46.032 47.986 45.4623 49.0164C44.9059 50.0233 43.7164 50.3401 42.5987 49.7549C40.9598 48.898 39.3292 48.0177 37.6886 47.1608C37.438 47.0291 37.1473 46.894 36.875 46.894C36.3905 46.8974 36.0564 47.1941 35.9495 47.6743C35.8409 48.1628 36.053 48.5345 36.4791 48.7646C37.5566 49.3515 38.6476 49.9133 39.7252 50.4985C40.5989 50.9753 41.035 51.8656 40.8429 52.7275C40.5421 54.0779 39.1404 54.7364 37.8674 54.0879C36.4039 53.341 34.9621 52.5541 33.5103 51.7839C33.3633 51.7055 33.2179 51.6238 33.0659 51.5571C32.4778 51.2921 31.9215 51.4488 31.6642 51.9456C31.4002 52.4507 31.574 53.0009 32.142 53.3143C33.1628 53.8762 34.2203 54.373 35.2144 54.9765C35.5919 55.2049 35.9461 55.605 36.1182 56.0085C36.3521 56.5587 36.1483 57.1188 35.6805 57.5256C35.1943 57.9458 34.6296 58.0424 34.0516 57.764C33.2847 57.3939 32.5396 56.9805 31.7294 56.5537C32.3291 55.0999 32.2172 53.7895 31.0878 52.7175C29.9384 51.6255 28.6052 51.5938 27.2236 52.2624C26.1476 49.9633 23.5865 49.043 21.1941 50.7869C20.5192 49.3648 19.3798 48.6096 17.7893 48.5062C17.7642 48.1728 17.7642 47.8643 17.7141 47.5626C17.3917 45.6487 15.8162 44.3833 13.8666 44.4633C13.0596 44.4966 12.0923 43.8064 11.9069 43.0562C11.8835 42.9645 11.8968 42.8511 11.9269 42.7611C12.9093 39.8536 13.905 36.951 14.8773 34.0401C15.5356 32.0728 16.1621 30.0972 16.8119 28.0983C17.4819 28.21 18.1268 28.335 18.7783 28.4217C19.9077 28.5751 20.9385 28.3684 21.9359 27.7482C22.7378 27.248 23.6266 26.8296 24.5304 26.5545C26.4985 25.9543 27.2469 26.1677 29.8432 27.1997C28.8174 27.8432 27.7832 28.4584 26.7842 29.1236C24.7827 30.459 23.0118 32.0612 21.3862 33.8317C20.9819 34.2702 20.855 34.7337 21.144 35.2472C21.6502 36.1474 22.1013 37.1044 22.7445 37.8996C23.772 39.17 25.1503 39.5235 26.7341 38.9983C29.9317 37.938 33.1294 36.8826 36.3354 35.849C36.6461 35.749 37.0354 35.7356 37.3478 35.8223C41.8586 37.0877 45.8632 39.3517 49.6306 42.0692C50.3907 42.6177 50.9253 43.3463 50.7299 44.3516ZM50.8502 40.4787C46.8088 37.5662 42.5052 35.1721 37.6753 33.81C37.1122 33.6517 36.6127 33.6283 36.043 33.8217C32.8738 34.8954 29.6911 35.929 26.5135 36.9743C25.1202 37.4328 24.5488 37.2244 23.7519 35.9757C23.2964 35.2622 23.3643 34.6142 23.9557 34.0318C27.257 30.7741 31.1313 28.4784 35.5418 27.0363C37.1507 26.5095 38.6543 26.6945 40.1562 27.3231C40.6524 27.5298 41.1736 27.7315 41.6013 28.0483C43.0515 29.1219 44.6269 29.0469 46.2541 28.6618C46.5933 28.5818 46.9291 28.4868 47.31 28.3851C48.6449 32.4946 49.9681 36.5709 51.333 40.7772C51.0991 40.6338 50.9688 40.5638 50.8502 40.4787ZM61.2568 39.8852C59.145 40.5838 57.0266 41.2623 54.9099 41.9459C54.7929 41.9842 54.666 41.9942 54.5958 42.0092C53.9108 42.0259 53.697 41.5991 53.5333 41.0923C52.718 38.5632 51.8943 36.0391 51.0757 33.5116C50.1217 30.5707 49.1678 27.6298 48.2155 24.6889C47.9064 23.7353 48.0685 23.4052 49.0074 23.1001C51.0222 22.4432 53.0404 21.7897 55.0586 21.1428C55.8872 20.8761 56.2548 21.0645 56.5238 21.8914C58.3197 27.4164 60.114 32.9431 61.9033 38.4715C62.1556 39.2467 61.9835 39.6435 61.2568 39.8852Z" fill="#02A1F5"/>
<path d="M13.6192 25.0473C13.6292 25.5875 13.1882 26.0343 12.6368 26.0426C12.0788 26.051 11.6361 25.6275 11.6278 25.079C11.6211 24.5355 12.0621 24.0804 12.6051 24.0704C13.1397 24.0604 13.6092 24.5122 13.6192 25.0473Z" fill="#02A1F5"/>
<path d="M52.3572 24.9356C52.3522 25.4775 51.8961 25.9126 51.3431 25.9059C50.7818 25.8993 50.3641 25.4691 50.3724 24.9073C50.3791 24.3521 50.8269 23.9103 51.3698 23.9203C51.9044 23.932 52.3639 24.4021 52.3572 24.9356Z" fill="#02A1F5"/>
</svg>
