<svg width="58" height="60" viewBox="0 0 58 60" fill="none" xmlns="http://www.w3.org/2000/svg">
<g clip-path="url(#clip0_415_201)">
<path d="M40.4501 17.73C37.4201 14.78 33.3001 13.16 28.8501 13.16C24.4001 13.16 20.2701 14.78 17.2501 17.73C14.2301 20.68 12.5601 24.69 12.5601 29.02C12.5601 33.64 14.6201 38.05 18.2001 41.12C20.0801 42.73 21.2601 44.95 21.6601 47.58C20.7001 48.15 20.0501 49.19 20.0501 50.37V51.34C20.0501 52.82 21.0501 54.07 22.4201 54.46C22.2401 54.86 22.1401 55.31 22.1401 55.78V56.75C22.1401 58.54 23.6101 59.99 25.4101 59.99H32.3101C34.1101 59.99 35.5801 58.53 35.5801 56.75V55.78C35.5801 55.31 35.4801 54.86 35.3001 54.46C36.6601 54.07 37.6701 52.82 37.6701 51.34V50.37C37.6701 49.18 37.0201 48.14 36.0601 47.58C36.4601 44.95 37.6401 42.73 39.5201 41.12C43.1001 38.05 45.1601 33.64 45.1601 29.02C45.1601 24.69 43.4901 20.68 40.4701 17.73H40.4501ZM33.5201 56.76C33.5201 57.42 32.9701 57.95 32.3001 57.95H25.3901C24.7201 57.95 24.1701 57.41 24.1701 56.76V55.79C24.1701 55.13 24.7201 54.6 25.3901 54.6H32.2901C32.9601 54.6 33.5101 55.14 33.5101 55.79V56.76H33.5201ZM35.6001 51.35C35.6001 52.01 35.0501 52.54 34.3801 52.54H23.3101C22.6401 52.54 22.0901 52 22.0901 51.35V50.38C22.0901 49.72 22.6401 49.19 23.3101 49.19H34.3801C35.0501 49.19 35.6001 49.73 35.6001 50.38V51.35ZM25.6601 34.27H23.6301C22.8101 34.27 22.1401 33.61 22.1401 32.81C22.1401 32.01 22.8101 31.35 23.6301 31.35H24.1701C24.9901 31.35 25.6601 32.01 25.6601 32.81V34.27V34.27ZM30.0401 47.14H27.7101V36.32H30.0401V47.14V47.14ZM38.1601 39.57C35.9301 41.48 34.5201 44.08 34.0301 47.14H32.0901V36.32H34.1601C36.1101 36.32 37.7001 34.74 37.7001 32.81C37.7001 30.88 36.1101 29.3 34.1601 29.3H33.5801C31.6301 29.3 30.0401 30.88 30.0401 32.81V34.27H27.7101V32.81C27.7101 30.87 26.1201 29.3 24.1701 29.3H23.6301C21.6801 29.3 20.0901 30.88 20.0901 32.81C20.0901 34.74 21.6801 36.32 23.6301 36.32H25.6601V47.14H23.6501C23.1601 44.08 21.7501 41.48 19.5201 39.57C16.3901 36.89 14.6001 33.05 14.6001 29.03C14.6001 21.16 20.7201 15.22 28.8401 15.22C36.9601 15.22 43.0801 21.16 43.0801 29.03C43.0801 33.05 41.2901 36.9 38.1601 39.57V39.57ZM32.0901 34.27V32.81C32.0901 32 32.7601 31.35 33.5801 31.35H34.1601C34.9801 31.35 35.6501 32.01 35.6501 32.81C35.6501 33.61 34.9801 34.27 34.1601 34.27H32.0901Z" fill="#02A1F5"/>
<path d="M45.27 51.86C44.51 51.86 43.77 51.57 43.2 51L40.32 48.12L41.77 46.67L44.65 49.55C45.04 49.94 45.57 49.83 45.92 49.6L49.46 46.19C49.84 45.81 49.73 45.29 49.51 44.94L46.69 42.13C46.34 41.78 46.29 41.23 46.57 40.82C48.1 38.58 49.21 35.98 49.78 33.28C49.88 32.8 50.3 32.46 50.78 32.46H54.79C55.13 32.4 55.64 32.16 55.64 31.57V26.61C55.6 26.36 55.41 25.76 54.62 25.76H50.53C50.03 25.76 49.6 25.4 49.52 24.9C49.09 22.35 48.03 19.71 46.43 17.26C46.17 16.85 46.22 16.32 46.57 15.97L49.45 13.09C49.84 12.7 49.73 12.18 49.5 11.83L46.08 8.3C45.69 7.92 45.17 8.03 44.82 8.25L42 11.06C41.65 11.41 41.1 11.46 40.7 11.18C38.46 9.65 35.84 8.54 33.14 7.98C32.66 7.88 32.32 7.46 32.32 6.98V2.94C32.32 2.41 31.92 2.05 31.54 2.05H26.57C26.23 2.11 25.72 2.35 25.72 2.94V7.13C25.72 7.63 25.36 8.06 24.86 8.14C22.31 8.56 19.66 9.63 17.2 11.22C16.79 11.48 16.26 11.43 15.92 11.09L13.04 8.21C12.65 7.82 12.12 7.93 11.77 8.16L8.23002 11.57C7.85002 11.95 7.96002 12.47 8.18002 12.82L11 15.63C11.35 15.98 11.4 16.53 11.12 16.94C9.59002 19.18 8.48002 21.78 7.91002 24.48C7.81002 24.96 7.39002 25.3 6.91002 25.3H2.90002C2.56002 25.36 2.05002 25.6 2.05002 26.19V31.15C2.11002 31.49 2.35002 32 2.95002 32H7.04002C7.54002 32 7.97002 32.36 8.05002 32.86C8.48002 35.41 9.54002 38.05 11.14 40.5C11.4 40.91 11.35 41.44 11.01 41.79L8.13002 44.67C7.74002 45.06 7.85002 45.58 8.08002 45.93L11.5 49.46C11.89 49.84 12.41 49.73 12.76 49.51L15.58 46.7L17.03 48.15L14.15 51.03C14.15 51.03 14.07 51.11 14.02 51.14C12.74 52.05 11.11 51.96 10.06 50.91C10.06 50.91 10.06 50.91 10.05 50.9L6.56002 47.3C6.56002 47.3 6.49002 47.22 6.46002 47.18C5.54002 45.9 5.64002 44.27 6.69002 43.22L8.99002 40.92C7.65002 38.71 6.70002 36.37 6.20002 34.06H2.96002C1.45002 34.06 0.22002 32.93 0.0200195 31.36C0.0200195 31.32 0.0200195 31.28 0.0200195 31.23V26.2C0.0200195 24.69 1.16002 23.46 2.72002 23.26C2.76002 23.26 2.80002 23.26 2.85002 23.26H6.12002C6.71002 20.87 7.69002 18.57 8.99002 16.51L6.70002 14.22C6.70002 14.22 6.62002 14.14 6.59002 14.09C5.67002 12.81 5.77002 11.18 6.82002 10.13C6.82002 10.13 6.82002 10.13 6.83002 10.12L10.44 6.64C10.44 6.64 10.52 6.57 10.56 6.54C11.84 5.63 13.47 5.72 14.52 6.77L16.83 9.07C19.05 7.73 21.4 6.78 23.71 6.29V2.94C23.71 1.43 24.85 0.2 26.41 0C26.45 0 26.49 0 26.54 0H31.59C33.15 0 34.42 1.32 34.42 2.94V6.2C36.81 6.79 39.13 7.77 41.19 9.06L43.49 6.77C43.49 6.77 43.57 6.69 43.62 6.66C44.9 5.75 46.53 5.84 47.58 6.89C47.58 6.89 47.58 6.89 47.59 6.9L51.08 10.5C51.08 10.5 51.15 10.58 51.18 10.62C52.1 11.9 52 13.53 50.95 14.58L48.65 16.88C49.99 19.09 50.94 21.43 51.44 23.74H54.68C56.28 23.74 57.54 24.85 57.74 26.44C57.74 26.48 57.74 26.52 57.74 26.57V31.6C57.74 33.11 56.6 34.34 55.04 34.54C55 34.54 54.96 34.54 54.91 34.54H51.64C51.05 36.93 50.07 39.23 48.77 41.29L51.06 43.58C51.06 43.58 51.14 43.66 51.17 43.71C52.09 44.99 51.99 46.62 50.94 47.67C50.94 47.67 50.94 47.67 50.93 47.68L47.32 51.16C47.32 51.16 47.24 51.23 47.2 51.26C46.61 51.68 45.95 51.89 45.3 51.89L45.27 51.86Z" fill="#02A1F5"/>
</g>
<defs>
<clipPath id="clip0_415_201">
<rect width="57.69" height="60" fill="white"/>
</clipPath>
</defs>
</svg>
