<svg width="55" height="60" viewBox="0 0 55 60" fill="none" xmlns="http://www.w3.org/2000/svg">
<path d="M48.13 38.0901H48.1268C49.5752 36.4845 50.332 34.1006 50.332 31.7985C50.332 30.0927 49.6502 28.4567 48.4365 27.2505C47.2229 26.0442 45.5768 25.3666 43.8604 25.3666C42.1441 25.3666 40.498 26.0442 39.2844 27.2505C38.0707 28.4567 37.3889 30.0927 37.3889 31.7985C37.3889 33.6391 37.9286 35.609 38.8325 37.0673C39.0557 37.4292 39.3097 37.7714 39.5918 38.0901H39.5874C38.0811 38.0869 36.6125 38.5575 35.3917 39.4344C34.8422 39.3437 34.2861 39.2979 33.729 39.2972H32.6425C33.3152 38.6952 33.9002 38.0031 34.3809 37.2408C35.7234 35.1446 36.4934 32.3875 36.4934 29.6764C36.4977 28.4998 36.2683 27.3339 35.8183 26.2456C35.3683 25.1574 34.7065 24.1681 33.8709 23.3346C33.0354 22.5011 32.0424 21.8397 30.9491 21.3884C29.8558 20.9372 28.6836 20.7049 27.4998 20.7049C26.3159 20.7049 25.1437 20.9372 24.0504 21.3884C22.9571 21.8397 21.9642 22.5011 21.1286 23.3346C20.293 24.1681 19.6313 25.1574 19.1812 26.2456C18.7312 27.3339 18.5018 28.4998 18.5062 29.6764C18.5062 32.2818 19.2686 35.0676 20.5457 37.128C21.0367 37.9344 21.6436 38.6653 22.347 39.2975H21.2676C20.7105 39.2981 20.1544 39.344 19.6049 39.4346C18.3841 38.5578 16.9154 38.0872 15.4092 38.0903H15.4048C15.6869 37.7716 15.9409 37.4294 16.1641 37.0675C17.068 35.609 17.6077 33.6393 17.6077 31.7988C17.6077 30.0934 16.926 28.4578 15.7127 27.2519C14.4994 26.046 12.8538 25.3685 11.1379 25.3685C9.42194 25.3685 7.77632 26.046 6.56299 27.2519C5.34966 28.4578 4.66802 30.0934 4.66802 31.7988C4.66802 34.1008 5.42506 36.4847 6.87209 38.0903H6.86662C3.08028 38.0903 0 40.9643 0 44.4967V51.9241C0 52.1807 0.102585 52.4269 0.285189 52.6084C0.467792 52.7899 0.715455 52.8918 0.973695 52.8918H11.6965V59.0323C11.6965 59.2889 11.7991 59.5351 11.9817 59.7166C12.1643 59.898 12.412 60 12.6702 60H42.3277C42.586 60 42.8336 59.898 43.0162 59.7166C43.1988 59.5351 43.3014 59.2889 43.3014 59.0323V52.8916H54.0263C54.2845 52.8916 54.5322 52.7896 54.7148 52.6081C54.8974 52.4266 55 52.1805 55 51.9238V44.4964C55 40.964 51.9181 38.0901 48.13 38.0901ZM39.3363 31.7985C39.3363 30.606 39.8129 29.4623 40.6614 28.619C41.5098 27.7758 42.6606 27.3021 43.8604 27.3021C45.0603 27.3021 46.2111 27.7758 47.0595 28.619C47.9079 29.4623 48.3846 30.606 48.3846 31.7985C48.3846 34.2311 47.1553 38.0901 43.8586 38.0901C40.5641 38.0901 39.3363 34.2311 39.3363 31.7985ZM27.498 22.671C29.3666 22.6732 31.158 23.4119 32.4793 24.7251C33.8006 26.0383 34.5438 27.8188 34.546 29.6759C34.546 29.7264 34.5439 29.7769 34.5432 29.8274C31.8298 29.5199 29.488 28.9201 26.3253 26.4556C26.1697 26.3344 25.9806 26.2631 25.7832 26.2513C25.5858 26.2395 25.3894 26.2877 25.2203 26.3895L20.4678 29.25C20.5783 27.4706 21.3668 25.7998 22.6728 24.5776C23.9788 23.3555 25.7042 22.6737 27.498 22.671ZM22.2035 36.1127C21.3906 34.801 20.8214 33.138 20.5812 31.4434L25.6612 28.3865C28.9629 30.8215 31.5472 31.4398 34.3707 31.7557C34.102 33.3856 33.5331 34.9591 32.7379 36.2008C31.8332 37.6133 30.1898 39.2976 27.4977 39.2976C25.295 39.2972 23.5134 38.2258 22.2035 36.1127ZM6.6148 31.7985C6.6148 31.2083 6.73177 30.6238 6.95905 30.0785C7.18632 29.5331 7.51944 29.0376 7.93939 28.6202C8.35934 28.2029 8.85789 27.8718 9.40658 27.6459C9.95527 27.42 10.5433 27.3037 11.1372 27.3037C11.7311 27.3037 12.3192 27.42 12.8679 27.6459C13.4166 27.8718 13.9151 28.2029 14.3351 28.6202C14.755 29.0376 15.0882 29.5331 15.3154 30.0785C15.5427 30.6238 15.6597 31.2083 15.6597 31.7985C15.6597 34.2311 14.4319 38.0901 11.1372 38.0901C7.84262 38.0901 6.6148 34.2311 6.6148 31.7985ZM1.94678 50.9561V44.4964C1.94678 42.0312 4.15354 40.0256 6.86601 40.0256H15.4086C15.9331 40.0255 16.4546 40.103 16.9562 40.2554C13.8386 41.7249 11.6955 44.7331 11.6955 48.2002V50.9564L1.94678 50.9561ZM41.3531 58.0645H36.4174V52.0986C36.4174 51.842 36.3148 51.5958 36.1322 51.4143C35.9496 51.2328 35.7019 51.1309 35.4437 51.1309C35.1855 51.1309 34.9378 51.2328 34.7552 51.4143C34.5726 51.5958 34.47 51.842 34.47 52.0986V58.0645H20.5294V52.0986C20.5294 51.842 20.4268 51.5958 20.2442 51.4143C20.0616 51.2328 19.8139 51.1309 19.5557 51.1309C19.2974 51.1309 19.0498 51.2328 18.8672 51.4143C18.6846 51.5958 18.582 51.842 18.582 52.0986V58.0645H13.6429V48.1998C13.6429 44.3581 17.063 41.2327 21.267 41.2327H33.7296C37.9336 41.2327 41.3537 44.3581 41.3537 48.1998L41.3531 58.0645ZM53.0526 50.9561H43.3004V48.1998C43.3004 44.7328 41.1573 41.7246 38.0398 40.255C38.5414 40.1026 39.0629 40.0251 39.5874 40.0252H48.13C50.8442 40.0252 53.0526 42.0308 53.0526 44.496V50.9561ZM22.0875 11.5231L21.3279 16.761C21.3027 16.9354 21.3258 17.1134 21.3948 17.2757C21.4638 17.438 21.576 17.5785 21.7195 17.682C21.8629 17.7856 22.0321 17.8482 22.2087 17.8633C22.3853 17.8783 22.5627 17.8451 22.7218 17.7673L27.498 15.43L32.2776 17.7675C32.4367 17.8453 32.6141 17.8785 32.7907 17.8634C32.9673 17.8484 33.1365 17.7857 33.2799 17.6822C33.4233 17.5786 33.5356 17.4381 33.6046 17.2758C33.6735 17.1135 33.6966 16.9356 33.6713 16.7612L32.9116 11.5233L36.6247 7.72923C36.7483 7.60296 36.8348 7.44555 36.875 7.27398C36.9152 7.10241 36.9076 6.92319 36.8528 6.75563C36.7981 6.58808 36.6984 6.43855 36.5645 6.32317C36.4305 6.20779 36.2674 6.13093 36.0928 6.10089L30.8441 5.19786L28.3591 0.516411C28.2764 0.360595 28.1526 0.230155 28.0008 0.139153C27.8491 0.0481504 27.6752 3.73648e-05 27.498 0C27.3207 3.85658e-05 27.1468 0.0481775 26.995 0.139225C26.8433 0.230272 26.7194 0.360773 26.6368 0.516653L24.1552 5.1981L18.9068 6.10101C18.7322 6.13105 18.5691 6.20791 18.4352 6.32329C18.3012 6.43867 18.2015 6.5882 18.1468 6.75575C18.0921 6.92331 18.0844 7.10253 18.1246 7.2741C18.1648 7.44567 18.2514 7.60308 18.375 7.72935L22.0875 11.5231ZM24.9592 7.02375C25.1061 6.99848 25.2451 6.94002 25.3657 6.8529C25.4862 6.76578 25.5851 6.65232 25.6545 6.52125L27.498 3.04282L29.3447 6.52173C29.4142 6.65268 29.513 6.76603 29.6335 6.85307C29.754 6.9401 29.893 6.99849 30.0398 7.02375L33.9411 7.69488L31.1817 10.515C31.0778 10.6212 30.9997 10.7498 30.9537 10.8907C30.9076 11.0317 30.8947 11.1812 30.916 11.3279L31.4805 15.2205L27.9279 13.4831C27.7941 13.4176 27.647 13.3836 27.4979 13.3836C27.3488 13.3836 27.2016 13.4176 27.0679 13.4831L23.519 15.2198L24.0834 11.3278C24.1046 11.1811 24.0917 11.0316 24.0457 10.8907C23.9996 10.7497 23.9216 10.6212 23.8177 10.515L21.0579 7.69488L24.9592 7.02375ZM4.01576 13.1554L3.49398 16.7615C3.46875 16.9359 3.4919 17.1139 3.56094 17.2761C3.62998 17.4384 3.74229 17.5789 3.88575 17.6824C4.02921 17.7859 4.19838 17.8485 4.37501 17.8635C4.55165 17.8785 4.72904 17.8452 4.88807 17.7674L8.17684 16.1572L11.4623 17.7671C11.6213 17.845 11.7987 17.8783 11.9754 17.8634C12.152 17.8485 12.3212 17.7859 12.4647 17.6824C12.6082 17.5789 12.7206 17.4384 12.7896 17.2762C12.8587 17.1139 12.8819 16.9359 12.8567 16.7615L12.3349 13.1557L14.8919 10.5445C15.0156 10.4183 15.1022 10.2609 15.1424 10.0893C15.1826 9.91772 15.175 9.73849 15.1203 9.57092C15.0656 9.40335 14.9659 9.2538 14.832 9.1384C14.698 9.02299 14.5349 8.94611 14.3603 8.91605L10.7472 8.29427L9.03832 5.07351C8.95567 4.91775 8.83182 4.78736 8.68013 4.69638C8.52843 4.6054 8.35463 4.55729 8.17745 4.55722C8.00032 4.55721 7.82654 4.60522 7.67482 4.69609C7.52311 4.78696 7.39921 4.91724 7.31646 5.0729L5.60398 8.29427L1.99376 8.91617C1.81917 8.94624 1.65615 9.02309 1.52226 9.13844C1.38837 9.25379 1.28869 9.40326 1.23395 9.57076C1.17922 9.73825 1.17151 9.91742 1.21165 10.0889C1.25179 10.2605 1.33827 10.4179 1.46176 10.5442L4.01576 13.1554ZM6.40776 10.1202C6.55442 10.0949 6.6933 10.0366 6.81374 9.94967C6.93417 9.86275 7.03296 9.74954 7.1025 9.61875L8.17624 7.59859L9.2473 9.61875C9.31679 9.74976 9.4156 9.86317 9.53613 9.95024C9.65666 10.0373 9.7957 10.0957 9.94252 10.121L12.2077 10.5108L10.6046 12.1478C10.5007 12.254 10.4226 12.3825 10.3765 12.5234C10.3304 12.6643 10.3175 12.8138 10.3387 12.9605L10.6656 15.2198L8.6071 14.2112C8.47322 14.1456 8.32597 14.1115 8.17672 14.1115C8.02748 14.1115 7.88023 14.1456 7.74635 14.2112L5.68394 15.2209L6.01098 12.9607C6.03219 12.8142 6.01928 12.6647 5.97324 12.5239C5.9272 12.3831 5.84925 12.2546 5.74541 12.1484L4.14429 10.51L6.40776 10.1202ZM42.6612 13.1554L42.1399 16.7615C42.1147 16.9359 42.1378 17.1139 42.2069 17.2761C42.2759 17.4384 42.3882 17.5789 42.5317 17.6824C42.6752 17.7859 42.8443 17.8485 43.021 17.8635C43.1976 17.8785 43.375 17.8452 43.534 17.7674L46.8229 16.1572L50.1119 17.7674C50.271 17.8453 50.4485 17.8785 50.6252 17.8635C50.8019 17.8485 50.9711 17.7858 51.1146 17.6822C51.2581 17.5785 51.3703 17.438 51.4393 17.2756C51.5083 17.1132 51.5313 16.9351 51.5059 16.7607L50.9812 13.1558L53.5379 10.545C53.6615 10.4187 53.7481 10.2613 53.7883 10.0898C53.8286 9.91821 53.8209 9.73897 53.7662 9.5714C53.7115 9.40383 53.6118 9.25428 53.4779 9.13888C53.344 9.02348 53.1809 8.9466 53.0062 8.91653L49.393 8.29476L47.6837 5.07351C47.601 4.91773 47.4771 4.78733 47.3254 4.69635C47.1737 4.60537 46.9999 4.55727 46.8227 4.55722C46.6456 4.55723 46.4718 4.60525 46.3201 4.69612C46.1684 4.78699 46.0445 4.91726 45.9618 5.0729L44.2497 8.29427L40.6395 8.91617C40.4649 8.94622 40.3018 9.02306 40.1679 9.1384C40.034 9.25375 39.9343 9.40322 39.8796 9.57071C39.8248 9.73821 39.8171 9.91738 39.8572 10.0889C39.8974 10.2605 39.9838 10.4179 40.1073 10.5442L42.6612 13.1554ZM45.0531 10.1202C45.1998 10.0949 45.3387 10.0366 45.4591 9.94962C45.5795 9.86267 45.6783 9.74944 45.7478 9.61863L46.8216 7.59847L47.8926 9.61863C47.9621 9.74964 48.0609 9.86305 48.1815 9.95012C48.302 10.0372 48.441 10.0956 48.5879 10.1209L50.8532 10.5106L49.25 12.1477C49.1459 12.254 49.0678 12.3826 49.0217 12.5237C48.9756 12.6647 48.9628 12.8144 48.9841 12.9612L49.3128 15.2197L47.2522 14.2108C47.1183 14.1453 46.9711 14.1113 46.8219 14.1113C46.6727 14.1113 46.5254 14.1453 46.3916 14.2108L44.3293 15.2204L44.6563 12.9605C44.6776 12.8139 44.6646 12.6644 44.6186 12.5236C44.5726 12.3827 44.4946 12.2543 44.3907 12.1481L42.7896 10.51L45.0531 10.1202Z" fill="#2D3484"/>
</svg>
