<svg width="60" height="50" viewBox="0 0 60 50" fill="none" xmlns="http://www.w3.org/2000/svg">
<g clip-path="url(#clip0_415_204)">
<path d="M57.72 11.12L33.37 0.69C31.23 -0.23 28.77 -0.23 26.63 0.69L2.29 11.12C0.88 11.72 0 13.05 0 14.59C0 16.13 0.88 17.45 2.28 18.05L5.16 19.28C5.16 19.28 5.16 19.34 5.16 19.37V32.99C4.05 33.37 3.24 34.42 3.24 35.66C3.24 36.38 3.51 37.03 3.95 37.53C3.46 38.01 3.13 38.66 3.07 39.4L2.38 46.98C2.33 47.5 2.51 48.02 2.86 48.4C3.21 48.78 3.71 49 4.23 49H7.88C8.4 49 8.9 48.78 9.25 48.4C9.6 48.02 9.77 47.5 9.73 46.98L9.04 39.4C8.97 38.66 8.65 38.01 8.16 37.53C8.6 37.03 8.87 36.38 8.87 35.66C8.87 34.42 8.07 33.37 6.95 32.99V20.05L11.86 22.16C11.86 22.16 11.86 22.22 11.86 22.25V29.11C11.86 31.97 13.82 34.62 17.38 36.56C20.77 38.41 25.25 39.43 30 39.43C34.75 39.43 39.24 38.41 42.62 36.56C46.18 34.61 48.14 31.97 48.14 29.11V22.25C48.14 22.25 48.14 22.19 48.14 22.16L57.72 18.05C59.13 17.45 60.01 16.12 60.01 14.58C60.01 13.05 59.13 11.72 57.73 11.12H57.72ZM7.92 47.19L7.88 47.21H4.23C4.23 47.21 4.2 47.21 4.19 47.19C4.17 47.17 4.17 47.15 4.17 47.14L4.86 39.56C4.92 38.94 5.43 38.47 6.05 38.47C6.67 38.47 7.19 38.94 7.24 39.56L7.93 47.14C7.93 47.14 7.93 47.17 7.91 47.19H7.92ZM6.05 36.67C5.49 36.67 5.03 36.21 5.03 35.65C5.03 35.09 5.49 34.63 6.05 34.63C6.61 34.63 7.07 35.09 7.07 35.65C7.07 36.21 6.61 36.67 6.05 36.67V36.67ZM46.34 25.27C46.34 27.59 44.43 29.86 41.1 31.49C40.65 31.71 40.47 32.25 40.69 32.69C40.85 33.01 41.17 33.19 41.5 33.19C41.63 33.19 41.77 33.16 41.89 33.1C43.74 32.2 45.22 31.09 46.27 29.87C45.93 31.76 44.36 33.55 41.76 34.98C38.63 36.69 34.46 37.63 30 37.63C25.54 37.63 21.37 36.69 18.24 34.98C15.65 33.56 14.07 31.78 13.73 29.89C14.64 30.94 15.86 31.89 17.38 32.72C20.77 34.57 25.25 35.59 30 35.59C31.33 35.59 32.66 35.51 33.94 35.35C34.43 35.29 34.78 34.84 34.72 34.35C34.66 33.86 34.21 33.51 33.72 33.57C32.51 33.72 31.26 33.8 30 33.8C25.54 33.8 21.37 32.86 18.24 31.15C15.29 29.53 13.66 27.45 13.66 25.27V22.92L26.63 28.48C27.7 28.94 28.85 29.17 30 29.17C31.15 29.17 32.3 28.94 33.37 28.48L46.34 22.92V25.27V25.27ZM57 16.4L32.66 26.83C30.97 27.56 29.03 27.56 27.33 26.83L8.73 18.86L25.78 15.9C26.55 16.81 28.11 17.4 30 17.4C32.7 17.4 34.73 16.19 34.73 14.59C34.73 12.99 32.7 11.78 30 11.78C27.55 11.78 25.65 12.78 25.32 14.16L5.9 17.54C5.84 17.54 5.79 17.57 5.74 17.59L2.99 16.41C2.24 16.09 1.79 15.41 1.79 14.6C1.79 13.79 2.24 13.11 2.99 12.78L27.34 2.34C28.19 1.98 29.1 1.8 30.01 1.8C30.92 1.8 31.82 1.98 32.67 2.34L57.02 12.77C57.77 13.09 58.22 13.77 58.22 14.58C58.22 15.39 57.77 16.07 57.02 16.4H57ZM27.06 14.58C27.06 14.32 28.07 13.56 29.99 13.56C31.91 13.56 32.92 14.32 32.92 14.58C32.92 14.84 31.91 15.6 29.99 15.6C28.07 15.6 27.06 14.84 27.06 14.58V14.58Z" fill="#02A1F5"/>
<path d="M36.7001 34.86C36.7701 34.86 36.8301 34.86 36.9001 34.84C37.5801 34.68 38.2501 34.5 38.8801 34.3C39.3501 34.15 39.6101 33.65 39.4701 33.17C39.3301 32.69 38.8201 32.43 38.3401 32.58C37.7501 32.77 37.1201 32.94 36.4901 33.08C36.0101 33.19 35.7101 33.67 35.8201 34.16C35.9201 34.58 36.2901 34.86 36.6901 34.86H36.7001Z" fill="#02A1F5"/>
</g>
<defs>
<clipPath id="clip0_415_204">
<rect width="60" height="49.01" fill="white"/>
</clipPath>
</defs>
</svg>
