<svg width="60" height="61" viewBox="0 0 60 61" fill="none" xmlns="http://www.w3.org/2000/svg">
<path d="M60 37V23H54C53.49 21.26 52.79 19.58 51.92 17.99L56.17 13.74L46.27 3.84L42.02 8.09C40.43 7.21 38.75 6.51 37 6V0H23V6C21.26 6.51 19.58 7.21 17.99 8.08L13.74 3.83L3.84 13.74L8.09 17.99C7.21 19.58 6.51 21.26 6 23.01H0V37.01H6C6.51 38.75 7.21 40.43 8.08 42.02L3.83 46.27L13.73 56.17L17.98 51.92C19.57 52.8 21.25 53.5 23 54.01V60.01H37V54.01C38.74 53.5 40.42 52.8 42.01 51.93L46.26 56.18L56.16 46.28L51.91 42.03C52.79 40.44 53.49 38.76 54 37.01H60V37ZM52.27 35.75C51.73 37.83 50.9 39.82 49.81 41.67L49.41 42.34L53.33 46.26L46.26 53.34L42.34 49.42L41.67 49.82C39.82 50.92 37.83 51.74 35.75 52.28L35 52.47V58H25V52.47L24.25 52.28C22.17 51.74 20.18 50.91 18.33 49.82L17.66 49.42L13.74 53.34L6.66 46.26L10.58 42.34L10.18 41.67C9.08 39.82 8.26 37.83 7.72 35.75L7.53 35H2V25H7.53L7.72 24.25C8.26 22.17 9.09 20.18 10.18 18.33L10.58 17.66L6.66 13.74L13.74 6.66L17.66 10.58L18.33 10.18C20.18 9.08 22.17 8.26 24.25 7.72L25 7.53V2H35V7.53L35.75 7.72C37.83 8.26 39.82 9.09 41.67 10.18L42.34 10.58L46.26 6.66L53.34 13.74L49.42 17.66L49.82 18.33C50.92 20.18 51.74 22.17 52.28 24.25L52.47 25H58V35H52.47L52.28 35.75H52.27Z" fill="#02A1F5"/>
<path d="M30 13C20.62 13 13 20.6 13 29.98C13 36.66 16.91 42.73 23 45.47V45.49L23.62 45.74L24.99 46.3V46.23C26.61 46.73 28.3 46.99 29.99 46.99C30.33 46.99 30.66 46.98 30.99 46.96V47L32.11 46.86L32.99 46.75V46.71C42.23 45.06 48.38 36.23 46.73 26.99C45.28 18.88 38.23 12.98 29.99 12.99L30 13ZM25 44.14V34.25L24.67 33.95C21.38 31.01 21.1 25.95 24.04 22.66C25.56 20.96 27.73 19.99 30 20C30.29 20 30.59 20.02 30.88 20.05L26.23 24.7L27.12 30.89L33.31 31.78L37.96 27.13C37.99 27.42 38.01 27.71 38.01 28.01C37.99 31.74 35.42 34.97 31.79 35.81L31.01 35.99V44.98C28.97 45.11 26.93 44.83 25.01 44.15L25 44.14ZM33 44.7V37.54C37.15 36.21 39.98 32.36 40 28C40 26.91 39.83 25.83 39.48 24.8L38.96 23.29L32.6 29.65L28.89 29.12L28.36 25.4L34.72 19.04L33.21 18.52C32.18 18.17 31.1 17.99 30.02 18C24.5 18 20.02 22.47 20.02 27.99C20.02 30.68 21.1 33.25 23.02 35.13V43.26C15.7 39.39 12.9 30.32 16.77 23C20.64 15.68 29.71 12.88 37.03 16.75C44.35 20.62 47.15 29.69 43.28 37.01C41.18 40.98 37.42 43.8 33.02 44.7H33Z" fill="#02A1F5"/>
</svg>
