<svg width="60" height="60" viewBox="0 0 60 60" fill="none" xmlns="http://www.w3.org/2000/svg">
<path d="M54.1935 32.4484V13.471C57.4713 12.9987 60 10.1797 60 6.77419C60 3.03968 56.9613 0 53.2258 0C49.4903 0 46.4516 3.03968 46.4516 6.77419H0V45.4839H29.0816C29.5848 53.5703 36.3058 60 44.5161 60C53.0535 60 60 53.0535 60 44.5161C60 39.6397 57.7287 35.2887 54.1935 32.4484ZM53.2258 1.93548C55.8939 1.93548 58.0645 4.10613 58.0645 6.77419C58.0645 9.44226 55.8939 11.6129 53.2258 11.6129C50.5577 11.6129 48.3871 9.44226 48.3871 6.77419C48.3871 4.10613 50.5577 1.93548 53.2258 1.93548ZM1.93548 8.70968H46.7371C46.9684 9.48194 47.3361 10.1932 47.8084 10.8242L41.8897 16.7429C41.5103 16.561 41.0923 16.4516 40.6452 16.4516C40.1981 16.4516 39.78 16.561 39.4016 16.7429L37.4516 14.7929C37.6326 14.4135 37.7419 13.9955 37.7419 13.5484C37.7419 11.9477 36.4394 10.6452 34.8387 10.6452C33.2381 10.6452 31.9355 11.9477 31.9355 13.5484C31.9355 13.9955 32.0448 14.4135 32.2268 14.7919L27.3735 19.6452C26.9942 19.4642 26.5761 19.3548 26.129 19.3548C24.5284 19.3548 23.2258 20.6574 23.2258 22.2581C23.2258 23.8587 24.5284 25.1613 26.129 25.1613C27.7297 25.1613 29.0323 23.8587 29.0323 22.2581C29.0323 21.811 28.9229 21.3929 28.741 21.0145L33.5942 16.1613C33.9735 16.3423 34.3916 16.4516 34.8387 16.4516C35.2858 16.4516 35.7039 16.3423 36.0823 16.1603L38.0323 18.1103C37.8513 18.4897 37.7419 18.9077 37.7419 19.3548C37.7419 20.9555 39.0445 22.2581 40.6452 22.2581C42.2458 22.2581 43.5484 20.9555 43.5484 19.3548C43.5484 18.9077 43.439 18.4897 43.2571 18.1113L49.1768 12.1926C50.0623 12.8565 51.1132 13.3065 52.2581 13.4719V31.1284C49.9771 29.8035 47.3381 29.0323 44.5161 29.0323C39.8903 29.0323 35.7426 31.0819 32.9032 34.3094V30H27.0968V41.6129H29.3148C29.1948 42.2448 29.1223 42.8923 29.0816 43.5484H1.93548V8.70968ZM40.6452 18.3871C41.1784 18.3871 41.6129 18.8206 41.6129 19.3548C41.6129 19.889 41.1784 20.3226 40.6452 20.3226C40.1119 20.3226 39.6774 19.889 39.6774 19.3548C39.6774 18.8206 40.1119 18.3871 40.6452 18.3871ZM33.871 13.5484C33.871 13.0142 34.3055 12.5806 34.8387 12.5806C35.3719 12.5806 35.8064 13.0142 35.8064 13.5484C35.8064 14.0826 35.3719 14.5161 34.8387 14.5161C34.3055 14.5161 33.871 14.0826 33.871 13.5484ZM27.0968 22.2581C27.0968 22.7923 26.6623 23.2258 26.129 23.2258C25.5958 23.2258 25.1613 22.7923 25.1613 22.2581C25.1613 21.7239 25.5958 21.2903 26.129 21.2903C26.6623 21.2903 27.0968 21.7239 27.0968 22.2581ZM44.5161 52.2581C40.2474 52.2581 36.7742 48.7848 36.7742 44.5161C36.7742 40.2474 40.2474 36.7742 44.5161 36.7742C48.7848 36.7742 52.2581 40.2474 52.2581 44.5161C52.2581 48.7848 48.7848 52.2581 44.5161 52.2581ZM30.9677 37.0364C30.5042 37.8726 30.121 38.7561 29.8171 39.6774H29.0323V31.9355H30.9677V37.0364ZM43.5484 31.0171V34.8881C38.6652 35.3758 34.8387 39.5071 34.8387 44.5161C34.8387 45.9319 35.1523 47.2742 35.701 48.4877L32.3439 50.4261C31.471 48.6377 30.9677 46.6365 30.9677 44.5161C30.9677 37.3723 36.5294 31.5164 43.5484 31.0171ZM44.5161 58.0645C39.8574 58.0645 35.7406 55.7003 33.3019 52.1081L36.6726 50.1619C38.4319 52.5987 41.2877 54.1935 44.5161 54.1935C47.7445 54.1935 50.6003 52.5987 52.3597 50.1619L55.7303 52.1081C53.2916 55.7003 49.1748 58.0645 44.5161 58.0645ZM56.6884 50.4261L53.3313 48.4877C53.88 47.2742 54.1935 45.9319 54.1935 44.5161C54.1935 39.5071 50.3671 35.3748 45.4839 34.8881V31.0171C52.5029 31.5164 58.0645 37.3723 58.0645 44.5161C58.0645 46.6365 57.5613 48.6377 56.6884 50.4261Z" fill="#2D3484"/>
<path d="M44.5164 38.7097C41.3142 38.7097 38.71 41.3139 38.71 44.5162C38.71 47.7184 41.3142 50.3226 44.5164 50.3226C47.7187 50.3226 50.3229 47.7184 50.3229 44.5162C50.3229 41.3139 47.7187 38.7097 44.5164 38.7097ZM44.5164 48.3871C42.3816 48.3871 40.6454 46.651 40.6454 44.5162C40.6454 42.3813 42.3816 40.6452 44.5164 40.6452C46.6513 40.6452 48.3874 42.3813 48.3874 44.5162C48.3874 46.651 46.6513 48.3871 44.5164 48.3871Z" fill="#2D3484"/>
<path d="M3.87109 10.6453H5.80658V12.5807H3.87109V10.6453Z" fill="#2D3484"/>
<path d="M7.74219 10.6453H21.2906V12.5807H7.74219V10.6453Z" fill="#2D3484"/>
<path d="M3.87109 14.5161H5.80658V16.4516H3.87109V14.5161Z" fill="#2D3484"/>
<path d="M7.74219 14.5161H21.2906V16.4516H7.74219V14.5161Z" fill="#2D3484"/>
<path d="M3.87109 18.3872H5.80658V20.3227H3.87109V18.3872Z" fill="#2D3484"/>
<path d="M7.74219 18.3872H21.2906V20.3227H7.74219V18.3872Z" fill="#2D3484"/>
<path d="M3.87109 22.2581H5.80658V24.1935H3.87109V22.2581Z" fill="#2D3484"/>
<path d="M7.74219 22.2581H21.2906V24.1935H7.74219V22.2581Z" fill="#2D3484"/>
<path d="M3.87109 41.613H9.67755V31.9355H3.87109V41.613ZM5.80658 33.871H7.74206V39.6775H5.80658V33.871Z" fill="#2D3484"/>
<path d="M11.6133 41.6128H17.4197V33.8708H11.6133V41.6128ZM13.5488 35.8063H15.4842V39.6773H13.5488V35.8063Z" fill="#2D3484"/>
<path d="M19.3545 41.613H25.1609V26.1292H19.3545V41.613ZM21.29 28.0646H23.2255V39.6775H21.29V28.0646Z" fill="#2D3484"/>
</svg>
