<svg width="60" height="60" viewBox="0 0 60 60" fill="none" xmlns="http://www.w3.org/2000/svg">
<path d="M59.8888 9.07481C58.973 2.77727 52.9082 -1.28001 46.8591 0.368362C45.4861 0.740677 44.2368 1.3787 43.1237 2.28244C42.7777 2.56247 42.6149 2.96184 42.8357 3.32938C42.9938 3.59191 43.3476 3.82421 43.6466 3.87512C43.8783 3.9149 44.1851 3.68897 44.4153 3.52031C46.5867 1.93559 48.9756 1.42962 51.5775 2.02628C56.0878 3.05889 59.045 7.78602 58.0603 12.3636C57.0286 17.1607 52.4746 20.2156 47.8563 19.21C42.3613 18.0135 39.4244 12.1567 41.7022 6.93956C42.0216 6.20766 41.9167 5.71124 41.3923 5.46462C40.8694 5.21959 40.4279 5.4694 40.096 6.20289C39.4839 7.55691 39.1645 8.98252 39.1692 10.467C39.1708 10.9284 38.9986 11.0891 38.615 11.2753C37.5787 11.7749 36.5141 12.2586 35.5795 12.9221C34.3694 13.7797 33.2751 14.8059 32.007 15.8624C31.816 15.6269 31.5906 15.2991 31.315 15.0207C29.6352 13.3198 27.7159 11.9722 25.4788 11.148C21.136 9.54577 16.9765 9.73193 13.1441 12.607C12.6134 13.0048 12.1328 13.4821 11.6725 13.9642C11.3218 14.3334 11.3657 14.8696 11.6975 15.1989C12.0482 15.5458 12.5022 15.5505 12.9093 15.2037C13.0298 15.1019 13.1316 14.9793 13.2427 14.8696C15.3796 12.7582 17.9565 11.8083 20.909 11.961C24.3078 12.1377 27.1883 13.5649 29.665 15.8894C30.0673 16.2665 30.4493 16.6659 30.8438 17.0493C31.9021 18.0788 32.4266 18.0836 33.477 17.0716C33.7604 16.7995 34.0249 16.5036 34.3177 16.2427C34.9032 15.7176 35.459 15.1448 36.1055 14.7089C37.1309 14.0183 38.2205 13.4233 39.3508 12.7486C40.2447 16.2268 42.1171 18.7025 45.1636 20.1647C48.207 21.6253 51.2754 21.4853 54.2984 20.0549C56.1692 24.9237 55.3582 31.4105 51.2378 35.716C47.2066 39.9276 43.1582 44.1217 39.1176 48.3222C38.9955 48.4479 38.8687 48.6388 38.7231 48.6627C37.4566 48.8696 36.1556 49.3151 34.922 49.175C32.1369 48.8584 29.3832 48.2506 26.6169 47.7558C25.8154 47.6126 25.3582 47.0525 25.4694 46.3795C25.5978 45.611 26.1113 45.288 26.9911 45.4058C28.3844 45.5919 29.7746 45.8131 31.1726 45.934C32.1761 46.0183 33.2187 46.1201 34.1956 45.9404C37.1936 45.3882 38.2456 42.0915 36.212 39.7812C35.4339 38.8982 34.4492 38.3477 33.3095 38.1058C32.3545 37.9038 31.3886 37.7622 30.4352 37.5505C27.9883 37.0096 25.5367 36.8489 23.0554 37.3119C20.8104 37.7303 18.5545 38.0883 16.3096 38.5068C15.9417 38.5752 15.735 38.467 15.5033 38.2188C14.7769 37.4408 14.0239 36.6913 13.2975 35.9133C9.61227 31.9706 8.42405 27.296 9.47294 22.0231C9.70464 20.8521 10.2087 19.7335 10.633 18.607C10.8835 17.9419 10.8193 17.463 10.334 17.2132C9.82518 16.9507 9.36179 17.1719 9.03303 17.8385C8.95476 17.9976 8.87648 18.1583 8.80603 18.3222C6.85696 22.9348 6.83818 27.5633 8.73402 32.1933C9.50738 34.082 10.6408 35.7383 12.0607 37.1894C12.6008 37.7415 13.1347 38.3015 13.7405 38.93C12.3895 39.1544 11.1684 39.3564 9.95825 39.5553C9.6655 38.5163 9.29134 38.2268 8.30194 38.2252C6.05542 38.222 3.81047 38.222 1.56395 38.2252C0.455565 38.2268 0.00156552 38.6913 0.00156552 39.8178C0 44.8202 0 49.8226 0 54.8234C0 55.9738 0.458696 56.4384 1.60622 56.44C3.7729 56.4431 5.94114 56.4416 8.10938 56.44C9.27725 56.44 9.54026 56.2586 9.98487 55.1353C10.0725 55.148 10.168 55.1512 10.2588 55.1766C15.3577 56.5879 20.4597 57.9785 25.5477 59.4264C27.9805 60.1186 30.3914 60.2427 32.8132 59.471C36.1243 58.4145 39.4291 57.3421 42.7355 56.2713C45.2231 55.4646 47.7154 54.6659 50.1936 53.8274C51.5728 53.3612 52.617 52.4766 53.107 51.0334C53.7285 49.2005 52.8487 47.3707 51.0202 46.8377C50.3627 46.6452 49.6222 46.5657 48.9459 46.6484C47.7702 46.7932 46.6133 47.1082 45.4485 47.3437C44.3088 47.5728 43.166 47.794 41.8885 48.0438C42.0983 47.8035 42.2048 47.6699 42.3237 47.5458C43.9597 45.8417 45.5988 44.1377 47.2363 42.4336C49.0523 40.5466 50.9482 38.7311 52.6671 36.755C57.0396 31.7256 58.0337 25.9563 56.0252 19.6142C55.8921 19.1941 55.9281 18.9682 56.2772 18.6723C57.8944 17.3039 59.0028 15.5792 59.5804 13.5171C59.7511 12.9109 59.8607 12.2856 59.9984 11.6683V9.52508C59.9609 9.37552 59.9092 9.22755 59.8873 9.07481H59.8888ZM8.10468 54.6134H1.80504V40.0438H8.10468V54.6134ZM47.2003 48.8123C47.8109 48.6898 48.4152 48.5179 49.0304 48.424C49.3889 48.3699 49.7725 48.3843 50.1325 48.4463C51.4773 48.677 51.9501 49.7972 51.2065 50.9587C50.7932 51.6062 50.1764 51.9658 49.4703 52.1965C44.7769 53.7303 40.0835 55.2657 35.3885 56.7948C34.313 57.1448 33.2297 57.4773 32.1463 57.8051C30.2849 58.3699 28.4141 58.3604 26.5449 57.8417C21.1298 56.3429 15.7147 54.8409 10.3011 53.3389C10.1712 53.3023 10.0475 53.2403 9.91598 53.1894C9.90816 53.0382 9.89407 52.8998 9.89407 52.7629C9.8925 49.1512 9.89876 45.5394 9.88467 41.9276C9.88311 41.5108 9.98956 41.3644 10.4201 41.2928C14.9037 40.5482 19.3842 39.7844 23.8616 39C26.022 38.6229 28.137 38.8918 30.2505 39.3373C31.052 39.506 31.8598 39.6444 32.6661 39.7892C33.5584 39.9499 34.3412 40.3206 34.9423 41.0239C35.985 42.2395 35.5576 43.8353 34.0077 44.1408C33.0762 44.3254 32.0727 44.2124 31.11 44.1265C29.7307 44.004 28.3625 43.7749 26.9864 43.6094C25.3755 43.4153 24.0683 44.3795 23.7739 45.9563C23.4765 47.5505 24.3594 49.0987 25.9077 49.4105C28.8133 49.9944 31.7283 50.5736 34.6637 50.9475C35.8629 51.1018 37.1403 50.7884 38.3599 50.5641C41.314 50.0199 44.254 49.4042 47.2003 48.8123Z" fill="#02A1F5"/>
<path d="M48.8863 28.0073C48.8441 28.5196 48.4824 28.814 47.8484 28.8172C45.8774 28.8235 43.9049 28.8474 41.9339 28.8013C41.3593 28.7885 41.0697 28.9874 40.8004 29.4743C40.0756 30.7885 39.3007 32.0725 38.5383 33.3661C37.9622 34.3446 37.2389 34.3351 36.7004 33.3391C35.3556 30.8554 34.0171 28.3685 32.6754 25.8848C32.5643 25.6795 32.4406 25.4807 32.2934 25.2277C31.2383 27.1004 30.2113 28.9222 29.1859 30.7424C29.117 30.8633 29.0528 30.9858 28.9808 31.102C28.5237 31.8339 27.8129 31.853 27.3464 31.1227C26.6795 30.0773 26.0361 29.0145 25.3175 27.8546C24.8588 28.6247 24.4032 29.3072 24.0353 30.0344C23.6753 30.744 23.179 31.0033 22.3915 30.9747C20.8323 30.919 19.2683 30.962 17.7059 30.9572C17.0093 30.9556 16.6273 30.6358 16.6226 30.0725C16.6179 29.5061 16.9983 29.1768 17.6903 29.1736C19.1353 29.1688 20.5802 29.1624 22.0252 29.1799C22.3587 29.1847 22.5528 29.0813 22.7203 28.7854C23.276 27.8052 23.8537 26.8395 24.4345 25.8768C24.9433 25.0352 25.6322 25.032 26.1613 25.8689C26.8032 26.884 27.4309 27.9071 28.1119 29.0017C28.256 28.7647 28.3702 28.5928 28.4704 28.413C29.4504 26.6772 30.4305 24.9397 31.4058 23.2006C31.6156 22.8251 31.8426 22.4926 32.3326 22.4974C32.8226 22.5021 33.0417 22.8442 33.2453 23.2213C34.5838 25.7066 35.9254 28.1919 37.2671 30.6772C37.3782 30.8824 37.4909 31.0877 37.6522 31.382C38.3989 30.1107 39.1019 28.9461 39.7688 27.7591C40.0631 27.2325 40.4435 27.0161 41.0462 27.0224C43.31 27.0495 45.5753 27.0304 47.8406 27.0352C48.5466 27.0367 48.9364 27.4059 48.8863 28.0073Z" fill="#02A1F5"/>
<path d="M52.9848 11.4632C52.1692 11.4839 51.3535 11.468 50.4675 11.468C50.4675 12.1855 50.4675 12.8347 50.4659 13.4839C50.4659 13.7209 50.4769 13.9612 50.444 14.1951C50.3704 14.7122 49.9884 15.0495 49.5235 14.997C49.0319 14.9413 48.7376 14.647 48.7219 14.1378C48.7016 13.4234 48.6906 12.709 48.7188 11.9962C48.7344 11.5698 48.581 11.4473 48.1802 11.4632C47.518 11.4902 46.8527 11.4807 46.1905 11.4632C45.6175 11.4489 45.2621 11.1227 45.2371 10.6294C45.212 10.1139 45.5721 9.71616 46.1607 9.69548C46.9764 9.66684 47.7951 9.68752 48.7094 9.68752C48.7094 9.03199 48.7094 8.42738 48.7094 7.82277C48.7094 7.56501 48.6984 7.30566 48.7188 7.0495C48.7579 6.51171 49.0851 6.18553 49.5689 6.18076C50.0542 6.1744 50.4127 6.48148 50.444 7.02404C50.4847 7.69707 50.4612 8.37169 50.4659 9.04631V9.68434C51.316 9.68434 52.0909 9.68116 52.8674 9.68434C53.3574 9.68593 53.7597 9.84504 53.8944 10.3781C54.04 10.9604 53.6376 11.4457 52.9832 11.4616L52.9848 11.4632Z" fill="#02A1F5"/>
</svg>
