<svg width="61" height="60" viewBox="0 0 61 60" fill="none" xmlns="http://www.w3.org/2000/svg">
<path d="M60.9591 27.0845C60.5166 31.9044 56.8963 35.7291 52.1611 36.3584C51.5926 36.4341 51.0115 36.4483 50.4368 36.4499C46.6259 36.4578 42.8151 36.4546 39.0027 36.4531C37.9791 36.4531 37.4579 36.0919 37.4516 35.3853C37.4437 34.6724 37.9587 34.3081 38.9854 34.3081C42.8765 34.3081 46.7677 34.3207 50.6572 34.3033C54.594 34.286 57.7577 31.7972 58.6332 28.0687C59.8127 23.0421 55.9341 18.1875 50.7801 18.2411C50.662 18.2427 50.5423 18.2506 50.4242 18.2506C49.5219 18.2474 49.0857 17.7537 49.1471 16.8563C49.5124 11.4954 47.5062 7.24167 43.034 4.28757C36.8989 0.234156 28.597 2.08579 24.6302 8.29051C24.5861 8.35833 24.5452 8.42458 24.5011 8.4924C23.898 9.41664 23.246 9.48761 22.4681 8.71163C20.895 7.14231 18.9974 6.38052 16.7787 6.44834C11.9443 6.59817 8.46885 11.5727 9.97744 16.175C10.0278 16.3264 10.0798 16.4762 10.1302 16.626C10.4514 17.585 10.1396 18.1244 9.15228 18.2868C5.99024 18.8089 3.72894 20.5091 2.63451 23.5373C0.718073 28.8478 4.5478 34.2308 10.2451 34.3018C12.8261 34.3333 15.4071 34.3065 17.9865 34.3081C18.1849 34.3081 18.3849 34.3033 18.5817 34.3207C19.1848 34.3791 19.6021 34.8002 19.6147 35.3538C19.6273 35.9026 19.2195 36.4247 18.6258 36.42C15.215 36.3963 11.7773 36.584 8.40114 36.2196C4.13522 35.7591 0.754292 32.0858 0.118104 27.8337C0.0929086 27.6602 0.039368 27.4914 0 27.3195V25.1729C0.311795 24.1115 0.51021 22.9979 0.96058 21.9996C2.23296 19.1811 4.42969 17.3689 7.3823 16.4715C7.4941 16.4368 7.60433 16.3958 7.73031 16.3532C6.91933 11.6358 8.33658 7.83786 12.5789 5.48467C16.2401 3.45481 19.8399 4.00525 23.1815 6.42626C28.2804 0.475468 34.4644 -1.60486 41.9474 1.29561C44.9158 2.4454 47.2039 4.52888 48.9203 7.21328C50.6368 9.89769 51.4241 12.8502 51.3501 16.0094C52.2131 16.1986 53.0571 16.3185 53.8618 16.5693C58.3954 17.9856 61.3858 22.4349 60.9591 27.0845Z" fill="#02A1F5"/>
<path d="M42.5317 17.238C40.59 16.8359 38.5492 17.9131 37.8091 19.8089C37.6185 20.2962 37.3792 20.3988 36.9115 20.3956C33.9542 20.3767 30.9968 20.3909 28.0395 20.383C27.5498 20.3814 27.0947 20.4618 26.8978 20.9508C26.7781 21.2504 26.7608 21.6069 26.7592 21.9381C26.7529 30.7831 26.7545 39.6296 26.7545 48.4746V49.2553H5.37925V45.9542C5.5446 45.8911 5.69419 45.8391 5.84064 45.7791C7.67677 45.0394 8.81372 43.1215 8.52082 41.2604C8.18855 39.1549 6.62013 37.6833 4.55882 37.5414C2.55892 37.4057 0.768464 38.6533 0.176369 40.5949C0.119679 40.7841 0.0582647 40.9718 0 41.1595V42.4717C0.318094 43.6814 0.889718 44.7256 1.98572 45.3959C2.36996 45.6293 2.79198 45.7996 3.21243 46.0062V49.8247C3.21243 51.1716 3.47699 51.4413 4.7966 51.4413C12.2986 51.4413 19.8006 51.4413 27.3025 51.4397C27.5009 51.4397 27.7009 51.4476 27.8978 51.4287C28.4411 51.3766 28.7702 51.0722 28.8552 50.5344C28.8946 50.282 28.8898 50.0202 28.8898 49.7631C28.8914 40.956 28.8898 32.1505 28.8898 23.345V22.5579H37.5918C37.6563 22.7314 37.7146 22.897 37.7823 23.0611C38.5744 24.9837 40.5806 26.0515 42.6214 25.6367C44.5489 25.2455 45.9787 23.4853 45.9929 21.4886C46.0086 19.3988 44.5977 17.6655 42.5317 17.238ZM4.25332 43.9354C3.08016 43.9243 2.14477 42.9812 2.1432 41.8093C2.1432 40.6169 3.11795 39.6501 4.30529 39.6659C5.46586 39.6817 6.41857 40.6422 6.42329 41.8014C6.42644 42.9859 5.45011 43.9464 4.25332 43.9354ZM41.727 23.5942C40.5538 23.5942 39.5617 22.5848 39.5838 21.4161C39.6058 20.219 40.579 19.2916 41.7852 19.3152C42.9584 19.3373 43.8639 20.2852 43.8529 21.4744C43.8418 22.6463 42.8891 23.5957 41.727 23.5942Z" fill="#02A1F5"/>
<path d="M57.9955 41.8502C57.7262 41.7982 57.4427 41.7982 57.1672 41.7982C50.1597 41.795 43.1521 41.7966 36.1446 41.7966H35.3699C35.3415 41.6468 35.3053 41.5521 35.3053 41.4575C35.3021 38.7936 35.31 36.1297 35.2927 33.4658C35.2896 33.0778 35.521 33.0242 35.7809 32.9201C37.7162 32.1473 38.8122 30.1931 38.4516 28.1775C38.091 26.1728 36.3336 24.6934 34.2928 24.6761C32.2299 24.6587 30.4583 26.075 30.0457 28.0702C29.6269 30.0938 30.7008 32.1205 32.655 32.8949C33.0629 33.0557 33.1747 33.2545 33.1716 33.6661C33.1558 36.5698 33.1621 39.4718 33.1637 42.3754C33.1637 43.653 33.4566 43.9416 34.7478 43.9416C42.2514 43.9432 49.7549 43.9432 57.2585 43.9416C57.4774 43.9416 57.6978 43.9463 57.912 43.9195C58.4458 43.8501 58.8175 43.4385 58.8395 42.9196C58.86 42.3991 58.5277 41.9559 57.9955 41.8502ZM34.2313 31.0921C33.0487 31.089 32.0834 30.1001 32.1039 28.9109C32.1244 27.7327 33.0629 26.8132 34.2424 26.8163C35.4234 26.8179 36.3541 27.7406 36.3635 28.9219C36.3761 30.1221 35.4187 31.0969 34.2313 31.0921Z" fill="#02A1F5"/>
<path d="M43.837 55.5451C43.7504 55.012 43.3174 54.6682 42.667 54.6603C41.5978 54.6461 40.5301 54.6571 39.464 54.6571C38.7538 52.6588 37.4106 51.4633 35.3005 51.4664C33.1919 51.4696 31.855 52.673 31.1479 54.6555H5.91456C5.71615 54.6555 5.51773 54.6461 5.32089 54.665C4.69101 54.7297 4.27528 55.1776 4.28788 55.7596C4.30047 56.3447 4.73352 56.7627 5.36971 56.7974C5.56813 56.8084 5.76654 56.8021 5.96496 56.8021H31.14C31.8502 58.7705 33.1557 59.9865 35.28 59.9991C37.4358 60.0117 38.757 58.7878 39.475 56.8005C40.5726 56.8005 41.6639 56.8147 42.7536 56.7942C43.4953 56.7816 43.9488 56.2343 43.837 55.5451ZM35.2737 57.8699C34.1052 57.8557 33.1699 56.9062 33.1714 55.7328C33.1714 54.5499 34.1651 53.5673 35.3398 53.5894C36.5051 53.6114 37.4358 54.5656 37.4326 55.7391C37.431 56.9441 36.4799 57.8825 35.2737 57.8699Z" fill="#02A1F5"/>
<path d="M24.6333 30.966C24.6427 30.0292 24.3971 29.3052 23.7751 28.6002C22.3736 27.0057 21.0461 25.3464 19.7013 23.7282C20.7563 21.2978 20.3248 19.2269 18.5218 17.9494C16.8715 16.7807 14.6417 16.9273 13.1441 18.3058C11.6639 19.6669 11.3285 21.9239 12.3882 23.6446C13.6449 25.6808 15.9865 26.2675 18.1454 25.2108C19.4461 26.7738 20.7469 28.351 22.0665 29.9109C22.3531 30.2468 22.4901 30.5812 22.4869 31.0338C22.4696 34.3744 22.4775 37.7149 22.4775 41.0554V41.7967H21.7374C19.991 41.7967 18.2446 41.7935 16.4967 41.7998C16.2416 41.7998 15.9723 41.803 15.7314 41.8771C15.2133 42.0348 14.9598 42.4181 15.0007 42.9638C15.0401 43.4796 15.333 43.806 15.8385 43.907C16.051 43.9496 16.2731 43.9417 16.492 43.9417C18.695 43.9433 20.8996 43.9433 23.1027 43.9417C24.301 43.9417 24.6144 43.6247 24.6144 42.4181C24.6144 38.6013 24.5908 34.7829 24.6333 30.966ZM16.0196 23.6099C14.8417 23.5342 13.9 22.5958 13.922 21.3877C13.9441 20.2127 14.8889 19.3026 16.0762 19.3136C17.2463 19.3247 18.1533 20.2852 18.2084 21.4397C18.2494 22.3293 16.9219 23.6667 16.0196 23.6099Z" fill="#02A1F5"/>
<path d="M57.767 55.7975C57.7356 56.3354 57.3309 56.7423 56.7655 56.7928C56.5892 56.8085 56.4096 56.8022 56.2301 56.8022C53.7295 56.8022 51.2288 56.7675 48.7281 56.8211C47.8274 56.8416 47.3172 56.5152 46.8967 55.736C45.8102 53.7298 44.637 51.7694 43.5253 49.7758C43.3237 49.4162 43.108 49.2805 42.6938 49.2837C39.8955 49.3026 37.0973 49.2979 34.299 49.2884C33.6392 49.2868 33.2156 48.8878 33.1809 48.2964C33.1463 47.6907 33.573 47.2286 34.2344 47.1623C34.3919 47.1466 34.5525 47.1545 34.7115 47.1545H39.0578C40.5664 47.1545 42.0749 47.1671 43.5835 47.1497C44.204 47.1418 44.6228 47.3784 44.9315 47.9289C46.0763 49.9729 47.2621 51.9933 48.3975 54.0421C48.6478 54.4948 48.9092 54.6793 49.4478 54.6714C51.7311 54.6351 54.0129 54.6556 56.2963 54.6572C56.4931 54.6572 56.6962 54.6493 56.8884 54.6888C57.4395 54.7976 57.7985 55.2629 57.767 55.7975Z" fill="#02A1F5"/>
</svg>
