<svg width="26" height="30" viewBox="0 0 26 30" fill="none" xmlns="http://www.w3.org/2000/svg">
<path d="M24.8393 21.2109C25.4806 21.2109 26 20.6865 26 20.0391V15.7031C26 13.1186 23.9171 11.0156 21.3571 11.0156H19.962V6.88301C19.962 3.0873 16.8379 0 12.9977 0C9.15746 0 6.03339 3.0873 6.03339 6.88301V11.0156H4.64286C2.0829 11.0156 0 13.1186 0 15.7031V25.3125C0 27.8971 2.0829 30 4.64286 30H21.3571C23.9171 30 26 27.8971 26 25.3125C26 24.665 25.4806 24.1406 24.8393 24.1406C24.198 24.1406 23.6786 24.665 23.6786 25.3125C23.6786 26.6051 22.6374 27.6562 21.3571 27.6562H4.64286C3.36259 27.6562 2.32143 26.6051 2.32143 25.3125V15.7031C2.32143 14.4105 3.36259 13.3594 4.64286 13.3594H21.3571C22.6374 13.3594 23.6786 14.4105 23.6786 15.7031V20.0391C23.6786 20.6865 24.198 21.2109 24.8393 21.2109ZM17.6405 11.0156H8.35482V6.88301C8.35482 4.38047 10.4377 2.34375 12.9977 2.34375C15.5576 2.34375 17.6405 4.37988 17.6405 6.88301V11.0156Z" fill="black"/>
</svg>
