<svg width="147" height="45" viewBox="0 0 147 45" fill="none" xmlns="http://www.w3.org/2000/svg">
<path d="M0 14.79L13.0622 1.53H26.4996L13.2423 14.79L26.3495 27.87H13.0021L0 14.79Z" fill="#2D3484"/>
<path d="M47.234 29.97L34.1719 43.23H20.7344L33.9767 29.97L20.8845 16.875H34.2319L47.234 29.97Z" fill="#2D3484"/>
<path d="M33.8864 0L47.0236 13.05L20.9443 12.99L33.8864 0Z" fill="#F15B28"/>
<path d="M13.2726 45L0.150391 31.95L26.2146 32.01L13.2726 45Z" fill="#F15B28"/>
<path d="M81.0001 35.52C80.2201 36.915 79.0501 38.04 77.4601 38.91C75.8701 39.78 73.9201 40.215 71.5951 40.215C69.2701 40.215 67.3201 39.81 65.5501 38.985C63.7801 38.16 62.3851 37.035 61.3351 35.595C60.2851 34.155 59.6701 32.52 59.5201 30.675H64.2301C64.3201 31.65 64.6651 32.595 65.2201 33.51C65.7901 34.425 66.6001 35.19 67.6501 35.79C68.7001 36.39 69.9751 36.69 71.4601 36.69C72.9451 36.69 74.8951 36.18 75.9301 35.145C76.9651 34.11 77.4751 32.79 77.4751 31.17C77.4751 29.55 77.1151 28.65 76.3801 27.78C75.6451 26.91 74.7601 26.22 73.6801 25.725C72.6151 25.23 71.1601 24.675 69.3151 24.105C67.1551 23.4 65.4151 22.725 64.0951 22.095C62.7901 21.465 61.6651 20.52 60.7501 19.26C59.8351 18 59.3701 16.335 59.3701 14.265C59.3701 12.195 59.8051 10.92 60.6601 9.55499C61.5151 8.18999 62.7451 7.13999 64.3501 6.40499C65.9551 5.65499 67.8301 5.29498 70.0051 5.29498C73.3651 5.29498 76.0351 6.10498 78.0151 7.73998C79.9801 9.37498 81.1351 11.445 81.4651 13.98H76.7101C76.4551 12.615 75.7501 11.43 74.6251 10.395C73.5001 9.35998 71.9551 8.84998 70.0201 8.84998C68.0851 8.84998 66.8251 9.31499 65.7451 10.23C64.6651 11.145 64.1401 12.45 64.1401 14.13C64.1401 15.81 64.4851 16.53 65.1901 17.355C65.8801 18.18 66.7501 18.825 67.7851 19.29C68.8201 19.755 70.2451 20.28 72.0601 20.865C74.2651 21.57 76.0351 22.26 77.3701 22.905C78.7051 23.55 79.8451 24.525 80.7901 25.845C81.7351 27.15 82.2001 28.89 82.2001 31.065C82.2001 33.24 81.8101 34.185 81.0301 35.58L81.0001 35.52Z" fill="#2D3484"/>
<path d="M88.1248 3.47998C88.6798 2.98498 89.3998 2.72998 90.3148 2.72998C91.2298 2.72998 91.9498 2.98498 92.5048 3.47998C93.0598 3.97498 93.3298 4.63498 93.3298 5.44498C93.3298 6.25498 93.0598 6.91498 92.5048 7.40998C91.9498 7.90498 91.2298 8.15998 90.3148 8.15998C89.3998 8.15998 88.6798 7.90498 88.1248 7.40998C87.5698 6.91498 87.2998 6.25498 87.2998 5.44498C87.2998 4.63498 87.5698 3.97498 88.1248 3.47998Z" fill="#F15B28"/>
<path d="M92.4901 13.26H88.0801V39.9H92.4901V13.26Z" fill="#2D3484"/>
<path d="M106.44 8.15999C105.525 8.99999 105.06 10.455 105.06 12.525V13.26H111.36V17.145H105.06V39.9H100.65V17.145H96.8252V13.26H100.65V12.195C100.65 5.81998 104.22 2.78998 111.375 3.07498V6.95999C109.02 6.92999 107.37 7.33498 106.455 8.17498L106.44 8.15999Z" fill="#2D3484"/>
<path d="M128.88 36.015V39.9H125.58C122.865 39.9 120.84 39.255 119.49 37.965C118.155 36.675 117.48 34.5 117.48 31.47V17.115H113.505V13.275H117.48V6.63H121.95V13.275H128.835V17.115H121.95V31.575C121.95 33.285 122.265 34.455 122.895 35.085C123.525 35.715 124.62 36.03 126.165 36.03H128.88V36.015Z" fill="#2D3484"/>
<path d="M146.325 36.015V39.9H143.025C140.31 39.9 138.285 39.255 136.935 37.965C135.6 36.675 134.925 34.5 134.925 31.47V17.115H130.95V13.275H134.925V6.63H139.395V13.275H146.28V17.115H139.395V31.575C139.395 33.285 139.71 34.455 140.34 35.085C140.97 35.715 142.065 36.03 143.61 36.03H146.325V36.015Z" fill="#2D3484"/>
</svg>
