<svg width="30" height="22" viewBox="0 0 30 22" fill="none" xmlns="http://www.w3.org/2000/svg">
<path d="M29.9996 3.29972C29.9987 1.28726 28.723 0 26.7284 0C18.9122 0 11.0959 0 3.27963 0C1.28079 0 0 1.28555 0 3.29032C0 8.42739 0 13.5636 0 18.6998C0 20.7106 1.27739 21.9995 3.27114 21.9995H14.9951C18.9139 21.9995 22.8326 22.0021 26.7514 21.9953C27.0764 21.9944 27.4117 21.9705 27.7249 21.8885C29.1126 21.5237 29.997 20.3296 29.9979 18.8365C30.0013 13.6576 29.9996 8.47864 29.9996 3.29972ZM1.61859 2.55401C1.84267 1.93815 2.40285 1.53753 3.08865 1.53668C4.84644 1.53241 6.60424 1.53497 8.36203 1.53497H15.0002C18.9504 1.53497 22.8997 1.53412 26.849 1.53497C27.595 1.53582 28.1544 1.9091 28.3929 2.5412C28.4828 2.78123 28.4531 2.92815 28.2231 3.09215C24.0642 6.06386 19.9129 9.04667 15.759 12.0252C15.5103 12.2029 15.2523 12.501 14.9985 12.5001C14.7456 12.4993 14.4884 12.2003 14.2397 12.0218C10.0876 9.04069 5.9388 6.05532 1.78071 3.08104C1.55918 2.92302 1.53626 2.78037 1.61859 2.55401ZM28.4743 5.14305C28.4743 9.68389 28.4743 14.2239 28.4735 18.7647C28.4735 19.8478 27.8573 20.4646 26.776 20.4646C18.9266 20.4654 11.0772 20.4654 3.22785 20.4646C2.1321 20.4646 1.52523 19.8487 1.52523 18.7374C1.52438 14.2077 1.52523 9.67791 1.52523 5.14817V4.78343C1.69668 4.90217 1.82484 4.98758 1.95046 5.07727C6.10262 8.0618 10.2548 11.0463 14.4078 14.0308C14.8746 14.3665 15.1224 14.37 15.5859 14.0368C19.7728 11.0292 23.9598 8.01909 28.1467 5.01065C28.2384 4.94488 28.3335 4.88423 28.4743 4.79027V5.14305Z" fill="#02A1F5"/>
</svg>
