<svg width="64" height="61" viewBox="0 0 64 61" fill="none" xmlns="http://www.w3.org/2000/svg">
<path d="M63.883 15.7258C63.5873 14.8053 62.8102 14.4111 61.5068 14.4111C46.583 14.4111 31.6591 14.4077 16.7369 14.4244C16.1604 14.4244 15.9114 14.2874 15.7727 13.6994C14.9172 10.0758 14.0182 6.46229 13.1325 2.84541C12.8167 1.55069 12.1199 1.00106 10.7714 0.999388C8.24982 0.997718 5.72825 0.997718 3.20668 1.00106C2.9577 1.00273 2.70538 1.02111 2.46141 1.06454C1.14632 1.29843 0.446162 2.19722 0 3.36497V4.61626C0.621619 6.40549 1.90162 7.1038 3.75812 7.00524C5.14674 6.93173 6.54371 6.99187 7.94068 6.99187C8.00585 7.2174 8.06433 7.39282 8.10778 7.57157C10.9886 19.7169 13.8678 31.8623 16.7469 44.0093C16.9892 45.03 17.1948 45.2021 18.2425 45.2021C30.7066 45.2021 43.1708 45.2021 55.6332 45.2004C55.8621 45.2004 56.0978 45.2021 56.3167 45.1453C56.828 45.015 57.082 44.6608 57.0536 44.1346C57.0252 43.6351 56.7444 43.321 56.2532 43.2391C55.9875 43.194 55.7134 43.204 55.4427 43.204C44.917 43.2024 34.3912 43.2024 23.8655 43.2024C23.6783 43.2024 23.4845 43.2274 23.304 43.1907C23.1887 43.1656 23.0199 43.0704 22.9949 42.9752C22.7576 42.0964 22.5471 41.211 22.3131 40.2588H23.1419C34.2308 40.2588 45.3197 40.2604 56.4069 40.2588C57.8757 40.2588 58.5341 39.7442 58.875 38.3142C60.5727 31.2124 62.2705 24.1106 63.9449 17.0022C64.0401 16.6012 64.01 16.1201 63.883 15.7258ZM27.2961 30.5842H21.5845C20.4794 30.5842 19.796 30.0469 19.5342 28.9721C19.1666 27.4602 18.8023 25.9483 18.423 24.3846H26.489C26.7547 26.4211 27.0187 28.4525 27.2961 30.5842ZM17.011 16.4141C19.6345 16.4108 22.258 16.4208 24.8831 16.4024C25.3193 16.4008 25.4897 16.5043 25.5415 16.9754C25.7337 18.7296 25.9827 20.4787 26.2183 22.288H17.905C17.4337 20.3768 16.9608 18.4473 16.4746 16.4676C16.6968 16.4442 16.8539 16.4141 17.011 16.4141ZM18.9276 43.179C18.7722 43.1656 18.555 42.8966 18.5099 42.7112C17.6677 39.2547 16.8455 35.7949 16.0251 32.335C13.9647 23.6328 11.9077 14.9306 9.84731 6.2284C9.59165 5.14919 9.38277 4.99048 8.25984 4.99048C6.55206 4.99048 4.84261 4.99549 3.13483 4.98714C2.41629 4.9838 2.00355 4.62629 1.98517 4.03155C1.96512 3.40507 2.38789 3.00412 3.12648 3.00245C5.14674 2.99911 7.167 3.01248 9.18893 3.01749C9.81222 3.01916 10.4355 3.01749 11.1139 3.01749C14.3942 16.3891 17.666 29.7306 20.9679 43.2007C20.2093 43.2007 19.566 43.2324 18.9276 43.179ZM27.8559 38.2574C25.8607 38.259 23.8672 38.259 21.8185 38.259C21.3606 36.3863 20.9078 34.5402 20.4449 32.6525C20.6454 32.6241 20.7825 32.589 20.9195 32.589C22.9581 32.584 24.9968 32.5873 27.0354 32.5823C27.3195 32.5823 27.5685 32.5739 27.6152 32.9615C27.8258 34.6939 28.0514 36.423 28.2803 38.229C28.0982 38.2407 27.9779 38.2574 27.8559 38.2574ZM28.175 21.9154C27.9745 20.1797 27.7422 18.4473 27.525 16.7132C27.515 16.6346 27.5417 16.5528 27.5551 16.4442H38.146V22.3047C37.9488 22.3181 37.7684 22.3398 37.5862 22.3398C34.6703 22.3431 31.7544 22.3398 28.8384 22.3431C28.5193 22.3431 28.2302 22.3815 28.175 21.9154ZM28.5092 24.393H38.1477V30.5425H29.3097C29.0423 28.4843 28.7799 26.4662 28.5092 24.393ZM38.1493 38.2223H30.3039C30.0633 36.3679 29.8277 34.5386 29.582 32.6441H38.1493V38.2223ZM48.1989 38.2256H40.2147V32.6291H48.8188C48.6116 34.4918 48.4077 36.3395 48.1989 38.2256ZM49.0544 30.5492H40.2248V24.3863H49.7512C49.5173 26.4612 49.2867 28.4976 49.0544 30.5492ZM49.5841 22.3465C46.5228 22.3348 43.4598 22.3348 40.3985 22.3298C40.3601 22.3298 40.3217 22.303 40.2331 22.2713V16.4442H50.6352C50.5049 17.6637 50.3779 18.8549 50.2475 20.046C50.179 20.6658 50.0888 21.2856 50.037 21.9071C50.0119 22.2145 49.91 22.3465 49.5841 22.3465ZM56.8163 38.2072H50.2158C50.4113 36.4297 50.5968 34.6923 50.8073 32.9599C50.8223 32.8262 51.0078 32.6057 51.1148 32.6057C53.4425 32.5856 55.7702 32.589 58.1665 32.589C57.7086 34.4968 57.2675 36.3295 56.8163 38.2072ZM58.6561 30.5441H51.0814C51.3069 28.496 51.5325 26.4495 51.7615 24.3696H60.1316C59.6353 26.4478 59.149 28.4809 58.6561 30.5441ZM60.8652 21.3491C60.6262 22.3431 60.6212 22.3414 59.5835 22.3414H51.9987C52.2227 20.3434 52.4399 18.4138 52.6588 16.4576H62.0315C61.6338 18.1282 61.2528 19.7403 60.8652 21.3491Z" fill="#02A1F5"/>
<path d="M52.4047 46.9679C48.5814 46.9445 45.4248 50.0652 45.3981 53.8892C45.373 57.7968 48.4845 60.976 52.3579 60.9977C56.223 61.0194 59.4046 57.8987 59.4246 54.063C59.4464 50.112 56.3583 46.9913 52.4047 46.9679ZM52.4064 59.0013C49.6575 59.008 47.405 56.7527 47.4 53.9861C47.395 51.2096 49.6074 48.9827 52.3863 48.966C55.1635 48.9509 57.4177 51.1712 57.4244 53.931C57.4311 56.7376 55.197 58.993 52.4064 59.0013Z" fill="#02A1F5"/>
<path d="M21.3622 46.9679C17.5339 46.9445 14.3974 50.0435 14.3573 53.8859C14.3172 57.7901 17.427 60.971 21.3071 60.9977C25.1621 61.0244 28.3621 57.892 28.3889 54.0663C28.4173 50.1354 25.3042 46.9913 21.3622 46.9679ZM21.3472 59.0013C18.6 59.0013 16.3575 56.7427 16.3575 53.9728C16.3575 51.2029 18.5683 48.976 21.3522 48.966C24.1211 48.9576 26.3853 51.1962 26.3886 53.9444C26.392 56.731 24.1294 59.0013 21.3472 59.0013Z" fill="#02A1F5"/>
</svg>
