<svg width="53" height="60" viewBox="0 0 53 60" fill="none" xmlns="http://www.w3.org/2000/svg">
<g clip-path="url(#clip0_415_207)">
<path fill-rule="evenodd" clip-rule="evenodd" d="M51.38 24.22H9.64L49.73 12.61C49.97 12.54 50.17 12.38 50.28 12.16C50.36 12.03 50.4 11.87 50.4 11.72L50.36 11.46L48.35 4.53C47.58 1.86 45.1 0 42.32 0C41.73 0 41.15 0.08 40.58 0.25L4.53 10.69C2.92 11.16 1.6 12.22 0.78 13.69C0.26 14.64 0 15.67 0 16.72C0 17.3 0.08 17.89 0.25 18.46L2.22 25.27V53.23C2.22 54.96 2.92 56.52 4.06 57.66C5.2 58.8 6.76 59.5 8.49 59.5H22.57C23.08 59.5 23.5 59.09 23.5 58.58C23.5 58.07 23.08 57.66 22.57 57.66H8.49C6.05 57.66 4.07 55.67 4.07 53.23V37.03H50.46V53.23C50.46 55.67 48.47 57.66 46.03 57.66H31.95C31.44 57.66 31.03 58.07 31.03 58.58C31.03 59.09 31.44 59.5 31.95 59.5H46.03C47.76 59.5 49.33 58.8 50.46 57.66C51.6 56.52 52.3 54.96 52.3 53.23V25.14C52.3 24.63 51.89 24.22 51.38 24.22V24.22ZM41.1 2.02C41.49 1.9 41.91 1.84 42.32 1.84C43.3 1.84 44.23 2.17 44.98 2.73C45.73 3.3 46.31 4.1 46.58 5.04L48.33 11.09L43.24 12.57L43.13 12.44L42.99 12.27L34.35 3.97L41.1 2.02V2.02ZM32.34 4.55L32.45 4.68L32.59 4.84L41.24 13.15L34.42 15.12L34.31 15L34.17 14.83L25.53 6.53L32.34 4.55V4.55ZM23.52 7.11L23.63 7.23L23.77 7.39L32.42 15.7L25.6 17.68L25.49 17.55L25.35 17.38L16.71 9.08L23.52 7.11V7.11ZM14.7 9.66L14.81 9.79L14.95 9.96L23.6 18.26L16.78 20.23L16.67 20.11L16.54 19.95L16.52 19.93L7.89 11.64L14.7 9.66V9.66ZM3.77 24L2.02 17.95C1.9 17.54 1.84 17.13 1.84 16.72C1.84 15.98 2.03 15.25 2.4 14.58C2.97 13.55 3.91 12.79 5.04 12.46L5.88 12.22L5.99 12.34L6.13 12.51L14.78 20.81L3.77 24V24ZM4.07 35.19V26.06H15.06L9.79 35.19H4.07V35.19ZM11.92 35.19L17.19 26.06H24.24L18.97 35.19H11.92V35.19ZM21.1 35.19L26.37 26.06H33.42L28.16 35.19H21.1V35.19ZM30.28 35.19L35.55 26.06H42.61L37.34 35.19H30.28V35.19ZM50.46 35.19H39.47L44.73 26.06H50.46V35.19V35.19Z" fill="#02A1F5"/>
<path fill-rule="evenodd" clip-rule="evenodd" d="M34.65 46.43L24.36 40.48C24.22 40.4 24.06 40.36 23.9 40.36C23.74 40.36 23.58 40.4 23.44 40.48C23.15 40.65 22.98 40.95 22.98 41.28V53.17C22.98 53.5 23.15 53.8 23.44 53.97C23.58 54.05 23.74 54.09 23.9 54.09C24.06 54.09 24.22 54.05 24.36 53.97L34.65 48.02C34.94 47.86 35.12 47.55 35.12 47.22C35.12 46.89 34.94 46.59 34.65 46.43V46.43ZM25.19 51.36L24.82 51.57V42.88L32.35 47.22L25.19 51.36V51.36Z" fill="#02A1F5"/>
<path fill-rule="evenodd" clip-rule="evenodd" d="M28.1801 58.58C28.1801 59.08 27.7701 59.5 27.2601 59.5C26.7501 59.5 26.3401 59.08 26.3401 58.58C26.3401 58.08 26.7601 57.66 27.2601 57.66C27.7601 57.66 28.1801 58.07 28.1801 58.58Z" fill="#02A1F5"/>
</g>
<defs>
<clipPath id="clip0_415_207">
<rect width="52.3" height="59.5" fill="white"/>
</clipPath>
</defs>
</svg>
