<svg width="57" height="60" viewBox="0 0 57 60" fill="none" xmlns="http://www.w3.org/2000/svg">
<g clip-path="url(#clip0_415_211)">
<path d="M44.59 24.76C44.59 24.76 44.5701 24.76 44.5601 24.76C43.3201 24.72 42.03 24.32 40.68 23.9C38.17 23.12 35.3301 22.23 32.1301 23.52C31.5101 23.77 30.8 23.29 30.8 22.62V13.56C30.8 13.3 30.9 13.06 31.08 12.88C36.03 7.92004 40.5001 10.77 44.8301 13.53C48.0001 15.55 51.2701 17.63 55.0201 17.08C55.7801 16.97 56.3701 17.79 56.0201 18.47C55.2401 20 54.11 21.35 51.41 21.31C51.89 21.9 52.4901 22.96 51.3601 23.33C49.6601 23.89 48.0901 23.4 46.5801 22.66C46.7301 22.97 46.85 23.3 46.85 23.68C46.85 24.8 45.37 24.75 44.59 24.75V24.76ZM35.5 20.92C37.65 20.92 39.58 21.52 41.25 22.04C42.43 22.41 43.5401 22.75 44.4901 22.81C44.2001 22.18 43.9601 21.32 44.5201 20.4C44.8701 19.83 45.52 19.87 46.03 20.17C47.14 20.78 48.1601 21.34 49.1301 21.54L48.37 20.6C47.8 19.9 48.47 18.84 49.35 19.05C51.25 19.51 52.35 19.41 53.05 19.05C49.56 18.8 46.5201 16.87 43.7901 15.13C39.2701 12.25 36.27 10.63 32.73 13.94V21.25C33.69 21 34.62 20.89 35.51 20.89L35.5 20.92Z" fill="#02A1F5"/>
<path d="M11.5 24.73C10.92 24.73 10.04 24.7 9.58997 24.29C9.10997 23.85 9.26997 23.16 9.49997 22.65C8.01997 23.4 6.41997 23.87 4.71997 23.21C3.64997 22.8 4.23997 21.79 4.71997 21.2C2.01997 21.24 0.889972 19.9 0.109972 18.36C-0.240028 17.67 0.359972 16.85 1.10997 16.97C4.79997 17.51 8.03997 15.44 11.18 13.44C15.53 10.67 20.02 7.80003 25.05 12.76C25.23 12.94 25.34 13.19 25.34 13.45V22.51C25.34 23.19 24.63 23.66 24 23.4C20.9 22.12 18.22 22.98 15.63 23.82C14.2 24.28 12.83 24.73 11.5 24.73V24.73ZM11.6 20.3C12.25 21.21 11.89 22.16 11.59 22.79C12.59 22.77 13.75 22.39 15.03 21.98C17.36 21.23 20.19 20.31 23.39 21.16V13.86C19.78 10.53 16.77 12.16 12.21 15.07C9.50997 16.79 6.50997 18.71 3.06997 18.96C3.76997 19.31 4.86997 19.41 6.76997 18.96C7.63997 18.75 8.31997 19.8 7.74997 20.51L6.91997 21.53C7.88997 21.36 8.95997 20.76 10.27 19.97C10.43 19.88 11.18 19.71 11.6 20.3Z" fill="#02A1F5"/>
<path d="M38.5099 39.3C37.6099 36.21 33.9699 35.08 31.7999 34.4L31.3899 34.27C30.5799 34.01 29.8099 33.85 29.0699 33.75V11.24C31.7599 10.78 33.8199 8.46001 33.8199 5.67001C33.8199 2.55001 31.2499 0.0100098 28.0999 0.0100098C24.9499 0.0100098 22.3799 2.55001 22.3799 5.67001C22.3799 8.46001 24.4399 10.79 27.1299 11.24V33.62C26.2799 33.62 25.4699 33.66 24.7099 33.7C22.5999 33.83 20.9299 33.93 19.3299 32.71C18.5699 32.13 17.2899 30.89 17.2499 29.15C17.2099 27.15 18.8999 25.73 19.2399 25.47C19.6599 25.14 19.7399 24.53 19.4099 24.11C19.0799 23.69 18.4699 23.61 18.0499 23.94C17.3899 24.45 15.2599 26.34 15.3099 29.18C15.3599 31.73 17.1099 33.44 18.1399 34.24C20.3099 35.91 22.4999 35.77 24.8199 35.63C25.5699 35.58 26.3399 35.54 27.1299 35.55V43.51C26.5099 43.51 25.9199 43.54 25.3699 43.57C23.8799 43.66 22.8099 43.73 21.7699 42.93C21.2699 42.55 20.4399 41.74 20.4199 40.64C20.3999 39.37 21.4899 38.45 21.7099 38.27C22.1299 37.94 22.2099 37.33 21.8799 36.91C21.5499 36.49 20.9399 36.41 20.5199 36.74C20.0299 37.12 18.4399 38.53 18.4799 40.67C18.5199 42.59 19.8199 43.87 20.5899 44.46C22.2099 45.7 23.8799 45.6 25.4899 45.5C26.0299 45.47 26.5699 45.44 27.1399 45.45V52.25C26.6899 52.25 26.2799 52.26 25.9099 52.29C24.8699 52.35 24.2999 52.37 23.7299 51.93C23.4999 51.75 22.9699 51.28 22.9599 50.66C22.9499 49.95 23.6199 49.41 23.6999 49.35C24.1199 49.02 24.1999 48.41 23.8699 47.99C23.5399 47.57 22.9299 47.49 22.5099 47.82C22.1499 48.1 20.9999 49.12 21.0299 50.7C21.0599 52.11 21.9999 53.04 22.5599 53.47C23.7299 54.37 24.8999 54.3 26.0399 54.23C26.3999 54.21 26.7699 54.19 27.1499 54.2V59.06C27.1499 59.59 27.5799 60.03 28.1199 60.03C28.6599 60.03 29.0899 59.6 29.0899 59.06V54.58C29.8399 54.82 30.8799 55.2 31.0699 55.85C31.2099 56.34 30.8799 56.93 30.6699 57.25C29.9799 58.28 31.5799 59.37 32.2799 58.33C32.9699 57.29 33.1999 56.25 32.9299 55.32C32.4299 53.61 30.4799 53 29.4399 52.67L29.2499 52.61C29.1999 52.59 29.1499 52.58 29.0999 52.57V45.72C29.2699 45.76 29.4499 45.81 29.6299 45.87L29.9299 45.96C31.1499 46.34 33.1899 46.98 33.5699 48.3C33.8199 49.18 33.3499 50.15 32.9099 50.81C32.2199 51.84 33.8199 52.93 34.5199 51.89C35.4799 50.45 35.7899 49.03 35.4299 47.77C34.7599 45.44 32.0899 44.61 30.4999 44.12L30.2099 44.03C29.8199 43.91 29.4499 43.82 29.0899 43.75V35.75C29.6499 35.84 30.2199 35.97 30.8199 36.16L31.2499 36.29C33.0499 36.85 36.0799 37.8 36.6799 39.89C37.0799 41.28 36.3699 42.77 35.6999 43.78C35.0099 44.81 36.6099 45.9 37.3099 44.86C38.5999 42.93 39.0299 41.03 38.5399 39.36C37.6399 36.27 39.0199 41.03 38.5399 39.36L38.5099 39.3ZM24.3099 5.66001C24.3099 3.61001 26.0099 1.93001 28.0899 1.93001C30.1699 1.93001 31.8699 3.60001 31.8699 5.66001C31.8699 7.72001 30.1699 9.39001 28.0899 9.39001C26.0099 9.39001 24.3099 7.72001 24.3099 5.66001Z" fill="#02A1F5"/>
<path d="M36.9901 34.13C35.9401 34.13 35.6701 32.61 36.6601 32.25C38.1501 31.71 39.1201 30.47 39.1501 29.07C39.1701 27.75 38.3101 26.51 36.9501 25.9C36.4601 25.68 36.2401 25.11 36.4601 24.62C36.6801 24.13 37.2501 23.91 37.7401 24.13C39.8101 25.05 41.1301 27 41.0901 29.1C41.0501 31.3 39.5701 33.25 37.3301 34.06C37.2201 34.1 37.1101 34.12 37.0001 34.12L36.9901 34.13Z" fill="#02A1F5"/>
</g>
<defs>
<clipPath id="clip0_415_211">
<rect width="56.12" height="60" fill="white"/>
</clipPath>
</defs>
</svg>
