<svg width="58" height="60" viewBox="0 0 58 60" fill="none" xmlns="http://www.w3.org/2000/svg">
<path fill-rule="evenodd" clip-rule="evenodd" d="M50.9194 30.0922C51.0509 30.1529 51.1676 30.2415 51.2615 30.3517L57.7615 37.9881C57.9154 38.1691 58 38.3988 58 38.6364V59C58 59.2652 57.8946 59.5196 57.7071 59.7071C57.5196 59.8946 57.2652 60 57 60H5C3.67437 59.9985 2.40347 59.4712 1.46611 58.5339C0.528751 57.5965 0.00148882 56.3256 0 55V5C0.00148882 3.67437 0.528751 2.40347 1.46611 1.46611C2.40347 0.528751 3.67437 0.00148882 5 6.63723e-10H35C35.1313 -4.78377e-06 35.2614 0.0258568 35.3827 0.0761085C35.504 0.12636 35.6143 0.200018 35.7071 0.292875L47.7071 12.2929C47.8 12.3857 47.8736 12.496 47.9239 12.6173C47.9741 12.7386 48 12.8687 48 13V30H50.5C50.6448 30 50.7879 30.0314 50.9194 30.0922ZM48 36V32H40V36H48ZM44.5859 12L36 3.41412V9C36.0009 9.79537 36.3172 10.5579 36.8797 11.1203C37.4421 11.6827 38.2046 11.9991 39 12H44.5859ZM30 58V31C30 30.7348 30.1054 30.4804 30.2929 30.2929C30.4804 30.1054 30.7348 30 31 30H46V14H39C37.6744 13.9985 36.4035 13.4712 35.4661 12.5339C34.5288 11.5965 34.0015 10.3256 34 9V2H5C4.20463 2.00093 3.44211 2.31729 2.8797 2.8797C2.31729 3.44211 2.00093 4.20463 2 5V55C2.00093 55.7954 2.31729 56.5579 2.8797 57.1203C3.44211 57.6827 4.20463 57.9991 5 58H30ZM38 58H50V44H38V58ZM52 58H56V39.0044L50.0375 32H50V37C50 37.2652 49.8946 37.5196 49.7071 37.7071C49.5196 37.8946 49.2652 38 49 38H39C38.7348 38 38.4804 37.8946 38.2929 37.7071C38.1054 37.5196 38 37.2652 38 37V32H32V58H36V43C36 42.7348 36.1054 42.4804 36.2929 42.2929C36.4804 42.1054 36.7348 42 37 42H51C51.2652 42 51.5196 42.1054 51.7071 42.2929C51.8946 42.4804 52 42.7348 52 43V58ZM19 14H7C6.73478 14 6.48043 13.8946 6.29289 13.7071C6.10536 13.5196 6 13.2652 6 13C6 12.7348 6.10536 12.4804 6.29289 12.2929C6.48043 12.1054 6.73478 12 7 12H19C19.2652 12 19.5196 12.1054 19.7071 12.2929C19.8946 12.4804 20 12.7348 20 13C20 13.2652 19.8946 13.5196 19.7071 13.7071C19.5196 13.8946 19.2652 14 19 14ZM41 18H17C16.7348 18 16.4804 18.1054 16.2929 18.2929C16.1054 18.4804 16 18.7348 16 19C16 19.2652 16.1054 19.5196 16.2929 19.7071C16.4804 19.8946 16.7348 20 17 20H41C41.2652 20 41.5196 19.8946 41.7071 19.7071C41.8946 19.5196 42 19.2652 42 19C42 18.7348 41.8946 18.4804 41.7071 18.2929C41.5196 18.1054 41.2652 18 41 18ZM7 24C6.73478 24 6.48043 24.1054 6.29289 24.2929C6.10536 24.4804 6 24.7348 6 25C6 25.2652 6.10536 25.5196 6.29289 25.7071C6.48043 25.8946 6.73478 26 7 26H27C27.2652 26 27.5196 25.8946 27.7071 25.7071C27.8946 25.5196 28 25.2652 28 25C28 24.7348 27.8946 24.4804 27.7071 24.2929C27.5196 24.1054 27.2652 24 27 24H7ZM23 30H25C25.2652 30 25.5196 30.1054 25.7071 30.2929C25.8946 30.4804 26 30.7348 26 31C26 31.2652 25.8946 31.5196 25.7071 31.7071C25.5196 31.8946 25.2652 32 25 32H23C22.7348 32 22.4804 31.8946 22.2929 31.7071C22.1054 31.5196 22 31.2652 22 31C22 30.7348 22.1054 30.4804 22.2929 30.2929C22.4804 30.1054 22.7348 30 23 30ZM7 36C6.73478 36 6.48043 36.1054 6.29289 36.2929C6.10536 36.4804 6 36.7348 6 37C6 37.2652 6.10536 37.5196 6.29289 37.7071C6.48043 37.8946 6.73478 38 7 38H25C25.2652 38 25.5196 37.8946 25.7071 37.7071C25.8946 37.5196 26 37.2652 26 37C26 36.7348 25.8946 36.4804 25.7071 36.2929C25.5196 36.1054 25.2652 36 25 36H7ZM13 20H7C6.73478 20 6.48043 19.8946 6.29289 19.7071C6.10536 19.5196 6 19.2652 6 19C6 18.7348 6.10536 18.4804 6.29289 18.2929C6.48043 18.1054 6.73478 18 7 18H13C13.2652 18 13.5196 18.1054 13.7071 18.2929C13.8946 18.4804 14 18.7348 14 19C14 19.2652 13.8946 19.5196 13.7071 19.7071C13.5196 19.8946 13.2652 20 13 20ZM41.7071 24.2929C41.5196 24.1054 41.2652 24 41 24H31C30.7348 24 30.4804 24.1054 30.2929 24.2929C30.1054 24.4804 30 24.7348 30 25C30 25.2652 30.1054 25.5196 30.2929 25.7071C30.4804 25.8946 30.7348 26 31 26H41C41.2652 26 41.5196 25.8946 41.7071 25.7071C41.8946 25.5196 42 25.2652 42 25C42 24.7348 41.8946 24.4804 41.7071 24.2929ZM19 32H7C6.73478 32 6.48043 31.8946 6.29289 31.7071C6.10536 31.5196 6 31.2652 6 31C6 30.7348 6.10536 30.4804 6.29289 30.2929C6.48043 30.1054 6.73478 30 7 30H19C19.2652 30 19.5196 30.1054 19.7071 30.2929C19.8946 30.4804 20 30.7348 20 31C20 31.2652 19.8946 31.5196 19.7071 31.7071C19.5196 31.8946 19.2652 32 19 32ZM21 48C20.7348 48 20.4804 48.1054 20.2929 48.2929C20.1054 48.4804 20 48.7348 20 49C20 49.2652 20.1054 49.5196 20.2929 49.7071C20.4804 49.8946 20.7348 50 21 50H25C25.2652 50 25.5196 49.8946 25.7071 49.7071C25.8946 49.5196 26 49.2652 26 49C26 48.7348 25.8946 48.4804 25.7071 48.2929C25.5196 48.1054 25.2652 48 25 48H21ZM7 48H17C17.2652 48 17.5196 48.1054 17.7071 48.2929C17.8946 48.4804 18 48.7348 18 49C18 49.2652 17.8946 49.5196 17.7071 49.7071C17.5196 49.8946 17.2652 50 17 50H7C6.73478 50 6.48043 49.8946 6.29289 49.7071C6.10536 49.5196 6 49.2652 6 49C6 48.7348 6.10536 48.4804 6.29289 48.2929C6.48043 48.1054 6.73478 48 7 48ZM7 44H13C13.2652 44 13.5196 43.8946 13.7071 43.7071C13.8946 43.5196 14 43.2652 14 43C14 42.7348 13.8946 42.4804 13.7071 42.2929C13.5196 42.1054 13.2652 42 13 42H7C6.73478 42 6.48043 42.1054 6.29289 42.2929C6.10536 42.4804 6 42.7348 6 43C6 43.2652 6.10536 43.5196 6.29289 43.7071C6.48043 43.8946 6.73478 44 7 44ZM25 42H17C16.7348 42 16.4804 42.1054 16.2929 42.2929C16.1054 42.4804 16 42.7348 16 43C16 43.2652 16.1054 43.5196 16.2929 43.7071C16.4804 43.8946 16.7348 44 17 44H25C25.2652 44 25.5196 43.8946 25.7071 43.7071C25.8946 43.5196 26 43.2652 26 43C26 42.7348 25.8946 42.4804 25.7071 42.2929C25.5196 42.1054 25.2652 42 25 42Z" fill="#2D3484"/>
</svg>
