<svg width="62" height="60" viewBox="0 0 62 60" fill="none" xmlns="http://www.w3.org/2000/svg">
<path d="M58.6457 0H3.3543C1.50471 0 0 1.51585 0 3.37941V42.8172C0 44.6807 1.50471 46.1966 3.3543 46.1966H8.71875C9.22044 46.1966 9.62695 45.7871 9.62695 45.2816C9.62695 44.7762 9.22044 44.3666 8.71875 44.3666H3.3543C2.50628 44.3666 1.81641 43.6716 1.81641 42.8172V3.37941C1.81641 2.52504 2.50628 1.83 3.3543 1.83H58.6457C59.4937 1.83 60.1836 2.52504 60.1836 3.37941V42.8172C60.1836 43.6716 59.4937 44.3666 58.6457 44.3666H12.957C12.4553 44.3666 12.0488 44.7762 12.0488 45.2816C12.0488 45.7871 12.4553 46.1966 12.957 46.1966H22.6978C22.5249 47.8036 21.8116 51.2848 18.888 54.2256H15.8318C14.9263 54.2256 14.1896 54.9677 14.1896 55.8799V58.3456C14.1896 59.2579 14.9263 60 15.8318 60H38.4218C38.9235 60 39.33 59.5904 39.33 59.085C39.33 58.5795 38.9235 58.17 38.4218 58.17H16.0062V56.0557H45.9938V58.17H42.6601C42.1584 58.17 41.7519 58.5795 41.7519 59.085C41.7519 59.5904 42.1584 60 42.6601 60H46.1682C47.0737 60 47.8104 59.2579 47.8104 58.3456V55.8799C47.8104 54.9677 47.0737 54.2256 46.1682 54.2256H43.1122C40.2047 51.2993 39.4836 47.8074 39.3055 46.1966H58.6457C60.4953 46.1966 62 44.6807 62 42.8172V3.37941C62 1.51585 60.4953 0 58.6457 0ZM40.6798 54.2255H21.3202C23.7847 51.1014 24.3827 47.7785 24.5252 46.1965H37.4746C37.6173 47.7786 38.2153 51.1014 40.6798 54.2255Z" fill="#2D3484"/>
<path d="M51.1368 38.5556H57.1769C57.6786 38.5556 58.0851 38.146 58.0851 37.6406V4.85909C58.0851 4.35365 57.6786 3.94409 57.1769 3.94409H4.82324C4.32155 3.94409 3.91504 4.35365 3.91504 4.85909V37.6406C3.91504 38.146 4.32155 38.5556 4.82324 38.5556H46.8985C47.4002 38.5556 47.8067 38.146 47.8067 37.6406C47.8067 37.1351 47.4002 36.7256 46.8985 36.7256H5.73145V5.7741H56.2687V36.7256H51.1368C50.6351 36.7256 50.2286 37.1351 50.2286 37.6406C50.2286 38.146 50.6351 38.5556 51.1368 38.5556Z" fill="#2D3484"/>
<path d="M15.2725 9.91183C15.2725 9.40638 14.866 8.99683 14.3643 8.99683H8.7373C8.23561 8.99683 7.8291 9.40638 7.8291 9.91183V14.8414C7.8291 15.3468 8.23561 15.7564 8.7373 15.7564H14.3643C14.866 15.7564 15.2725 15.3468 15.2725 14.8414V9.91183ZM13.4561 13.9264H9.64551V10.8268H13.4561V13.9264Z" fill="#2D3484"/>
<path d="M19.2568 15.7563H34.425C34.9267 15.7563 35.3332 15.3467 35.3332 14.8413C35.3332 14.3358 34.9267 13.9263 34.425 13.9263H19.2568C18.7551 13.9263 18.3486 14.3358 18.3486 14.8413C18.3486 15.3467 18.7553 15.7563 19.2568 15.7563Z" fill="#2D3484"/>
<path d="M38.8296 8.99683H26.3525C25.8508 8.99683 25.4443 9.40638 25.4443 9.91183C25.4443 10.4173 25.8508 10.8268 26.3525 10.8268H38.8296C39.3312 10.8268 39.7378 10.4173 39.7378 9.91183C39.7378 9.40638 39.3312 8.99683 38.8296 8.99683Z" fill="#2D3484"/>
<path d="M19.2568 10.8268H22.0702C22.5719 10.8268 22.9784 10.4173 22.9784 9.91183C22.9784 9.40638 22.5719 8.99683 22.0702 8.99683H19.2568C18.7551 8.99683 18.3486 9.40638 18.3486 9.91183C18.3486 10.4173 18.7553 10.8268 19.2568 10.8268Z" fill="#2D3484"/>
<path d="M15.2725 18.7851C15.2725 18.2797 14.866 17.8701 14.3643 17.8701H8.7373C8.23561 17.8701 7.8291 18.2797 7.8291 18.7851V23.7147C7.8291 24.2201 8.23561 24.6297 8.7373 24.6297H14.3643C14.866 24.6297 15.2725 24.2201 15.2725 23.7147V18.7851ZM13.4561 22.7997H9.64551V19.7001H13.4561V22.7997Z" fill="#2D3484"/>
<path d="M19.2568 24.6296H34.425C34.9267 24.6296 35.3332 24.22 35.3332 23.7146C35.3332 23.2091 34.9267 22.7996 34.425 22.7996H19.2568C18.7551 22.7996 18.3486 23.2091 18.3486 23.7146C18.3486 24.22 18.7553 24.6296 19.2568 24.6296Z" fill="#2D3484"/>
<path d="M38.8296 17.8701H26.3525C25.8508 17.8701 25.4443 18.2797 25.4443 18.7851C25.4443 19.2906 25.8508 19.7001 26.3525 19.7001H38.8296C39.3312 19.7001 39.7378 19.2906 39.7378 18.7851C39.7378 18.2797 39.3312 17.8701 38.8296 17.8701Z" fill="#2D3484"/>
<path d="M19.2568 19.7001H22.0702C22.5719 19.7001 22.9784 19.2906 22.9784 18.7851C22.9784 18.2797 22.5719 17.8701 22.0702 17.8701H19.2568C18.7551 17.8701 18.3486 18.2797 18.3486 18.7851C18.3486 19.2906 18.7553 19.7001 19.2568 19.7001Z" fill="#2D3484"/>
<path d="M14.3643 26.7432H8.7373C8.23561 26.7432 7.8291 27.1527 7.8291 27.6582V32.5878C7.8291 33.0933 8.23561 33.5028 8.7373 33.5028H14.3643C14.866 33.5028 15.2725 33.0933 15.2725 32.5878V27.6582C15.2725 27.1527 14.866 26.7432 14.3643 26.7432ZM13.4561 31.6728H9.64551V28.5732H13.4561V31.6728Z" fill="#2D3484"/>
<path d="M19.2568 33.5031H34.425C34.9267 33.5031 35.3332 33.0935 35.3332 32.5881C35.3332 32.0827 34.9267 31.6731 34.425 31.6731H19.2568C18.7551 31.6731 18.3486 32.0827 18.3486 32.5881C18.3486 33.0935 18.7553 33.5031 19.2568 33.5031Z" fill="#2D3484"/>
<path d="M39.7378 27.6582C39.7378 27.1527 39.3312 26.7432 38.8296 26.7432H26.3525C25.8508 26.7432 25.4443 27.1527 25.4443 27.6582C25.4443 28.1636 25.8508 28.5732 26.3525 28.5732H38.8296C39.3312 28.5732 39.7378 28.1635 39.7378 27.6582Z" fill="#2D3484"/>
<path d="M19.2568 28.5732H22.0702C22.5719 28.5732 22.9784 28.1636 22.9784 27.6582C22.9784 27.1527 22.5719 26.7432 22.0702 26.7432H19.2568C18.7551 26.7432 18.3486 27.1527 18.3486 27.6582C18.3486 28.1636 18.7553 28.5732 19.2568 28.5732Z" fill="#2D3484"/>
<path d="M54.1704 25.1279C54.1532 24.7392 53.894 24.404 53.5241 24.2922L43.0042 21.1126C42.6839 21.0158 42.3373 21.1041 42.1009 21.342C41.8648 21.58 41.7773 21.9296 41.8733 22.252L45.0292 32.8507C45.1402 33.2234 45.4729 33.4844 45.8587 33.5018C45.8723 33.5025 45.886 33.5027 45.8994 33.5027C46.2692 33.5027 46.6041 33.2761 46.7425 32.9275L48.7018 27.9922L53.6004 26.0181C53.9589 25.8738 54.1876 25.5166 54.1704 25.1279ZM47.6658 26.4388C47.435 26.5319 47.2521 26.716 47.1598 26.9486L46.0218 29.8152L44.0978 23.3538L50.5111 25.2922L47.6658 26.4388Z" fill="#2D3484"/>
</svg>
