<svg width="85" height="60" viewBox="0 0 85 60" fill="none" xmlns="http://www.w3.org/2000/svg">
<path d="M52.6265 47.3368H19.0212C18.3767 47.3368 17.8545 46.8148 17.8545 46.1705C17.8545 45.5262 18.3767 45.0042 19.0212 45.0042H52.6265C53.271 45.0042 53.7932 45.5262 53.7932 46.1705C53.7932 46.8148 53.2654 47.3368 52.6265 47.3368Z" fill="#2D3484"/>
<path d="M7.1315 27.0591C6.48706 27.0591 5.96484 26.5371 5.96484 25.8928V4.14329C5.96484 1.86059 7.82594 0 10.1093 0H69.0145C71.2978 0 73.1589 1.86059 73.1589 4.14329V17.4174C73.1589 18.0616 72.6367 18.5837 71.9923 18.5837C71.3478 18.5837 70.8256 18.0616 70.8256 17.4174V4.14329C70.8256 3.14357 70.0145 2.33268 69.0145 2.33268H10.1093C9.10927 2.33268 8.29816 3.14357 8.29816 4.14329V25.8928C8.29816 26.5371 7.77594 27.0591 7.1315 27.0591Z" fill="#2D3484"/>
<path d="M52.6265 37.4008H19.0212C18.3767 37.4008 17.8545 36.8787 17.8545 36.2345C17.8545 35.5902 18.3767 35.0681 19.0212 35.0681H52.6265C53.271 35.0681 53.7932 35.5902 53.7932 36.2345C53.7932 36.8787 53.2654 37.4008 52.6265 37.4008Z" fill="#2D3484"/>
<path d="M39.5586 42.6382C40.3531 42.6382 40.9971 41.9942 40.9971 41.1997C40.9971 40.4053 40.3531 39.7612 39.5586 39.7612C38.7641 39.7612 38.1201 40.4053 38.1201 41.1997C38.1201 41.9942 38.7641 42.6382 39.5586 42.6382Z" fill="#2D3484"/>
<path d="M34.7826 53.7017C34.1383 53.7017 33.6162 53.1797 33.6162 52.5354V46.1705C33.6162 45.5262 34.1383 45.0042 34.7826 45.0042C35.4268 45.0042 35.9489 45.5262 35.9489 46.1705V52.5354C35.9489 53.1797 35.4268 53.7017 34.7826 53.7017Z" fill="#2D3484"/>
<path d="M44.3421 53.7017C43.6979 53.7017 43.1758 53.1797 43.1758 52.5354V46.1705C43.1758 45.5262 43.6979 45.0042 44.3421 45.0042C44.9864 45.0042 45.5085 45.5262 45.5085 46.1705V52.5354C45.5085 53.1797 44.9864 53.7017 44.3421 53.7017Z" fill="#2D3484"/>
<path d="M53.7377 60H22.7712C22.1267 60 21.6045 59.4779 21.6045 58.8336V58.0894C21.6045 54.5737 24.4656 51.7134 27.9822 51.7134H51.1488C51.7654 51.7134 52.3766 51.8022 52.9599 51.9744C53.5765 52.1577 53.9321 52.8075 53.7488 53.424C53.5654 54.0405 52.9154 54.396 52.2988 54.2127C51.9266 54.1016 51.5432 54.0461 51.1488 54.0461H27.9822C25.8934 54.0461 24.1711 55.6345 23.96 57.6673H53.7377C54.3821 57.6673 54.9043 58.1894 54.9043 58.8336C54.9043 59.4779 54.3821 60 53.7377 60Z" fill="#2D3484"/>
<path d="M18.1388 60.0001H2.04999C0.916662 60.0001 0 59.0781 0 57.9507V26.776C0 25.643 0.922218 24.7266 2.04999 24.7266H18.1332C19.2666 24.7266 20.1832 25.6485 20.1832 26.776V57.9451C20.1888 59.0837 19.2666 60.0001 18.1388 60.0001ZM2.33332 57.6674H17.8555V27.0592H2.33332V57.6674Z" fill="#2D3484"/>
<path d="M19.0221 31.8634H1.16666C0.522219 31.8634 0 31.3414 0 30.6971C0 30.0528 0.522219 29.5308 1.16666 29.5308H19.0221C19.6666 29.5308 20.1888 30.0528 20.1888 30.6971C20.1888 31.3414 19.6666 31.8634 19.0221 31.8634Z" fill="#2D3484"/>
<path d="M19.0221 55.1957H1.16666C0.522219 55.1957 0 54.6736 0 54.0294C0 53.3851 0.522219 52.863 1.16666 52.863H19.0221C19.6666 52.863 20.1888 53.3851 20.1888 54.0294C20.1888 54.6736 19.6666 55.1957 19.0221 55.1957Z" fill="#2D3484"/>
<path d="M82.7229 60H53.7397C52.4841 60 51.4619 58.9781 51.4619 57.7229V18.5337C51.4619 17.2785 52.4841 16.2566 53.7397 16.2566H82.7229C83.9784 16.2566 85.0006 17.2785 85.0006 18.5337V57.7229C85.0006 58.9781 83.9784 60 82.7229 60ZM53.7952 57.6673H82.6673V18.5837H53.7897V57.6673H53.7952Z" fill="#2D3484"/>
<path d="M79.9446 53.8296H56.5114C55.8669 53.8296 55.3447 53.3075 55.3447 52.6632V21.3053C55.3447 20.661 55.8669 20.1389 56.5114 20.1389H79.9446C80.589 20.1389 81.1113 20.661 81.1113 21.3053V52.6632C81.1113 53.3075 80.589 53.8296 79.9446 53.8296ZM57.6836 51.4969H78.7779V22.4716H57.678V51.4969H57.6836Z" fill="#2D3484"/>
<path d="M68.2273 56.8565C68.8377 56.8565 69.3326 56.3617 69.3326 55.7512C69.3326 55.1408 68.8377 54.646 68.2273 54.646C67.6169 54.646 67.1221 55.1408 67.1221 55.7512C67.1221 56.3617 67.6169 56.8565 68.2273 56.8565Z" fill="#2D3484"/>
</svg>
