<svg width="58" height="60" viewBox="0 0 58 60" fill="none" xmlns="http://www.w3.org/2000/svg">
<path d="M57.9566 48.1667L55.1486 40.3403C56.2235 38.0762 56.7799 35.6007 56.7772 33.0943C56.7761 30.4662 56.1642 27.8743 54.9897 25.5234C53.8153 23.1724 52.1104 21.1267 50.0099 19.5478C47.9093 17.9689 45.4704 16.9001 42.886 16.4257C40.3015 15.9512 37.6421 16.0843 35.1178 16.8142C35.0831 12.3202 33.2648 8.02402 30.063 4.87084C26.8612 1.71766 22.5382 -0.0342529 18.0449 0.000507566C13.5517 0.035268 9.25626 1.85385 6.10362 5.05619C2.95098 8.25853 1.19937 12.5823 1.23412 17.0763C1.22474 19.5825 1.77812 22.0587 2.85343 24.3223L0.0453825 32.1581C-0.006637 32.3191 -0.0140895 32.4911 0.0238168 32.6559C0.0617231 32.8208 0.143572 32.9723 0.260666 33.0943C0.38699 33.2201 0.546586 33.3071 0.720689 33.3453C0.894792 33.3834 1.07616 33.371 1.24348 33.3096L8.27295 30.7913C11.153 32.8848 14.625 34.0063 18.1853 33.993C19.7692 33.9879 21.3445 33.761 22.8654 33.319C22.9269 37.7757 24.7396 42.0291 27.9117 45.1597C31.0838 48.2903 35.3603 50.0464 39.8166 50.0484C43.3739 50.0603 46.8425 48.9389 49.7197 46.8467L56.7585 49.365C56.9202 49.4159 57.0928 49.4218 57.2576 49.3823C57.4225 49.3427 57.5735 49.2591 57.6945 49.1403C57.8265 49.02 57.9214 48.8644 57.9678 48.6918C58.0143 48.5193 58.0104 48.3371 57.9566 48.1667ZM8.99368 29.0407C8.87024 28.946 8.72515 28.8835 8.57153 28.859C8.41791 28.8345 8.2606 28.8487 8.11383 28.9002L2.49774 30.9224L4.7629 24.5845C4.81311 24.4677 4.83901 24.3418 4.83901 24.2147C4.83901 24.0875 4.81311 23.9617 4.7629 23.8449C3.6806 21.7525 3.11266 19.4322 3.10615 17.0763C3.11012 13.6765 4.26394 10.378 6.37998 7.7172C8.49602 5.05641 11.4498 3.18985 14.761 2.42105C18.0722 1.65225 21.5461 2.02643 24.6177 3.48275C27.6894 4.93907 30.1781 7.39186 31.6791 10.4423C33.1802 13.4927 33.6054 16.9613 32.8855 20.284C32.1656 23.6067 30.343 26.5882 27.714 28.7435C25.0851 30.8987 21.8045 32.1011 18.4057 32.1551C15.0068 32.2091 11.6897 31.1114 8.99368 29.0407ZM49.8788 44.9556C49.7307 44.9024 49.5716 44.8874 49.4162 44.9119C49.2608 44.9365 49.1141 44.9998 48.9896 45.0961C46.366 47.1321 43.1373 48.2327 39.8166 48.2229C35.8198 48.2179 31.9882 46.6271 29.1628 43.7995C26.3375 40.9719 24.7493 37.1387 24.7468 33.1411C24.7468 33.01 24.7468 32.879 24.7468 32.7479C27.5487 31.5652 29.982 29.6523 31.793 27.2087C33.604 24.7651 34.7263 21.8803 35.043 18.8551C37.8671 17.9134 40.907 17.8299 43.7786 18.6153C46.6501 19.4006 49.2246 21.0195 51.1767 23.2675C53.1288 25.5155 54.371 28.2917 54.7464 31.2454C55.1218 34.1991 54.6136 37.1979 53.2859 39.8628C53.237 39.9784 53.2118 40.1025 53.2118 40.228C53.2118 40.3534 53.237 40.4776 53.2859 40.5931L55.523 46.9403L49.8788 44.9556Z" fill="#2D3484"/>
<path d="M39.8165 26.3445C38.6918 26.3444 37.6128 26.7894 36.8149 27.5821C36.017 28.3749 35.565 29.4511 35.5576 30.576C35.5576 30.8243 35.6562 31.0624 35.8318 31.238C36.0073 31.4135 36.2454 31.5122 36.4936 31.5122C36.7419 31.5122 36.98 31.4135 37.1555 31.238C37.331 31.0624 37.4296 30.8243 37.4296 30.576C37.4315 30.1042 37.5731 29.6436 37.8364 29.2523C38.0998 28.8609 38.4732 28.5564 38.9095 28.3771C39.3458 28.1979 39.8255 28.1519 40.2878 28.2451C40.7502 28.3383 41.1746 28.5664 41.5075 28.9006C41.8404 29.2348 42.0668 29.6602 42.1581 30.123C42.2495 30.5859 42.2017 31.0654 42.0207 31.501C41.8398 31.9367 41.5339 32.309 41.1416 32.5709C40.7493 32.8328 40.2882 32.9726 39.8165 32.9726C39.5682 32.9726 39.3302 33.0712 39.1546 33.2468C38.9791 33.4224 38.8805 33.6605 38.8805 33.9088V35.4628C38.8805 35.7111 38.9791 35.9492 39.1546 36.1248C39.3302 36.3004 39.5682 36.399 39.8165 36.399C40.0647 36.399 40.3028 36.3004 40.4783 36.1248C40.6539 35.9492 40.7525 35.7111 40.7525 35.4628V34.77C41.7859 34.55 42.7007 33.9537 43.3191 33.0968C43.9375 32.2399 44.2154 31.1837 44.0987 30.1334C43.982 29.0831 43.4791 28.1136 42.6877 27.4134C41.8964 26.7132 40.873 26.3322 39.8165 26.3445Z" fill="#2D3484"/>
<path d="M18.1846 10.3172C17.0567 10.3172 15.9749 10.7647 15.1765 11.5615C14.3781 12.3583 13.9283 13.4393 13.9258 14.5674C13.9258 14.8157 14.0244 15.0538 14.1999 15.2294C14.3755 15.405 14.6135 15.5036 14.8618 15.5036C15.11 15.5036 15.3481 15.405 15.5237 15.2294C15.6992 15.0538 15.7978 14.8157 15.7978 14.5674C15.8033 14.0965 15.948 13.6378 16.2136 13.2489C16.4793 12.86 16.8539 12.5584 17.2905 12.382C17.7271 12.2056 18.2061 12.1624 18.6673 12.2576C19.1284 12.3529 19.5511 12.5824 19.8821 12.9174C20.2131 13.2523 20.4376 13.6777 20.5275 14.14C20.6173 14.6023 20.5684 15.0809 20.387 15.5154C20.2055 15.95 19.8996 16.3212 19.5077 16.5823C19.1159 16.8434 18.6555 16.9827 18.1846 16.9828C17.9364 16.9828 17.6983 17.0814 17.5228 17.257C17.3472 17.4325 17.2486 17.6707 17.2486 17.9189V19.473C17.2486 19.7213 17.3472 19.9594 17.5228 20.135C17.6983 20.3105 17.9364 20.4092 18.1846 20.4092C18.4329 20.4092 18.671 20.3105 18.8465 20.135C19.022 19.9594 19.1207 19.7213 19.1207 19.473V18.7521C20.1541 18.5321 21.0689 17.9358 21.6873 17.0789C22.3057 16.222 22.5835 15.1658 22.4668 14.1155C22.3502 13.0652 21.8473 12.0957 21.0559 11.3955C20.2645 10.6953 19.2412 10.3143 18.1846 10.3266V10.3172Z" fill="#2D3484"/>
<path d="M17.5205 22.2534C17.3475 22.4277 17.2501 22.6631 17.249 22.9087C17.249 23.157 17.3476 23.3951 17.5232 23.5707C17.6987 23.7462 17.9368 23.8449 18.185 23.8449C18.4333 23.8449 18.6714 23.7462 18.8469 23.5707C19.0224 23.3951 19.1211 23.157 19.1211 22.9087C19.12 22.6631 19.0225 22.4277 18.8496 22.2534C18.7626 22.1656 18.6591 22.096 18.545 22.0484C18.4309 22.0009 18.3086 21.9764 18.185 21.9764C18.0615 21.9764 17.9391 22.0009 17.8251 22.0484C17.711 22.096 17.6075 22.1656 17.5205 22.2534Z" fill="#2D3484"/>
<path d="M14.0292 37.3445C11.7081 37.3964 9.48711 38.2998 7.7887 39.8829C6.09029 41.4661 5.03301 43.6184 4.81802 45.9305C4.60304 48.2425 5.24535 50.553 6.62275 52.4222C8.00015 54.2914 10.0165 55.589 12.2882 56.068L13.8888 59.4664C13.9647 59.6257 14.084 59.7603 14.2331 59.8547C14.3821 59.9491 14.5548 59.9995 14.7312 60C14.9092 60.0013 15.0839 59.9517 15.2348 59.8572C15.3857 59.7627 15.5064 59.6271 15.583 59.4664L17.3989 55.6187C19.434 54.8076 21.125 53.316 22.1842 51.398C23.2433 49.48 23.605 47.2541 23.2077 45.0994C22.8103 42.9446 21.6786 40.9942 20.005 39.5802C18.3315 38.1663 16.2197 37.3762 14.0292 37.3445ZM19.4394 52.1829C18.6099 53.0345 17.5895 53.6763 16.4628 54.0553C16.3418 54.0959 16.2304 54.1609 16.1354 54.2463C16.0405 54.3316 15.964 54.4354 15.9106 54.5514L14.7687 56.9574L13.8326 54.9072C13.7655 54.7668 13.6645 54.6453 13.5387 54.5538C13.4128 54.4622 13.2662 54.4035 13.1119 54.3829C11.4127 54.1606 9.83872 53.3697 8.646 52.139C7.45328 50.9082 6.71202 49.3101 6.5428 47.6044C6.37358 45.8988 6.78635 44.1861 7.71397 42.745C8.64159 41.3038 10.0295 40.219 11.6519 39.6669C13.2742 39.1149 15.0356 39.1281 16.6495 39.7045C18.2634 40.2809 19.6348 41.3865 20.5407 42.8415C21.4465 44.2964 21.8335 46.0152 21.6386 47.718C21.4438 49.4209 20.6785 51.0077 19.4675 52.2204L19.4394 52.1829Z" fill="#2D3484"/>
<path d="M40.4815 38.262C40.3944 38.1742 40.2909 38.1046 40.1769 38.057C40.0628 38.0095 39.9405 37.985 39.8169 37.985C39.6933 37.985 39.571 38.0095 39.4569 38.057C39.3429 38.1046 39.2393 38.1742 39.1523 38.262C39.0647 38.3491 38.9976 38.4546 38.9558 38.5709C38.9078 38.6835 38.8824 38.8043 38.8809 38.9266C38.8798 39.1126 38.9341 39.2947 39.0369 39.4496C39.1397 39.6046 39.2862 39.7254 39.4579 39.7967C39.6297 39.868 39.8187 39.8866 40.001 39.85C40.1833 39.8134 40.3505 39.7234 40.4815 39.5913C40.5682 39.5039 40.6368 39.4001 40.6834 39.2861C40.73 39.172 40.7536 39.0499 40.7529 38.9266C40.7561 38.8038 40.7304 38.682 40.678 38.5709C40.6271 38.4594 40.5609 38.3554 40.4815 38.262Z" fill="#2D3484"/>
<path d="M16.2948 44.3284H11.8393C11.5911 44.3284 11.353 44.427 11.1775 44.6026C11.0019 44.7781 10.9033 45.0163 10.9033 45.2645C10.9033 45.5128 11.0019 45.751 11.1775 45.9265C11.353 46.1021 11.5911 46.2007 11.8393 46.2007H16.2948C16.543 46.2007 16.7811 46.1021 16.9566 45.9265C17.1322 45.751 17.2308 45.5128 17.2308 45.2645C17.2308 45.0163 17.1322 44.7781 16.9566 44.6026C16.7811 44.427 16.543 44.3284 16.2948 44.3284Z" fill="#2D3484"/>
<path d="M14.0296 48.1667H11.8393C11.5911 48.1667 11.353 48.2653 11.1775 48.4409C11.0019 48.6165 10.9033 48.8546 10.9033 49.1029C10.9033 49.3512 11.0019 49.5893 11.1775 49.7648C11.353 49.9404 11.5911 50.039 11.8393 50.039H14.0296C14.2779 50.039 14.5159 49.9404 14.6915 49.7648C14.867 49.5893 14.9656 49.3512 14.9656 49.1029C14.9656 48.8546 14.867 48.6165 14.6915 48.4409C14.5159 48.2653 14.2779 48.1667 14.0296 48.1667Z" fill="#2D3484"/>
</svg>
