<svg width="59" height="60" viewBox="0 0 59 60" fill="none" xmlns="http://www.w3.org/2000/svg">
<g clip-path="url(#clip0_415_216)">
<path d="M0.97 60H43.55C44.08 60 44.52 59.57 44.52 59.03V53.62L49.41 58.51C51.39 60.49 54.6 60.49 56.58 58.51C58.56 56.53 58.56 53.32 56.58 51.34L44.52 39.28V0.97C44.52 0.44 44.09 0 43.55 0H0.97C0.43 0 0 0.43 0 0.97V59.03C0 59.56 0.43 60 0.97 60ZM56.13 54.93C56.13 56.66 54.72 58.07 52.99 58.07C52.16 58.07 51.36 57.74 50.77 57.15L39.11 45.49L43.55 41.05L55.21 52.71C55.8 53.3 56.13 54.1 56.13 54.93V54.93ZM15.48 19.35H15C14.2 19.35 13.55 18.7 13.55 17.9C13.55 17.1 14.2 16.45 15 16.45H15.48V19.35ZM11.83 19.08C12.32 20.4 13.58 21.28 14.99 21.29H15.76C16.2 22.76 17.12 24.03 18.37 24.91V26.35L15.12 27.16C13.81 27.49 12.66 28.25 11.84 29.33C10.23 26.11 10.22 22.32 11.82 19.09L11.83 19.08ZM24.92 28.03L25.39 28.15C24.43 29.88 22.26 30.51 20.52 29.55C19.93 29.22 19.44 28.74 19.12 28.15L19.59 28.03C20.02 27.92 20.32 27.54 20.32 27.09V25.83C21.58 26.21 22.93 26.21 24.19 25.83V27.09C24.19 27.53 24.49 27.92 24.92 28.03ZM22.25 24.19C19.58 24.19 17.41 22.02 17.41 19.35V15.48H19.11C21.83 15.48 24.45 14.47 26.45 12.63C26.83 12.77 27.09 13.13 27.09 13.54V19.35C27.09 22.02 24.92 24.19 22.25 24.19ZM15.59 29.03L17.18 28.63C18.41 31.43 21.68 32.69 24.48 31.46C25.74 30.9 26.75 29.89 27.31 28.63L28.9 29.03C30.04 29.31 31 30.09 31.52 31.15C27.7 36.27 20.45 37.33 15.33 33.5C14.44 32.83 13.64 32.04 12.98 31.15C13.49 30.09 14.45 29.31 15.6 29.03H15.59ZM32.65 29.32C31.84 28.24 30.68 27.48 29.37 27.15L26.12 26.34V24.9C27.38 24.02 28.3 22.75 28.74 21.28H29.51C30.92 21.28 32.18 20.4 32.67 19.07C34.27 22.3 34.26 26.09 32.65 29.31V29.32ZM29.02 16.44H29.5C30.3 16.44 30.95 17.09 30.95 17.89C30.95 18.69 30.3 19.34 29.5 19.34H29.02V16.44ZM29.5 14.5H29.02V13.53C29.02 11.93 27.72 10.63 26.12 10.63C25.86 10.63 25.62 10.73 25.44 10.91C23.77 12.59 21.49 13.54 19.11 13.53H16.44C15.91 13.53 15.47 13.96 15.47 14.5H14.99C14.83 14.5 14.67 14.52 14.51 14.55V11.6C14.51 8.39 17.11 5.8 20.32 5.79H24.03C25.44 5.79 26.69 6.69 27.14 8.03C27.24 8.32 27.46 8.55 27.75 8.64C29.09 9.09 29.99 10.34 29.99 11.75V14.55C29.83 14.52 29.67 14.51 29.51 14.5H29.5ZM12.56 14.72C10.07 17.24 8.68 20.64 8.69 24.18C8.69 31.66 14.76 37.73 22.24 37.73C29.72 37.73 35.79 31.66 35.79 24.18C35.79 20.64 34.41 17.24 31.92 14.72V12.11C38.6 17.45 39.67 27.2 34.33 33.87C28.99 40.55 19.24 41.62 12.57 36.28C8.9 33.34 6.76 28.89 6.76 24.18C6.74 19.47 8.88 15.02 12.57 12.09V14.72H12.56ZM36.56 34.07L38.29 35.8L33.85 40.24L32.12 38.51C33.85 37.31 35.36 35.81 36.56 34.07ZM38.21 38.62L40.71 41.12L39.18 42.65L36.68 40.15L38.21 38.62ZM1.94 1.94H42.59V39.28L42.11 39.76L39.61 37.26L40.38 36.49C40.76 36.11 40.76 35.5 40.38 35.12L37.64 32.38C38.99 29.86 39.7 27.05 39.69 24.19C39.67 18.11 36.51 12.48 31.32 9.31C30.77 8.28 29.89 7.46 28.82 6.99C27.99 5.09 26.12 3.87 24.04 3.87H20.33C16.86 3.87 13.82 6.18 12.88 9.52C4.77 14.68 2.37 25.44 7.54 33.56C12.43 41.25 22.43 43.87 30.46 39.56L33.2 42.3C33.58 42.68 34.19 42.68 34.57 42.3L35.34 41.53L37.84 44.03L37.07 44.8C36.69 45.18 36.69 45.79 37.07 46.17L42.59 51.69V58.06H1.94V1.94Z" fill="#02A1F5"/>
<path d="M12.5801 46.45H4.84012C4.31012 46.45 3.87012 46.8799 3.87012 47.4199V55.16C3.87012 55.69 4.30012 56.13 4.84012 56.13H12.5801C13.1101 56.13 13.5501 55.7 13.5501 55.16V47.4199C13.5501 46.8899 13.1201 46.45 12.5801 46.45ZM11.6101 54.1899H5.80012V48.38H11.6101V54.1899Z" fill="#02A1F5"/>
<path d="M30.96 46.45H15.48V48.3899H30.96V46.45Z" fill="#02A1F5"/>
<path d="M36.77 50.3199H15.48V52.2599H36.77V50.3199Z" fill="#02A1F5"/>
<path d="M34.83 54.1899H15.48V56.1299H34.83V54.1899Z" fill="#02A1F5"/>
</g>
<defs>
<clipPath id="clip0_415_216">
<rect width="58.06" height="60" fill="white"/>
</clipPath>
</defs>
</svg>
