<svg width="60" height="60" viewBox="0 0 60 60" fill="none" xmlns="http://www.w3.org/2000/svg">
<path d="M59.3057 20.6628C59.124 19.706 58.9966 18.736 58.7812 17.7865C58.6904 17.3873 58.4985 16.972 58.2393 16.6565C56.1445 14.1088 54.0264 11.5788 51.9009 9.0576C51.583 8.68045 51.4277 8.30769 51.4336 7.80286C51.4614 5.63532 51.4468 3.46778 51.4438 1.3017C51.4438 0.318454 51.1289 0 50.1489 0C36.7163 0 23.2837 0 9.85107 0C8.87109 0 8.55615 0.316987 8.55615 1.29876C8.55322 3.46631 8.54004 5.63385 8.56641 7.79993C8.57227 8.30622 8.41846 8.67898 8.09912 9.05613C6.12305 11.3968 4.18652 13.7742 2.18701 16.0959C1.56299 16.8208 1.19971 17.5884 1.05615 18.5276C0.786621 20.3004 0.439453 22.0614 0.118652 23.8268C0.0996094 23.9354 0.0410156 24.0352 0 24.1394V25.312C0.275391 26.668 0.694336 27.9799 1.73291 28.9441C2.37891 29.5443 3.1333 30.0565 3.90967 30.4791C4.35791 30.7242 4.50586 30.9429 4.50439 31.4389C4.48828 40.4789 4.49561 49.5189 4.48682 58.5574C4.48682 59.1606 4.59082 59.6771 5.15625 59.9985H11.3672C11.8125 59.7358 12.1743 59.41 12.0161 58.8274C11.8447 58.1935 11.3438 58.1025 10.7725 58.1084C9.34863 58.1216 7.92627 58.1128 6.45117 58.1128V31.0618C9.03369 31.1571 11.0859 30.1724 12.5669 27.9932C13.9893 30.0624 15.9111 31.0647 18.3867 31.0632C20.8652 31.0632 22.7812 30.0448 24.1831 28.0093C26.7407 32.0905 33.2212 32.1052 35.814 28.0064C37.2144 30.0374 39.126 31.0603 41.5986 31.0632C44.0771 31.0662 46.0049 30.0741 47.4302 27.9902C48.9038 30.1607 50.9487 31.1586 53.5606 31.0588V58.0702H50.1958V36.9627C50.1958 35.6493 49.979 35.435 48.6592 35.435H36.4717C35.0493 35.435 34.8633 35.6243 34.8633 37.0742V58.1128H14.9004C14.7832 58.1128 14.666 58.1186 14.5488 58.1128C14.0142 58.0849 13.4971 58.1377 13.2817 58.7203C13.0708 59.2912 13.3843 59.683 13.8281 59.9985H54.8438C55.4092 59.6771 55.5132 59.1606 55.5132 58.5574C55.5044 49.5189 55.5132 40.4789 55.4956 31.4389C55.4941 30.9429 55.6187 30.6978 56.0977 30.4894C58.1792 29.5869 59.417 27.9741 59.8857 25.761C59.918 25.6099 59.9619 25.4617 60 25.312V24.1394C59.7671 22.9801 59.5269 21.8237 59.3057 20.6614V20.6628ZM48.2666 58.0687H36.7983V42.4322H48.2666V58.0687ZM48.2739 40.4466H36.7998V37.3809H48.2739V40.4466ZM12.019 21.3966C11.8843 22.4796 11.7085 23.5583 11.6177 24.6457C11.3716 27.5734 9.26221 29.3917 6.33105 29.1613C3.86719 28.9676 2.19287 27.4105 1.95117 24.9583C1.88525 24.2847 2.10791 23.5759 2.2251 22.8891C2.47119 21.4524 2.73486 20.0186 3 18.5423H12.3647C12.2476 19.5152 12.1348 20.4559 12.019 21.3966ZM12.9844 16.3586C12.9229 16.4833 12.731 16.6198 12.6006 16.6213C9.87158 16.6301 7.14258 16.6198 4.41211 16.611C4.40332 16.611 4.39307 16.5802 4.35938 16.5229C4.44727 16.4055 4.54102 16.2661 4.64648 16.1384C6.34277 14.1015 8.04785 12.0719 9.73242 10.0247C9.99463 9.70625 10.2642 9.59178 10.6729 9.59618C12.5215 9.6182 14.3701 9.60646 16.314 9.60646C15.1729 11.9296 14.0859 14.1485 12.9844 16.3586ZM23.4214 21.4171C23.3628 22.4899 23.2573 23.5612 23.2354 24.634C23.1812 27.3783 20.8682 29.5443 17.6631 29.1261C15.2915 28.8164 13.7021 27.2095 13.5615 24.835C13.5103 23.9721 13.7212 23.0931 13.8267 22.2228C13.9731 21.0033 14.1313 19.7867 14.2881 18.5437H23.5591C23.5122 19.5211 23.4727 20.4691 23.4214 21.4171ZM23.7554 16.6022H15.019C15.104 16.4041 15.1699 16.2265 15.2534 16.0577C16.2305 14.0633 17.2192 12.0734 18.1846 10.0731C18.3486 9.73413 18.5273 9.58885 18.9272 9.59472C20.7041 9.62113 22.4795 9.60499 24.2563 9.60646C24.4292 9.60646 24.6021 9.62113 24.8159 9.6314C24.46 11.9706 24.1099 14.2747 23.7554 16.6022ZM34.3594 26.6151C33.4395 28.4584 31.5967 29.3844 29.4448 29.1496C26.7041 28.8502 25.0342 26.8866 25.1733 24.1247C25.2612 22.3901 25.3491 20.654 25.4385 18.9194C25.4443 18.8064 25.4619 18.6949 25.478 18.5511H34.5703C34.6523 20.7406 34.7637 22.8994 34.79 25.0596C34.7974 25.5791 34.5967 26.1397 34.3594 26.6151ZM25.6772 16.6051C26.0303 14.2747 26.3789 11.9706 26.7319 9.63727H33.2666C33.6196 11.9589 33.9697 14.2644 34.3242 16.6051H25.6772ZM10.4736 7.68546V1.93861H49.5264V7.68546H10.4736ZM35.1797 9.60646H38.1885C39.1846 9.60646 40.1807 9.59472 41.1753 9.61673C41.3511 9.62113 41.6162 9.72533 41.6836 9.86181C42.7822 12.0572 43.856 14.2659 44.9326 16.4716C44.9473 16.5009 44.9355 16.5449 44.9355 16.6066H36.2461C35.8916 14.282 35.54 11.9765 35.1797 9.60646ZM42.2666 29.1496C39.2783 29.4724 36.9844 27.6512 36.7778 24.678C36.6841 23.3337 36.627 21.988 36.5522 20.6423C36.5142 19.9628 36.4717 19.2834 36.4292 18.5584H45.7148C45.9697 20.5924 46.3447 22.5985 46.4443 24.6193C46.5557 26.8822 44.7656 28.8781 42.2666 29.1496ZM47.0215 16.3527C45.9082 14.1485 44.8271 11.9281 43.7065 9.64902C43.8999 9.6314 44.0405 9.60792 44.1826 9.60792C45.9375 9.60499 47.6924 9.59765 49.4473 9.61673C49.6699 9.61967 49.9658 9.70772 50.0991 9.86474C51.9287 12.0205 53.7349 14.1954 55.5454 16.3659C55.5894 16.4187 55.6143 16.4892 55.6919 16.633H55.002C52.5454 16.633 50.0889 16.6389 47.6309 16.6213C47.4214 16.6198 47.1006 16.5083 47.0215 16.3527ZM54.4453 29.0542C52.4648 29.4108 50.6367 29.0791 49.3638 27.3606C48.9287 26.7736 48.5903 26.0237 48.4746 25.3046C48.1406 23.2295 47.9414 21.131 47.6924 19.0412C47.6733 18.8901 47.6704 18.736 47.6587 18.5452C47.8491 18.5349 48.019 18.5188 48.1904 18.5188C50.9399 18.5173 53.6895 18.5261 56.4404 18.5085C56.874 18.5056 57.0322 18.6156 57.104 19.0676C57.3677 20.7215 57.665 22.371 57.9961 24.0132C58.4502 26.2688 56.7759 28.6345 54.4453 29.0542Z" fill="#02A1F5"/>
<path d="M30.2095 35.4365C27.123 35.435 24.0381 35.4365 20.9531 35.4365C17.8682 35.4365 14.6646 35.4336 11.5195 35.438C10.4531 35.4394 10.1733 35.7241 10.1733 36.7969C10.1733 40.5274 10.1733 44.2578 10.1733 47.9868C10.1748 49.0038 10.4795 49.3076 11.5049 49.3076C17.7744 49.3105 24.0425 49.3105 30.3105 49.3091C31.3638 49.3076 31.6582 49.0068 31.6597 47.9443C31.6611 44.2534 31.6597 40.5626 31.6597 36.8718C31.6597 35.6845 31.4106 35.438 30.2095 35.4365ZM29.7275 47.3719H12.0952V37.3722H29.7275V47.3719Z" fill="#02A1F5"/>
<path d="M47.5928 4.77972C47.6045 5.27868 47.3364 5.58979 46.8662 5.7072C46.6612 5.75856 46.44 5.74535 46.2246 5.74535C35.4873 5.74682 24.75 5.74682 14.0113 5.74535C13.8164 5.74535 13.6157 5.75856 13.4282 5.71747C12.9287 5.60594 12.6387 5.28895 12.6563 4.76504C12.6739 4.27048 12.9654 3.97404 13.4429 3.88452C13.6509 3.8449 13.8706 3.86104 14.0845 3.86104C19.4341 3.85957 24.7837 3.85957 30.1333 3.85957C35.4829 3.85957 40.8311 3.85957 46.1807 3.86104C46.396 3.86104 46.6157 3.8449 46.8238 3.88746C47.2984 3.98431 47.5811 4.28076 47.5928 4.77972Z" fill="#02A1F5"/>
</svg>
