<svg width="16" height="16" viewBox="0 0 16 16" fill="none" xmlns="http://www.w3.org/2000/svg">
<path d="M15.7185 14.5873C14.795 13.6677 13.875 12.7452 12.9515 11.8262C12.8995 11.7748 12.8275 11.7428 12.7616 11.6994C14.0239 10.0621 14.5556 8.26954 14.3012 6.27768C14.0454 4.27733 13.0889 2.65707 11.4797 1.44238C8.56378 -0.759259 4.52591 -0.40464 1.95926 2.261C-0.518926 4.83523 -0.66285 8.90536 1.62244 11.7238C3.99219 14.6467 8.46283 15.3474 11.6806 12.7847C11.7251 12.8406 11.7591 12.8941 11.8031 12.938C12.6841 13.8201 13.5661 14.7006 14.4482 15.5817C14.5231 15.6566 14.5956 15.735 14.676 15.8035C15.1443 16.2015 15.8539 15.9648 15.9814 15.3644C16.0463 15.0583 15.9374 14.805 15.7185 14.5873ZM7.17351 12.7722C4.07365 12.7642 1.57847 10.2544 1.59196 7.15924C1.60545 4.06656 4.11013 1.58622 7.20449 1.60171C10.2954 1.61719 12.7805 4.11351 12.7686 7.1902C12.7561 10.2854 10.2554 12.7807 7.17351 12.7722Z" fill="#6C6C6C"/>
</svg>
