<svg width="66" height="62" viewBox="0 0 66 62" fill="none" xmlns="http://www.w3.org/2000/svg">
<path d="M21.2741 19.9229H2.63335C1.73128 19.9229 1 20.6597 1 21.5687V35.6511" stroke="#2D3484" stroke-width="2" stroke-miterlimit="10" stroke-linecap="round" stroke-linejoin="round"/>
<path d="M1 39.4148V42.4213C1 43.3303 1.73128 44.0672 2.63335 44.0672H17.4741" stroke="#2D3484" stroke-width="2" stroke-miterlimit="10" stroke-linecap="round" stroke-linejoin="round"/>
<path d="M13.523 28.567C13.7573 28.7302 14.0676 28.7302 14.3019 28.567C14.7461 28.2579 15.56 27.8352 16.6895 27.8352C18.3335 27.8352 19.4665 29.1156 19.4665 30.6067C19.4665 32.2903 17.9969 34.2748 14.203 36.0186C14.0186 36.1034 13.8063 36.1034 13.6219 36.0186C9.82805 34.2748 8.3584 32.2903 8.3584 30.6067C8.3584 29.1155 9.49139 27.8352 11.1354 27.8352C12.2649 27.8352 13.0788 28.2578 13.523 28.567Z" stroke="#2D3484" stroke-width="2" stroke-miterlimit="10" stroke-linecap="round" stroke-linejoin="round"/>
<path d="M51.8542 16.6539L51.0811 10.2832" stroke="#2D3484" stroke-width="2" stroke-miterlimit="10" stroke-linecap="round" stroke-linejoin="round"/>
<path d="M50.6247 6.51919L50.0754 1.99258C50.0003 1.3734 49.4413 0.932792 48.8267 1.00845L20.8893 4.45075C20.2749 4.52641 19.8375 5.08979 19.9127 5.7091L23.8509 38.164" stroke="#2D3484" stroke-width="2" stroke-miterlimit="10" stroke-linecap="round" stroke-linejoin="round"/>
<path d="M28.0039 10.4294L43.3522 8.53833" stroke="#2D3484" stroke-width="2" stroke-miterlimit="10" stroke-linecap="round" stroke-linejoin="round"/>
<path d="M28.7588 16.6538L41.6879 15.0608" stroke="#2D3484" stroke-width="2" stroke-miterlimit="10" stroke-linecap="round" stroke-linejoin="round"/>
<path d="M29.5146 22.8784L39.2831 21.6748" stroke="#2D3484" stroke-width="2" stroke-miterlimit="10" stroke-linecap="round" stroke-linejoin="round"/>
<path d="M30.2695 29.1028L36.8043 28.2976" stroke="#2D3484" stroke-width="2" stroke-miterlimit="10" stroke-linecap="round" stroke-linejoin="round"/>
<path d="M31.0244 35.3273L34.545 34.8936" stroke="#2D3484" stroke-width="2" stroke-miterlimit="10" stroke-linecap="round" stroke-linejoin="round"/>
<path d="M60.5848 35.2129L64.9152 23.1832C65.1814 22.4437 64.8022 21.6267 64.0684 21.3585L43.7626 13.9363C43.0287 13.6681 42.2179 14.0502 41.9517 14.7897L37.9629 25.8706C52.0345 23.6341 49.845 34.131 60.5848 35.2129Z" stroke="#2D3484" stroke-width="2" stroke-miterlimit="10" stroke-linecap="round" stroke-linejoin="round"/>
<path d="M48.4824 44.3173L54.9517 46.6819C55.6855 46.9501 56.4963 46.568 56.7625 45.8286L60.5839 35.2126" stroke="#2D3484" stroke-width="2" stroke-miterlimit="10" stroke-linecap="round" stroke-linejoin="round"/>
<path d="M37.9627 25.8706L33.7998 37.4353C33.7549 37.5599 33.7284 37.6866 33.7188 37.8126" stroke="#2D3484" stroke-width="2" stroke-miterlimit="10" stroke-linecap="round" stroke-linejoin="round"/>
<path d="M57.5083 27.2119C58.5884 27.2119 59.4639 26.3297 59.4639 25.2413C59.4639 24.153 58.5884 23.2708 57.5083 23.2708C56.4283 23.2708 55.5527 24.153 55.5527 25.2413C55.5527 26.3297 56.4283 27.2119 57.5083 27.2119Z" stroke="#2D3484" stroke-width="2" stroke-miterlimit="10" stroke-linecap="round" stroke-linejoin="round"/>
<path d="M36.2015 48.737L30.9443 45.1467C30.2718 44.6874 29.3633 45.1729 29.3633 45.9916V53.1721C29.3633 53.9907 30.2718 54.4762 30.9443 54.0169L36.2015 50.4267C36.7944 50.0219 36.7944 49.1419 36.2015 48.737Z" stroke="#2D3484" stroke-width="2" stroke-miterlimit="10" stroke-linecap="round" stroke-linejoin="round"/>
<path d="M48.2439 51.4411V39.826C48.2439 38.9082 47.5056 38.1641 46.5946 38.1641H19.414C18.5031 38.1641 17.7646 38.9081 17.7646 39.826V59.3381C17.7646 60.2559 18.503 61.0001 19.414 61.0001H46.5946C47.5054 61.0001 48.2439 60.2561 48.2439 59.3381V55.2048" stroke="#2D3484" stroke-width="2" stroke-miterlimit="10" stroke-linecap="round" stroke-linejoin="round"/>
</svg>
