<svg width="14" height="14" viewBox="0 0 14 14" fill="none" xmlns="http://www.w3.org/2000/svg">
<path d="M13.9999 8.5792V8.80875C13.8246 9.17858 13.654 9.25254 13.2731 9.12378C13.0185 9.03755 12.7639 8.95055 12.5093 8.86356C12.224 8.76622 12.0841 8.50638 12.1692 8.2316C12.2514 7.96563 12.5097 7.83686 12.7865 7.92807C13.0419 8.01239 13.2935 8.11011 13.5514 8.18561C13.7622 8.24769 13.9174 8.36382 13.9999 8.5792Z" fill="white"/>
<path d="M11.9355 5.88432C12.2467 5.5578 12.3322 5.15808 12.1941 4.72158C12.0575 4.2912 11.7667 4.02792 11.3361 3.95778C10.6118 3.83975 9.88672 3.72746 9.16057 3.6236C9.04406 3.60674 8.98854 3.55922 8.93996 3.45421C8.62546 2.77588 8.30623 2.09985 7.98662 1.4242C7.78609 0.999955 7.45662 0.783426 7.08004 0.768097C6.5767 0.765031 6.21802 0.996123 6.01968 1.41347C5.69094 2.1056 5.36476 2.79926 5.0415 3.49407C5.00498 3.57225 4.96151 3.60635 4.87896 3.61862C4.1667 3.72286 3.45407 3.82518 2.744 3.94514C2.56904 3.97465 2.38495 4.03558 2.23628 4.13446C1.65734 4.51846 1.57699 5.37078 2.06717 5.88547C2.58913 6.43312 3.12132 6.97003 3.65168 7.50848C3.71962 7.57746 3.74665 7.63648 3.72875 7.74264C3.59762 8.50873 3.47051 9.27597 3.35655 10.0447C3.33317 10.2049 3.34413 10.3828 3.38577 10.5387C3.5768 11.2546 4.32705 11.5631 4.98087 11.2044C5.5978 10.866 6.21546 10.5284 6.82728 10.1804C6.95439 10.1084 7.04789 10.108 7.17501 10.18C7.79961 10.5341 8.42895 10.8787 9.05867 11.2221C9.46009 11.4409 9.85421 11.4141 10.2169 11.1343C10.5745 10.8584 10.7173 10.477 10.6432 10.0145C10.5267 9.28938 10.4127 8.56353 10.2841 7.84075C10.2538 7.67021 10.2907 7.56367 10.4087 7.44601C10.9233 6.93171 11.4329 6.41127 11.9355 5.88432ZM9.4842 7.02445C9.31435 7.19461 9.26468 7.38316 9.30449 7.61962C9.44365 8.44703 9.57588 9.27597 9.71285 10.1041C9.72819 10.1969 9.75413 10.3057 9.65843 10.3441C9.59195 10.3709 9.48968 10.3513 9.42174 10.3145C8.72263 9.93514 8.02753 9.54692 7.32988 9.16483C7.22687 9.10811 7.11437 9.07056 7.0037 9.02342C6.89923 9.06596 6.8028 9.09508 6.7155 9.1426C6.00945 9.52852 5.30486 9.91828 4.5999 10.3069C4.57579 10.3199 4.55242 10.3429 4.52758 10.3452C4.46402 10.351 4.38184 10.3728 4.34056 10.341C4.29892 10.3088 4.27336 10.2149 4.28285 10.1555C4.41435 9.31698 4.54876 8.47845 4.69268 7.64223C4.73651 7.38853 4.68574 7.19116 4.5042 7.0095C3.93695 6.44231 3.37919 5.86477 2.81742 5.29107C2.79477 5.26769 2.76263 5.24853 2.75094 5.22017C2.72501 5.15885 2.68118 5.0822 2.69798 5.03161C2.71551 4.97988 2.79295 4.92622 2.85066 4.91664C3.43069 4.82237 4.01256 4.73729 4.59369 4.64914C4.85047 4.61044 5.10762 4.57365 5.36367 4.53149C5.54484 4.5016 5.66282 4.38624 5.74244 4.2157C6.09675 3.45689 6.45434 2.69961 6.81084 1.94195C6.82691 1.90785 6.84152 1.8722 6.86088 1.84001C6.93868 1.71009 7.06506 1.71239 7.1425 1.84499C7.16149 1.87719 7.17647 1.91244 7.19254 1.94655C7.54538 2.69578 7.90042 3.44348 8.24888 4.19462C8.34531 4.40349 8.48922 4.51118 8.70984 4.54299C9.51269 4.65834 10.3141 4.78328 11.1151 4.91243C11.1852 4.92354 11.2846 4.97988 11.3021 5.03775C11.3193 5.09523 11.2674 5.19986 11.2166 5.25236C10.6428 5.84714 10.0668 6.43925 9.4842 7.02445Z" fill="white"/>
<path d="M1.65593 8.77319C1.27423 8.94488 0.874271 9.07097 0.570737 9.18325C0.246749 9.18555 0.0600999 9.02804 0.0107894 8.79618C-0.035599 8.57851 0.0703272 8.33553 0.27597 8.25659C0.617126 8.12628 0.96303 8.00863 1.31186 7.90362C1.51348 7.84307 1.73629 7.9864 1.81921 8.19603C1.90249 8.4072 1.85171 8.68466 1.65593 8.77319Z" fill="white"/>
<path d="M3.71505 1.53223C3.62666 1.70047 3.48566 1.7844 3.31691 1.78517C3.14487 1.78249 3.02032 1.7135 2.92864 1.58244C2.74309 1.31685 2.55644 1.05242 2.37636 0.783003C2.22112 0.550761 2.26715 0.254901 2.47535 0.0970076C2.68647 -0.063569 2.96407 -0.0202631 3.12771 0.208146C3.31874 0.475263 3.50502 0.745829 3.68839 1.01869C3.79723 1.1808 3.80637 1.35786 3.71505 1.53223Z" fill="white"/>
<path d="M11.6498 0.737677C11.4577 1.03852 11.2509 1.3294 11.0427 1.61836C10.9598 1.7341 10.836 1.78622 10.695 1.78468C10.5164 1.78315 10.3791 1.70114 10.2903 1.54018C10.2015 1.37883 10.1946 1.20523 10.2947 1.05155C10.4897 0.752624 10.691 0.457531 10.9036 0.172402C11.0555 -0.0314804 11.3328 -0.0529417 11.5296 0.0995869C11.7189 0.246367 11.7831 0.529196 11.6498 0.737677Z" fill="white"/>
<path d="M7.46548 13.5076C7.46 13.7897 7.25728 14.0016 6.99794 14.0001C6.74043 13.9985 6.53844 13.7847 6.53588 13.5022C6.53296 13.1773 6.53296 12.8523 6.53588 12.5273C6.53844 12.2448 6.7397 12.0295 6.99648 12.0264C7.25691 12.0233 7.46182 12.2425 7.46584 12.5327C7.46803 12.6951 7.46621 12.8576 7.46621 13.0201C7.46621 13.1826 7.46876 13.3451 7.46548 13.5076Z" fill="white"/>
</svg>
