<svg width="21" height="20" viewBox="0 0 21 20" fill="none" xmlns="http://www.w3.org/2000/svg">
<path d="M19.6488 7.98525C19.4032 7.78801 18.9945 7.45899 18.9433 7.30307C18.8913 7.14113 19.0258 6.62005 19.1065 6.30996C19.3 5.56148 19.5412 4.63037 19.0006 3.89739C18.4626 3.16958 17.495 3.10583 16.7174 3.05413C16.3955 3.03174 15.8557 2.9964 15.7194 2.89821C15.5815 2.79917 15.3741 2.29184 15.25 1.98778C14.9436 1.23412 14.5948 0.37967 13.7435 0.107486C12.8965 -0.167263 12.1224 0.31938 11.4412 0.747441C11.1409 0.935194 10.6888 1.21947 10.4996 1.21947C10.3183 1.21947 9.87135 0.93092 9.57456 0.739706C8.91938 0.316774 8.10018 -0.206915 7.23671 0.0842407C6.38712 0.371081 6.04177 1.22032 5.73542 1.96796C5.61221 2.26941 5.40738 2.77242 5.26682 2.87493C5.1297 2.97568 4.58038 3.01187 4.25234 3.03341C3.43227 3.08853 2.50286 3.15057 1.98044 3.8844C1.46758 4.60533 1.69751 5.49422 1.90058 6.2789C1.98044 6.5907 2.11579 7.11268 2.06719 7.26855C2.01514 7.41755 1.61072 7.74746 1.36947 7.9447C0.759322 8.44437 0 9.06535 0 9.99561C0 10.9198 0.744598 11.5339 1.34248 12.0266C1.60195 12.2402 1.99332 12.5632 2.04627 12.7234C2.09832 12.8819 1.96297 13.397 1.88139 13.7045C1.68353 14.4599 1.4362 15.4005 1.99767 16.1395C2.54527 16.8578 3.50852 16.9215 4.28347 16.9732C4.60544 16.9956 5.14434 17.0301 5.28146 17.1292C5.41857 17.2282 5.62513 17.7347 5.7492 18.0387C6.05641 18.7924 6.40438 19.6468 7.25657 19.9199C7.42752 19.9759 7.59675 20 7.76163 20C8.41423 20 9.01647 19.621 9.55972 19.2816C9.85909 19.0939 10.3104 18.8096 10.4995 18.8096C10.6844 18.8096 11.1287 19.0904 11.422 19.2765C12.0729 19.6873 12.8851 20.2024 13.7469 19.9095C14.5956 19.6227 14.941 18.7743 15.2473 18.025C15.3705 17.7244 15.5754 17.2205 15.7159 17.118C15.8539 17.0172 16.3997 16.9811 16.726 16.9595C17.54 16.9044 18.4634 16.8433 18.9936 16.1206C19.5273 15.3945 19.2982 14.4961 19.0961 13.7045C19.0171 13.3953 18.8852 12.8794 18.9329 12.7243C18.9849 12.5753 19.3894 12.2454 19.6298 12.0482C20.2407 11.5486 21 10.9267 21 9.99646C21 9.07398 20.2502 8.47018 19.6488 7.98525ZM18.5268 10.72C18.0191 11.1343 17.4941 11.5641 17.2875 12.18C17.0767 12.807 17.2485 13.4788 17.4142 14.1283C17.4949 14.4453 17.6303 14.975 17.6121 15.0844C17.4802 15.1825 16.936 15.2196 16.6106 15.2403C15.9659 15.2833 15.2352 15.3316 14.6911 15.7278C14.1522 16.1197 13.8909 16.7596 13.6384 17.3781C13.5152 17.683 13.3069 18.1938 13.221 18.2713C13.063 18.2713 12.6213 17.9896 12.3567 17.8226C11.8108 17.478 11.1921 17.0861 10.5004 17.0861C9.8079 17.0861 9.18393 17.4789 8.63203 17.8252C8.36473 17.9923 7.91696 18.2748 7.82152 18.2954C7.68703 18.1998 7.48219 17.6951 7.35898 17.3936C7.10387 16.7675 6.84005 16.1206 6.29594 15.7321C5.75531 15.3454 5.06625 15.2997 4.39893 15.2558C4.08565 15.2351 3.50163 15.1964 3.39572 15.1249C3.34191 14.9724 3.47817 14.4514 3.56061 14.1413C3.72114 13.5271 3.90428 12.8312 3.69772 12.1955C3.49031 11.5607 2.93926 11.1051 2.45241 10.7037C2.21464 10.5073 1.77118 10.1412 1.73385 10.0086C1.7729 9.84665 2.2285 9.47371 2.4732 9.27476C2.98085 8.85961 3.50589 8.4298 3.71245 7.81394C3.92507 7.18257 3.74977 6.50557 3.5814 5.85096C3.49982 5.53485 3.36271 5.00599 3.37312 4.90524C3.50589 4.81051 4.04566 4.77432 4.36849 4.75278C5.04623 4.708 5.7483 4.66061 6.29241 4.26528C6.83132 3.87337 7.09255 3.23427 7.34508 2.61585C7.46829 2.31008 7.67747 1.80015 7.75729 1.7235C7.91782 1.72606 8.36386 2.01376 8.6303 2.18518C9.18049 2.54005 9.80532 2.9423 10.5004 2.9423C11.1921 2.9423 11.8177 2.54953 12.3679 2.20415C12.6352 2.03619 13.083 1.75456 13.1785 1.73388C13.3121 1.8295 13.5178 2.33422 13.641 2.63568C13.8961 3.26102 14.1599 3.90785 14.7041 4.2963C15.2447 4.6839 15.9346 4.72953 16.6028 4.77346C16.9326 4.79585 17.4854 4.8329 17.5886 4.8949C17.6416 5.0465 17.5071 5.57019 17.4255 5.88198C17.2667 6.49869 17.0862 7.19723 17.2936 7.83462C17.5027 8.47633 18.0625 8.92678 18.5562 9.32386C18.7819 9.50644 19.1976 9.83981 19.2618 10C19.2002 10.1679 18.7637 10.5253 18.5268 10.72Z" fill="#04C600"/>
<path d="M14.3823 6.75105C14.0126 6.44442 13.4667 6.49437 13.1604 6.85872L9.29089 11.4505L7.64464 9.81742C7.30532 9.48063 6.75686 9.48063 6.41758 9.81742C6.07826 10.1542 6.07826 10.6986 6.41758 11.0353L8.73463 13.3351C8.89689 13.4979 9.11821 13.5875 9.34818 13.5875C9.36033 13.5875 9.37337 13.5875 9.38551 13.5857C9.63021 13.5754 9.85674 13.4635 10.0129 13.2783L14.4907 7.96378C14.7979 7.59862 14.7502 7.05596 14.3823 6.75105Z" fill="#04C600"/>
</svg>
