<svg width="130" height="180" viewBox="0 0 130 180" fill="none" xmlns="http://www.w3.org/2000/svg">
<path d="M248.592 55L250 55C250 -14.0345 194.041 -70 124.986 -70C55.9592 -70 5.50758e-10 -14.0345 1.23013e-09 55C1.9095e-09 124.034 55.9592 180 124.986 180C194.013 180 249.972 124.034 249.972 55L247.156 55C247.156 88.7427 233.469 119.274 211.361 141.413C189.253 163.523 158.697 177.212 124.958 177.212C91.2189 177.212 60.6905 163.523 38.5547 141.413C16.5033 119.303 2.81627 88.7708 2.81627 55C2.81627 21.2573 16.5033 -9.27446 38.611 -31.4128C60.7187 -53.4948 91.247 -67.1834 124.986 -67.1834C158.725 -67.1834 189.253 -53.4948 211.389 -31.3846C233.497 -9.27446 247.184 21.2855 247.184 55.0281L248.592 55.0281L248.592 55Z" fill="white" fill-opacity="0.1"/>
<path d="M228.483 54.9998L229.891 54.9998C229.891 -2.93736 182.916 -49.918 124.986 -49.918C67.0549 -49.918 20.0796 -2.93736 20.0796 54.9998C20.0796 112.937 67.0549 159.917 124.986 159.917C182.916 159.917 229.891 112.937 229.891 54.9998L227.075 54.9998C227.075 83.1938 215.641 108.712 197.166 127.189C178.692 145.666 153.176 157.101 124.986 157.101C96.7947 157.101 71.2793 145.666 52.8046 127.189C34.3299 108.712 22.8959 83.1938 22.8959 54.9998C22.8959 26.8058 34.3299 1.28752 52.8046 -17.1893C71.2793 -35.6661 96.7947 -47.1014 124.986 -47.1014C153.176 -47.1014 178.692 -35.6661 197.166 -17.1893C215.641 1.28752 227.075 26.8058 227.075 54.9998L228.483 54.9998V54.9998Z" fill="white" fill-opacity="0.1"/>
<path d="M208.376 55.0002L209.784 55.0002C209.784 8.16043 171.821 -29.8071 124.986 -29.8071C78.1515 -29.8071 40.1882 8.16043 40.1882 55.0002C40.1882 101.84 78.1515 139.808 124.986 139.808C171.821 139.808 209.784 101.84 209.784 55.0002L206.968 55.0002C206.968 77.6455 197.787 98.1221 182.945 112.966C168.103 127.809 147.629 136.991 124.986 136.991C102.343 136.991 81.869 127.809 67.0272 112.966C52.1855 98.1221 43.0045 77.6455 43.0045 55.0002C43.0045 32.3549 52.1855 11.8783 67.0272 -2.96509C81.869 -17.8085 102.343 -26.9905 124.986 -26.9905C147.629 -26.9905 168.103 -17.8085 182.945 -2.96509C197.787 11.8783 206.968 32.3549 206.968 55.0002L208.376 55.0002V55.0002Z" fill="white" fill-opacity="0.1"/>
<path d="M188.295 55.0006L189.703 55.0006C189.703 19.2582 160.724 -9.69629 125.014 -9.69629C89.2752 -9.69629 60.324 19.2864 60.324 55.0006C60.324 90.7431 89.3034 119.698 125.014 119.698C160.752 119.698 189.703 90.7149 189.703 55.0006L186.887 55.0006C186.887 72.0973 179.959 87.5603 168.75 98.7704C157.542 109.98 142.08 116.909 124.985 116.909C107.891 116.909 92.4294 109.98 81.2207 98.7704C70.0119 87.5603 63.0839 72.0973 63.0839 55.0006C63.0839 37.904 70.0119 22.4409 81.2207 11.2309C92.4294 0.0209261 107.891 -6.90787 124.985 -6.90787C142.08 -6.90787 157.542 0.0209261 168.75 11.2309C179.959 22.4409 186.887 37.904 186.887 55.0006L188.295 55.0006Z" fill="white" fill-opacity="0.1"/>
<path d="M168.187 55.0009L169.596 55.0009C169.596 30.3558 149.628 10.3862 124.986 10.3862C100.344 10.3862 80.3762 30.3558 80.3762 55.0009C80.3762 79.646 100.344 99.6156 124.986 99.6156C149.628 99.6156 169.596 79.646 169.596 55.0009L166.779 55.0009C166.779 66.5489 162.104 76.9703 154.529 84.5469C146.953 92.1235 136.533 96.799 124.986 96.799C113.439 96.799 102.991 92.1235 95.4432 84.5469C87.8675 76.9703 83.1925 66.5489 83.1925 55.0009C83.1925 43.4529 87.8675 33.0034 95.4432 25.4549C103.019 17.8783 113.439 13.2028 124.986 13.2028C136.533 13.2028 146.953 17.8783 154.529 25.4549C162.104 33.0316 166.779 43.4529 166.779 55.0009L168.187 55.0009V55.0009Z" fill="white" fill-opacity="0.1"/>
</svg>
