<svg width="184" height="40" viewBox="0 0 184 40" fill="none" xmlns="http://www.w3.org/2000/svg">
<path d="M41.9992 19.1911C39.4728 16.7809 36.2552 16.5111 34.0347 18.7741C30.4379 22.4354 27.0368 26.2929 23.4521 30.1689C26.8777 33.0023 29.2389 32.9287 32.065 29.942C35.4172 26.3972 38.696 22.7788 41.9992 19.1973V19.1911Z" fill="white"/>
<path d="M24.1803 37.3436C24.217 35.7859 23.0058 34.5287 21.4643 34.5226C19.9779 34.5103 18.7361 35.7369 18.7177 37.2272C18.6994 38.7236 19.9106 39.9746 21.397 39.9992C22.9079 40.0237 24.1436 38.84 24.1803 37.3436Z" fill="white"/>
<path d="M29.7658 17.7742C26.1751 21.8587 22.4987 25.8696 18.7917 29.8498C15.8555 32.9959 12.7786 33.0204 9.72007 29.9479C6.64317 26.8569 3.65191 23.6801 0.630061 20.5279C0.367026 20.2519 0.201864 19.8962 0 19.5896C2.59977 17.0874 5.67667 16.9954 8.28867 19.4669C10.3257 21.3926 12.1791 23.5207 14.2528 25.704C17.3053 22.337 20.1803 19.148 23.0309 16.008C23.7038 15.272 24.3766 14.5361 25.0434 13.8002C26.3708 12.3467 26.695 10.7705 25.857 8.97973C25.4104 8.02914 24.7131 7.28094 23.8873 6.80258C23.8873 6.80258 23.8812 6.80257 23.875 6.79644C23.349 6.4898 22.7678 6.29969 22.1622 6.23223C22.1622 6.23223 22.1623 6.23223 22.1561 6.23223C21.9359 6.20157 21.7035 6.18316 21.471 6.18316C18.7306 6.16476 16.4366 8.42167 16.4122 11.163C16.3999 12.5429 16.9505 13.8063 17.8497 14.7323C17.8619 14.8304 17.8742 14.9286 17.8864 15.0267C17.1095 15.8915 15.8127 17.3204 14.4425 18.8291C9.92194 14.4993 9.60385 7.93717 13.5127 3.60126C17.5255 -0.857307 24.4317 -1.2253 28.8972 2.7733C33.3137 6.72898 33.7419 13.2359 29.7597 17.7681L29.7658 17.7742Z" fill="white"/>
<path d="M56.8878 25.0457C55.5066 25.0457 54.2972 24.7323 53.2598 24.1117C52.2223 23.491 51.4242 22.6133 50.8533 21.4849C50.2824 20.3565 50 19.0337 50 17.5104C50 16.3631 50.1596 15.3287 50.485 14.4072C50.8103 13.4856 51.2769 12.702 51.8785 12.0437C52.4801 11.3855 53.2045 10.884 54.0517 10.5266C54.8988 10.1756 55.8442 10 56.8878 10C58.2814 10 59.4969 10.3072 60.5221 10.9216C61.5534 11.5359 62.3515 12.4073 62.9224 13.5232C63.4933 14.6454 63.7757 15.9619 63.7757 17.4853C63.7757 18.6325 63.6161 19.6732 63.2907 20.5947C62.9653 21.5225 62.4988 22.3187 61.8972 22.9832C61.2956 23.6478 60.5712 24.1555 59.724 24.5066C58.8768 24.8577 57.9314 25.0332 56.8878 25.0332V25.0457ZM56.8878 22.7638C57.7657 22.7638 58.5146 22.5569 59.1347 22.1432C59.7486 21.7294 60.2274 21.1276 60.5589 20.3377C60.8904 19.5478 61.0561 18.6074 61.0561 17.5166C61.0561 15.8553 60.6939 14.5702 59.9696 13.6549C59.2452 12.7396 58.22 12.2882 56.894 12.2882C56.0284 12.2882 55.2794 12.4951 54.6594 12.9026C54.0332 13.3101 53.5606 13.9056 53.2291 14.6893C52.8976 15.4729 52.7318 16.4132 52.7318 17.5229C52.7318 19.1716 53.1001 20.4568 53.8307 21.3846C54.5612 22.3124 55.5864 22.7763 56.9001 22.7763L56.8878 22.7638ZM62.376 27.1835C62.5663 27.4907 62.64 27.7665 62.597 28.011C62.554 28.2618 62.4497 28.4687 62.2716 28.6442C62.0936 28.8197 61.8788 28.9263 61.6209 28.9764C61.3631 29.0266 61.1053 28.9953 60.8474 28.8949C60.5896 28.7884 60.3747 28.594 60.1967 28.3057L58.797 26.0049C58.6067 25.6852 58.355 25.447 58.0358 25.2902C57.7166 25.1335 57.3298 25.052 56.8694 25.052L58.883 24.2433C59.5214 24.2433 60.0248 24.3562 60.4054 24.5881C60.786 24.8138 61.1482 25.215 61.5043 25.7792L62.376 27.1898V27.1835Z" fill="white"/>
<path d="M73.5862 25.0464C72.5978 25.0464 71.7261 24.9147 70.9771 24.6514C70.2282 24.3881 69.5897 23.9994 69.0802 23.4791C68.5645 22.9588 68.1778 22.3131 67.92 21.542C67.6621 20.7709 67.5332 19.8681 67.5332 18.8463V11.3986C67.5332 10.941 67.6437 10.6025 67.8708 10.3831C68.098 10.1636 68.4172 10.0508 68.8346 10.0508C69.2521 10.0508 69.5775 10.1636 69.7985 10.3831C70.0195 10.6025 70.1361 10.941 70.1361 11.3986V18.8275C70.1361 20.144 70.4308 21.1282 71.0201 21.7865C71.6094 22.4447 72.4627 22.7707 73.5923 22.7707C74.7218 22.7707 75.569 22.4447 76.1522 21.7865C76.7354 21.1282 77.0239 20.144 77.0239 18.8275V11.3986C77.0239 10.941 77.1344 10.6025 77.3616 10.3831C77.5826 10.1636 77.9079 10.0508 78.3254 10.0508C78.7428 10.0508 79.0436 10.1636 79.2708 10.3831C79.4918 10.6025 79.6084 10.941 79.6084 11.3986V18.8463C79.6084 20.2004 79.3813 21.3413 78.927 22.2692C78.4727 23.197 77.7974 23.8929 76.9073 24.3568C76.011 24.8207 74.9122 25.0526 73.5984 25.0526L73.5862 25.0464Z" fill="white"/>
<path d="M85.2318 24.8386C84.7837 24.8386 84.4399 24.7195 84.2066 24.475C83.9672 24.2305 83.8506 23.8857 83.8506 23.4281V11.6234C83.8506 11.1658 83.9672 10.8147 84.2066 10.5765C84.4461 10.332 84.7837 10.2129 85.2318 10.2129H92.4819C92.8195 10.2129 93.0835 10.3007 93.2615 10.4825C93.4457 10.6643 93.5378 10.915 93.5378 11.2473C93.5378 11.5796 93.4457 11.8616 93.2615 12.0434C93.0773 12.2315 92.8195 12.3256 92.4819 12.3256H86.3491V16.3503H92.0399C92.3898 16.3503 92.6538 16.438 92.8318 16.6198C93.0098 16.8017 93.0958 17.065 93.0958 17.4098C93.0958 17.7546 93.0098 18.0179 92.8318 18.1997C92.6538 18.3815 92.3898 18.4692 92.0399 18.4692H86.3491V22.7197H92.4819C92.8195 22.7197 93.0835 22.8074 93.2615 22.9892C93.4457 23.171 93.5378 23.4343 93.5378 23.7791C93.5378 24.1239 93.4457 24.3872 93.2615 24.569C93.0773 24.7508 92.8195 24.8386 92.4819 24.8386H85.2318Z" fill="white"/>
<path d="M101.929 25.0459C101.333 25.0459 100.738 25.002 100.143 24.908C99.5471 24.8139 98.9823 24.6823 98.4543 24.4942C97.9264 24.3061 97.4537 24.0742 97.0301 23.7983C96.7846 23.6291 96.6188 23.4348 96.5206 23.1965C96.4285 22.9646 96.3978 22.7326 96.4285 22.5006C96.4653 22.275 96.5513 22.0744 96.6925 21.8988C96.8337 21.7233 97.0117 21.6167 97.2327 21.5791C97.4476 21.5352 97.687 21.5979 97.9448 21.7672C98.5403 22.1245 99.1726 22.3878 99.8356 22.5571C100.499 22.7263 101.198 22.8078 101.929 22.8078C102.997 22.8078 103.777 22.6261 104.268 22.2562C104.753 21.8926 104.998 21.4161 104.998 20.8331C104.998 20.3504 104.827 19.968 104.483 19.6921C104.139 19.4163 103.543 19.1843 102.702 19.0088L100.468 18.5324C99.1787 18.2565 98.2211 17.7863 97.5949 17.1343C96.9626 16.4761 96.6495 15.611 96.6495 14.5327C96.6495 13.8556 96.7846 13.2413 97.0547 12.6833C97.3248 12.1316 97.7054 11.6552 98.2026 11.254C98.6938 10.8527 99.2831 10.5456 99.9706 10.3324C100.652 10.1193 101.407 10.0127 102.236 10.0127C103.065 10.0127 103.82 10.1193 104.55 10.3261C105.281 10.533 105.938 10.8402 106.521 11.2414C106.736 11.3919 106.883 11.5799 106.957 11.7994C107.03 12.0188 107.049 12.2382 107.006 12.4514C106.963 12.6645 106.871 12.8463 106.723 13.003C106.576 13.1535 106.386 13.2475 106.165 13.2726C105.944 13.2977 105.686 13.2287 105.404 13.0657C104.9 12.7773 104.397 12.5705 103.881 12.4451C103.365 12.3197 102.813 12.257 102.217 12.257C101.622 12.257 101.057 12.3448 100.615 12.5266C100.167 12.7084 99.8233 12.9592 99.59 13.2852C99.3506 13.6112 99.234 13.9935 99.234 14.4386C99.234 14.9339 99.3936 15.3351 99.7189 15.6298C100.044 15.9307 100.597 16.1564 101.383 16.3256L103.599 16.8021C104.937 17.0905 105.938 17.5481 106.595 18.1687C107.251 18.7894 107.583 19.6231 107.583 20.6575C107.583 21.3221 107.448 21.9239 107.184 22.463C106.92 23.0022 106.539 23.4661 106.048 23.8548C105.551 24.2435 104.962 24.5381 104.268 24.745C103.58 24.9519 102.801 25.0584 101.929 25.0584V25.0459Z" fill="white"/>
<path d="M115.477 25.0024C115.06 25.0024 114.734 24.8833 114.513 24.6388C114.292 24.3943 114.176 24.0621 114.176 23.6295V12.4267H110.216C109.866 12.4267 109.59 12.3264 109.394 12.1258C109.197 11.9252 109.099 11.6493 109.099 11.3045C109.099 10.9597 109.197 10.6714 109.394 10.4833C109.59 10.2952 109.866 10.2012 110.216 10.2012H120.738C121.088 10.2012 121.364 10.2952 121.561 10.4833C121.757 10.6714 121.855 10.9409 121.855 11.3045C121.855 11.6681 121.757 11.9252 121.561 12.1258C121.364 12.3264 121.088 12.4267 120.738 12.4267H116.779V23.6295C116.779 24.0558 116.668 24.3943 116.453 24.6388C116.238 24.8833 115.913 25.0024 115.477 25.0024Z" fill="white"/>
<path d="M129.904 25.0023C129.536 25.0023 129.241 24.9146 129.02 24.7328C128.799 24.551 128.615 24.2689 128.48 23.8802L124.232 11.6179C124.085 11.1728 124.115 10.8029 124.324 10.4958C124.533 10.1948 124.889 10.0381 125.392 10.0381C125.761 10.0381 126.043 10.1259 126.246 10.2951C126.448 10.4707 126.614 10.7402 126.731 11.1164L130.389 22.1938H129.579L133.397 11.1352C133.533 10.759 133.704 10.4832 133.907 10.3077C134.11 10.1322 134.374 10.0381 134.699 10.0381C135.024 10.0381 135.282 10.1259 135.472 10.3077C135.663 10.4895 135.822 10.7716 135.957 11.1603L139.653 22.2001H138.941L142.661 11.1227C142.784 10.7653 142.943 10.4957 143.146 10.3139C143.349 10.1321 143.625 10.0444 143.981 10.0444C144.417 10.0444 144.73 10.1948 144.932 10.502C145.135 10.8092 145.16 11.1791 145.012 11.6242L140.727 23.9052C140.592 24.2814 140.414 24.5572 140.199 24.7328C139.984 24.9083 139.69 25.0023 139.328 25.0023C138.965 25.0023 138.671 24.9146 138.456 24.7328C138.241 24.551 138.063 24.2689 137.928 23.8802L134.392 13.5927H134.858L131.286 23.9052C131.151 24.2814 130.979 24.5572 130.77 24.7328C130.561 24.9146 130.273 25.0023 129.904 25.0023Z" fill="white"/>
<path d="M149.997 25.0019C149.579 25.0019 149.254 24.8828 149.033 24.6383C148.812 24.3938 148.696 24.0616 148.696 23.629V11.4106C148.696 10.9655 148.806 10.627 149.033 10.395C149.254 10.1631 149.579 10.0439 149.997 10.0439C150.414 10.0439 150.739 10.1631 150.96 10.395C151.181 10.6332 151.297 10.9718 151.297 11.4106V23.629C151.297 24.0553 151.187 24.3938 150.972 24.6383C150.757 24.8828 150.432 25.0019 149.997 25.0019Z" fill="white"/>
<path d="M156.86 25.0019C156.467 25.0019 156.166 24.8891 155.958 24.6697C155.749 24.4502 155.645 24.1305 155.645 23.7168V11.373C155.645 10.9467 155.749 10.6144 155.958 10.3887C156.166 10.163 156.443 10.0439 156.78 10.0439C157.093 10.0439 157.327 10.1004 157.48 10.2195C157.634 10.3386 157.824 10.533 158.039 10.8088L165.817 21.1214H165.289V11.3103C165.289 10.9091 165.393 10.5956 165.602 10.3762C165.811 10.1568 166.111 10.0439 166.504 10.0439C166.897 10.0439 167.198 10.1568 167.401 10.3762C167.603 10.5956 167.707 10.9091 167.707 11.3103V23.7606C167.707 24.1493 167.615 24.4503 167.425 24.6759C167.235 24.8954 166.977 25.0082 166.652 25.0082C166.326 25.0082 166.093 24.9455 165.909 24.8201C165.725 24.6947 165.528 24.4941 165.307 24.2183L157.548 13.9057H158.057V23.7168C158.057 24.1305 157.953 24.4502 157.75 24.6697C157.548 24.8891 157.247 25.0019 156.854 25.0019H156.86Z" fill="white"/>
<path d="M178.948 25.0457C177.364 25.0457 176.026 24.7386 174.933 24.1305C173.841 23.5224 173.012 22.6572 172.447 21.5351C171.876 20.4129 171.594 19.0839 171.594 17.5542C171.594 16.3945 171.759 15.3475 172.091 14.4197C172.422 13.4919 172.901 12.702 173.534 12.0437C174.166 11.3855 174.933 10.884 175.842 10.5266C176.75 10.1756 177.776 10 178.93 10C179.691 10 180.452 10.094 181.213 10.2821C181.981 10.4702 182.699 10.7836 183.374 11.2287C183.601 11.3792 183.755 11.5673 183.835 11.7867C183.908 12.0061 183.921 12.2318 183.865 12.4637C183.81 12.6894 183.712 12.89 183.558 13.053C183.411 13.216 183.221 13.3226 183 13.3665C182.779 13.4104 182.527 13.354 182.257 13.2035C181.741 12.8963 181.22 12.6769 180.692 12.539C180.164 12.4011 179.574 12.3321 178.924 12.3321C177.923 12.3321 177.076 12.539 176.382 12.9465C175.695 13.354 175.173 13.9433 174.829 14.7206C174.485 15.498 174.313 16.4446 174.313 17.5605C174.313 19.2594 174.712 20.5571 175.51 21.441C176.308 22.325 177.493 22.7701 179.065 22.7701C179.605 22.7701 180.158 22.7137 180.71 22.6071C181.263 22.4943 181.809 22.3438 182.337 22.1494L181.827 23.3343V18.9146H179.593C179.255 18.9146 178.991 18.8269 178.813 18.6451C178.629 18.4633 178.537 18.225 178.537 17.9178C178.537 17.6106 178.629 17.3599 178.813 17.1906C178.997 17.0276 179.255 16.9399 179.593 16.9399H182.945C183.282 16.9399 183.546 17.0339 183.724 17.222C183.902 17.41 184 17.6733 184 18.0181V23.0585C184 23.3656 183.945 23.6164 183.829 23.8233C183.712 24.0302 183.528 24.1806 183.27 24.2809C182.674 24.5003 181.993 24.6884 181.22 24.8326C180.446 24.9768 179.691 25.052 178.942 25.052L178.948 25.0457Z" fill="white"/>
</svg>
