<svg width="24" height="24" viewBox="0 0 24 24" fill="none" xmlns="http://www.w3.org/2000/svg">
<path d="M11.9979 5.91659e-07C5.37969 0.00137493 0.00619249 5.37021 6.57624e-06 11.9883C-0.00686667 18.6154 5.37488 24.0007 12.0014 24C18.6196 23.9986 23.9931 18.6298 24 12.0103C24.0076 5.38327 18.6265 -0.00206091 11.9979 5.91659e-07ZM11.9883 22.2896C6.3172 22.2807 1.69976 17.6526 1.70938 11.9876C1.719 6.31575 6.3447 1.70074 12.0117 1.70967C17.6842 1.71861 22.3002 6.34461 22.2906 12.011C22.281 17.6842 17.6553 22.2993 11.9883 22.2896Z" fill="white"/>
<path d="M17.4985 8.93381C17.027 9.44437 16.5514 9.95013 16.0778 10.4573C14.3169 12.3428 12.5567 14.2298 10.7944 16.114C10.2754 16.6692 9.76955 16.6548 9.27743 16.0797C8.35779 15.0049 7.43471 13.9336 6.51782 12.8568C6.04906 12.3064 6.27451 11.5526 6.94877 11.4069C7.30206 11.3306 7.58455 11.4667 7.81411 11.7347C8.50487 12.5428 9.19701 13.3489 9.88915 14.1556C9.94482 14.2202 10.0019 14.2841 10.0782 14.3707C10.9786 13.4059 11.8611 12.4604 12.7443 11.5148C13.8962 10.2807 15.0503 9.04788 16.2008 7.81166C16.4194 7.57597 16.6758 7.44334 16.9995 7.49419C17.3294 7.54642 17.57 7.73058 17.6807 8.05011C17.7927 8.37514 17.7343 8.67818 17.4985 8.93381Z" fill="white"/>
</svg>
